<?xml version="1.0" encoding="iso-8859-1"?>
<!-- Generator: Adobe Illustrator 19.0.0, SVG Export Plug-In . SVG Version: 6.00 Build 0)  -->
<svg version="1.1" id="Layer_1" xmlns="http://www.w3.org/2000/svg" xmlns:xlink="http://www.w3.org/1999/xlink" x="0px" y="0px"
	 viewBox="0 0 512 512" style="enable-background:new 0 0 512 512;" xml:space="preserve">
<g>
	<g>
		<g>
			<path d="M503.916,133.4c4.466,0,8.084-3.618,8.084-8.084v-10.979c0-20.62-16.775-37.394-37.393-37.394H37.393
				C16.775,76.942,0,93.716,0,114.337v283.326c0,20.62,16.775,37.395,37.393,37.395h437.212c20.619,0,37.393-16.775,37.393-37.395
				V151.546c0-4.466-3.619-8.084-8.084-8.084H16.168v-29.125c0-11.704,9.522-21.226,21.225-21.226h437.212
				c11.703,0,21.225,9.522,21.225,21.226v10.979C495.832,129.781,499.45,133.4,503.916,133.4z M495.832,397.662
				c0,11.705-9.522,21.227-21.225,21.227H37.393c-11.703,0-21.225-9.522-21.225-21.227v-125.14h479.663V397.662z M495.832,256.354
				H16.168v-26.982h479.663V256.354z M495.832,159.63v53.573H16.168V159.63H495.832z"/>
			<path d="M61.771,320.615h101.322c4.466,0,8.084-3.618,8.084-8.084c0-4.466-3.62-8.084-8.084-8.084H61.771
				c-4.466,0-8.084,3.618-8.084,8.084C53.687,316.997,57.305,320.615,61.771,320.615z"/>
			<path d="M61.771,354.219h101.322c4.466,0,8.084-3.619,8.084-8.084c0-4.466-3.62-8.084-8.084-8.084H61.771
				c-4.466,0-8.084,3.618-8.084,8.084C53.687,350.6,57.305,354.219,61.771,354.219z"/>
			<path d="M61.771,387.822h101.322c4.466,0,8.084-3.618,8.084-8.084c0-4.466-3.62-8.084-8.084-8.084H61.771
				c-4.466,0-8.084,3.618-8.084,8.084C53.687,384.204,57.305,387.822,61.771,387.822z"/>
			<path d="M317.375,397.381c0.066,0.066,0.137,0.122,0.205,0.185c0.066,0.061,0.133,0.122,0.201,0.181
				c0.254,0.222,0.517,0.431,0.793,0.618c0.012,0.008,0.023,0.017,0.033,0.025c0.293,0.195,0.599,0.363,0.911,0.517
				c0.078,0.038,0.155,0.073,0.234,0.109c0.291,0.133,0.587,0.25,0.89,0.346c0.034,0.011,0.067,0.025,0.101,0.036
				c0.333,0.101,0.673,0.174,1.016,0.231c0.087,0.015,0.176,0.027,0.264,0.039c0.352,0.047,0.707,0.08,1.065,0.08
				c0.001,0,0.002,0,0.004,0h95.546c0.001,0,0.002,0,0.004,0c0.357,0,0.712-0.032,1.065-0.08c0.088-0.012,0.176-0.024,0.264-0.039
				c0.343-0.057,0.682-0.13,1.015-0.231c0.034-0.011,0.068-0.025,0.101-0.036c0.303-0.096,0.598-0.213,0.888-0.346
				c0.079-0.036,0.158-0.072,0.236-0.11c0.312-0.154,0.617-0.321,0.908-0.516c0.016-0.011,0.03-0.023,0.045-0.033
				c0.271-0.183,0.528-0.388,0.777-0.606c0.072-0.063,0.142-0.126,0.212-0.192c0.065-0.06,0.135-0.115,0.197-0.179l47.774-47.769
				c1.517-1.516,2.368-3.572,2.368-5.717c0-2.145-0.852-4.2-2.367-5.717l-47.775-47.773c-0.049-0.049-0.106-0.086-0.156-0.134
				c-0.15-0.142-0.308-0.273-0.469-0.403c-0.15-0.122-0.299-0.245-0.455-0.355c-0.163-0.114-0.332-0.214-0.502-0.316
				c-0.169-0.101-0.337-0.203-0.512-0.291c-0.174-0.087-0.352-0.16-0.531-0.234c-0.184-0.077-0.368-0.154-0.556-0.216
				c-0.18-0.059-0.365-0.105-0.55-0.152c-0.199-0.051-0.397-0.101-0.599-0.136c-0.18-0.031-0.362-0.049-0.545-0.068
				c-0.216-0.023-0.431-0.043-0.648-0.049c-0.065-0.001-0.127-0.014-0.192-0.014h-95.546c-0.066,0-0.129,0.013-0.194,0.014
				c-0.217,0.005-0.43,0.026-0.646,0.049c-0.183,0.019-0.365,0.037-0.545,0.068c-0.204,0.036-0.403,0.086-0.604,0.137
				c-0.183,0.046-0.365,0.091-0.543,0.15c-0.192,0.064-0.377,0.141-0.565,0.219c-0.177,0.073-0.354,0.146-0.524,0.231
				c-0.177,0.089-0.346,0.192-0.517,0.294c-0.169,0.101-0.337,0.202-0.499,0.315c-0.155,0.11-0.303,0.231-0.452,0.351
				c-0.163,0.133-0.323,0.265-0.475,0.41c-0.049,0.046-0.104,0.083-0.152,0.13l-47.768,47.776c-3.157,3.157-3.157,8.275,0,11.432
				L317.375,397.381z M426.72,315.637l28.258,28.259L426.72,372.15V315.637z M342.608,383.581l7.679-7.68
				c0.053-0.05,0.105-0.1,0.156-0.152l20.423-20.421l28.254,28.253H342.608z M410.552,372.149l-28.254-28.254l28.254-28.257V372.149
				z M399.12,304.204l-28.255,28.259l-28.258-28.259H399.12z M331.174,315.638l28.257,28.258l-20.27,20.268
				c-0.052,0.051-0.104,0.1-0.156,0.153l-7.831,7.831V315.638z M315.006,315.639v56.51l-28.252-28.253L315.006,315.639z"/>
		</g>
	</g>
</g>
<g>
</g>
<g>
</g>
<g>
</g>
<g>
</g>
<g>
</g>
<g>
</g>
<g>
</g>
<g>
</g>
<g>
</g>
<g>
</g>
<g>
</g>
<g>
</g>
<g>
</g>
<g>
</g>
<g>
</g>
</svg>
