<?xml version="1.0" encoding="iso-8859-1"?>
<!-- Generator: Adobe Illustrator 19.0.0, SVG Export Plug-In . SVG Version: 6.00 Build 0)  -->
<svg version="1.1" id="Layer_1" xmlns="http://www.w3.org/2000/svg" xmlns:xlink="http://www.w3.org/1999/xlink" x="0px" y="0px"
	 viewBox="0 0 511.999 511.999" style="enable-background:new 0 0 511.999 511.999;" xml:space="preserve">
<g>
	<g>
		<g>
			<path d="M503.915,153.88c4.466,0,8.084-3.619,8.084-8.084v-31.459c0-20.619-16.774-37.394-37.393-37.394H37.393
				C16.775,76.942,0,93.716,0,114.337v283.325c0,20.62,16.775,37.395,37.393,37.395h437.214c20.619,0,37.393-16.775,37.392-37.395
				V172.024c0-4.466-3.619-8.084-8.084-8.084s-8.084,3.618-8.084,8.084V397.66c0,11.705-9.522,21.227-21.225,21.227H37.393
				c-11.703,0-21.225-9.522-21.225-21.227V114.336c0-11.704,9.522-21.226,21.225-21.225h437.212
				c11.703,0,21.225,9.522,21.225,21.226v31.459C495.831,150.262,499.449,153.88,503.915,153.88z"/>
			<path d="M252.944,263.66h27.77v-7.167h-20.067c-0.297,0-0.539-0.241-0.539-0.539v-8.24c0-0.298,0.241-0.539,0.539-0.539h20.067
				v-7.164h-20.067c-0.297,0-0.539-0.241-0.539-0.539v-8.244c0-0.297,0.241-0.539,0.539-0.539h20.067v-7.164h-27.77V263.66z"/>
			<path d="M302.229,223.523l-12.145,31.143l-3.507,8.993h9.548c0.496-1.36,0.936-2.555,1.33-3.611
				c0.012-0.031,0.024-0.065,0.034-0.095c2.895-7.754,3.198-7.758,3.597-7.758h11.438c0.454,0,0.784,0.001,4.96,11.463h9.955
				l-16.052-40.135H302.229z M310.559,244.774c-0.006-0.001-0.015-0.001-0.015-0.001l-7.412,0.001c-0.175,0-0.337-0.084-0.439-0.226
				c-0.101-0.142-0.127-0.324-0.07-0.488c0.139-0.402,0.348-1.053,0.55-1.68c0.141-0.44,0.279-0.869,0.387-1.194
				c0.342-0.977,0.734-2.166,1.132-3.374c0.563-1.705,1.144-3.47,1.609-4.713c0.079-0.212,0.284-0.349,0.504-0.349h0.001h0.001
				c0.221,0,0.425,0.137,0.504,0.349c0.468,1.245,1.05,3.013,1.614,4.721c0.396,1.206,0.787,2.391,1.124,3.357
				c0.189,0.567,0.489,1.428,0.734,2.128l0.218,0.622c0.061,0.087,0.097,0.195,0.097,0.309
				C311.098,244.532,310.857,244.774,310.559,244.774z"/>
			<path d="M345.601,187.118c-7.156-6.262-15.891-11.231-25.961-14.767c-11.734-3.952-24.688-6.131-38.497-6.474l-0.531-0.013
				c-1.149-0.024-2.309-0.04-3.479-0.04H214.44H149.91v52.318v135.362v0.823h0.823h126.399c32.65,0.001,56.255-7.532,72.16-23.029
				c16.047-15.635,23.947-39.068,24.151-71.638C373.444,227.503,364.337,203.773,345.601,187.118z M166.079,181.994h36.646v24.754
				c-5.949-3.617-12.927-5.702-20.384-5.702c-5.798,0-11.301,1.271-16.262,3.532V181.994z M202.948,342.504h-41.212V272.44h41.212
				V342.504z M202.602,251.647c-0.257,0.461-0.532,0.91-0.82,1.349c-0.194,0.299-0.399,0.589-0.605,0.877
				c-0.12,0.165-0.243,0.328-0.366,0.489c-0.498,0.658-1.027,1.288-1.592,1.89l-0.017,0.019c-4.228,4.487-10.209,7.305-16.862,7.305
				c-12.802,0-23.181-10.379-23.181-23.182c0-8.84,4.952-16.521,12.231-20.43c0.014-0.008,0.028-0.014,0.042-0.021
				c0.638-0.341,1.291-0.655,1.963-0.937c0.08-0.033,0.165-0.058,0.247-0.091c0.609-0.248,1.227-0.479,1.86-0.675
				c0.195-0.06,0.399-0.098,0.596-0.154c0.529-0.148,1.06-0.297,1.604-0.409c0.35-0.071,0.715-0.109,1.07-0.164
				c0.404-0.063,0.802-0.142,1.213-0.183c0.775-0.079,1.56-0.119,2.356-0.119c0.712,0,1.415,0.044,2.11,0.107
				c0.184,0.017,0.368,0.037,0.55,0.058c0.613,0.069,1.22,0.159,1.817,0.277c0.082,0.016,0.166,0.026,0.248,0.043
				c0.663,0.138,1.314,0.309,1.954,0.503c0.171,0.052,0.341,0.108,0.511,0.163c0.527,0.171,1.047,0.361,1.555,0.569
				c0.126,0.052,0.253,0.097,0.379,0.15c0.598,0.257,1.184,0.541,1.754,0.846c0.157,0.083,0.31,0.172,0.466,0.26
				c0.45,0.253,0.889,0.521,1.32,0.802c0.146,0.095,0.292,0.185,0.434,0.283c0.523,0.359,1.03,0.738,1.521,1.138
				c0.137,0.11,0.265,0.229,0.399,0.342c0.377,0.321,0.743,0.653,1.099,0.998c0.144,0.141,0.291,0.279,0.431,0.423
				c0.437,0.445,0.858,0.905,1.258,1.384c0.106,0.127,0.203,0.261,0.306,0.389c0.308,0.387,0.605,0.784,0.888,1.189
				c0.125,0.18,0.251,0.36,0.372,0.544c0.341,0.516,0.667,1.044,0.966,1.59c1.811,3.302,2.844,7.091,2.844,11.124
				C205.523,244.481,204.458,248.314,202.602,251.647z M218.77,232.347h0.001v-1.168v-0.248h0.123h0.206h5.969
				c8.775,0,11.587,5.174,11.587,13.273c0,8.887-4.893,12.037-10.011,12.037h-7.875V232.347z M360.531,251.834
				c0,0.297-0.241,0.539-0.545,0.539h-0.015h-2.893h-14.005c-0.297,0-0.539-0.241-0.539-0.539v-28.311h-11.286v40.96h25.927h3.209
				c0.143,0,0.282,0.057,0.383,0.159c0.101,0.102,0.157,0.24,0.156,0.383c-0.188,29.955-9.905,51.596-28.882,64.324
				c-14.563,9.768-34.547,14.516-61.092,14.516h-51.516c-0.297,0-0.539-0.241-0.539-0.539V272.44v-7.418v-1.358h8.372
				c12.259,0,18.221-8.662,18.221-20.304c0-13.329-7.818-19.854-18.221-19.854h-8.372v-0.522v-8.069v-0.153v-32.768v-0.224
				c0-0.297,0.241-0.539,0.539-0.539h51.517c56.359,0,86.486,23.689,89.55,70.419C360.521,251.707,360.531,251.768,360.531,251.834z
				"/>
			<path d="M367.561,162.045c-0.116-0.109-0.237-0.214-0.357-0.32c-6.159-5.337-13.223-10.089-20.995-14.126
				c-5.349-2.838-11.26-5.358-17.572-7.49c-14.599-5.01-30.904-7.782-47.154-8.014c-0.078-0.001-0.155-0.002-0.232-0.002H132.885
				c-9.213,0-16.707,7.495-16.707,16.707v222.554c0,9.213,7.495,16.707,16.707,16.707h148.368c0.077,0,0.162-0.001,0.238-0.002
				c34.423-0.491,65.632-10.667,85.64-27.921c25.479-21.667,38.399-55.472,38.399-100.474c0-20.41-3.437-39.373-10.215-56.365
				C389.047,186.952,379.966,173.457,367.561,162.045z M389.361,259.664c0,40.072-11.019,69.744-32.751,88.197
				c-17.175,14.833-44.64,23.594-75.35,24.033h-0.008H132.885c-0.297,0-0.539-0.241-0.539-0.539V148.8
				c0-0.297,0.241-0.539,0.539-0.539h148.368c14.577,0.208,29.159,2.681,42.174,7.153c5.527,1.867,10.666,4.055,15.272,6.503
				c6.67,3.459,12.7,7.506,17.917,12.027c10.556,9.711,18.285,21.236,23.643,35.245
				C386.297,224.289,389.361,241.274,389.361,259.664z"/>
		</g>
	</g>
</g>
<g>
</g>
<g>
</g>
<g>
</g>
<g>
</g>
<g>
</g>
<g>
</g>
<g>
</g>
<g>
</g>
<g>
</g>
<g>
</g>
<g>
</g>
<g>
</g>
<g>
</g>
<g>
</g>
<g>
</g>
</svg>
