<?xml version="1.0" encoding="iso-8859-1"?>
<!-- Generator: Adobe Illustrator 19.0.0, SVG Export Plug-In . SVG Version: 6.00 Build 0)  -->
<svg version="1.1" id="Layer_1" xmlns="http://www.w3.org/2000/svg" xmlns:xlink="http://www.w3.org/1999/xlink" x="0px" y="0px"
	 viewBox="0 0 511.999 511.999" style="enable-background:new 0 0 511.999 511.999;" xml:space="preserve">
<g>
	<g>
		<g>
			<path d="M503.915,153.88c4.465,0,8.084-3.618,8.084-8.084v-31.459c0-20.619-16.774-37.394-37.393-37.394H37.393
				C16.775,76.942,0,93.716,0,114.336v283.326c0,20.62,16.775,37.395,37.393,37.395h437.214c20.619,0,37.393-16.775,37.392-37.395
				V172.025c0-4.466-3.62-8.084-8.084-8.084c-4.466,0-8.084,3.618-8.084,8.084v225.637c0,11.705-9.522,21.227-21.225,21.227H37.393
				c-11.703,0-21.225-9.522-21.225-21.227V114.336c0-11.704,9.522-21.226,21.225-21.226h437.212
				c11.703,0,21.225,9.522,21.225,21.226v31.459C495.831,150.261,499.449,153.88,503.915,153.88z"/>
			<path d="M205.03,346.316c0-3.973-2.842-6.242-8.518-6.242h-13.624v12.486h12.486C201.054,352.56,205.03,350.86,205.03,346.316z"
				/>
			<path d="M208.436,370.158c0-3.974-2.842-6.81-9.653-6.81h-15.895v13.054h15.895C204.462,376.402,208.436,374.132,208.436,370.158
				z"/>
			<path d="M255.549,363.348h-15.892v13.054h15.892c5.678,0,9.653-2.27,9.653-6.244C265.202,366.184,262.36,363.348,255.549,363.348
				z"/>
			<path d="M261.796,346.316c0-3.973-2.842-6.242-8.518-6.242h-13.621v12.486h12.486C257.823,352.56,261.796,350.86,261.796,346.316
				z"/>
			<path d="M321.4,370.158c0-3.974-2.838-6.81-9.653-6.81h-15.324v13.054h15.892C317.994,376.402,321.4,374.132,321.4,370.158z"/>
			<path d="M318.562,346.316c0-3.973-2.84-6.242-8.515-6.242h-13.054v12.486h11.918C314.589,352.56,318.562,350.86,318.562,346.316z
				"/>
			<path d="M154.228,328.149v59.605c0,8.929,7.238,16.168,16.168,16.168h28.385c7.284,0,13.469-1.214,18.627-3.296
				c2.714,2.059,6.086,3.296,9.756,3.296h28.383c7.284,0,13.469-1.214,18.627-3.296c2.714,2.059,6.086,3.296,9.756,3.296h28.383
				c26.857,0,38.878-16.388,38.878-32.63c0.001-5.241-1.128-11.509-5.102-17.307c1.116-3.255,1.697-6.781,1.697-10.506
				c0-10.691-4.735-17.673-8.705-21.648c-5.145-5.148-12.215-8.349-20.68-9.433c0.619-0.611,1.21-1.257,1.733-1.973
				c3.044-4.177,3.907-9.556,2.326-14.474l-3.836-11.923c-2.149-6.684-8.369-11.217-15.391-11.217H279.86
				c1.042-1.706,1.981-3.51,2.783-5.405c0.046-0.11,0.091-0.22,0.135-0.332c0.522-1.313,0.948-2.616,1.307-3.903
				c2.869-1.11,5.394-3.017,7.236-5.545l24.301-33.34c8.391-11.018,11.737-25.134,9.179-38.769
				c-2.56-13.659-9.699-25.021-20.648-32.854l-33.523-24.242c1.558-5.996-0.427-12.599-5.553-16.699l-2.836-2.268
				c-2.884-2.306-6.448-3.541-10.099-3.541c-0.714,0-1.429,0.047-2.145,0.143c-4.375,0.585-8.318,2.934-10.918,6.499l-19.868,27.246
				c-6.585,9.055-9.916,19.132-9.916,29.967c0,2.213,0,5.762,1.009,9.496c1.153,5.703,3.122,10.991,5.831,15.781l-1.899,2.719
				l-9.047,12.195c-5.242,6.82-7.916,15.081-7.95,24.558c-0.025,1.725,0.038,3.506,0.19,5.297c0.042,0.516,0.112,1.028,0.204,1.537
				c1.859,10.217,7.408,19.365,15.625,25.758c0.156,0.122,0.316,0.24,0.475,0.356l7.413,5.343h-19.526
				c-7.028,0-13.248,4.538-15.396,11.228l-3.825,11.92c-1.579,4.918-0.711,10.295,2.333,14.467c0.4,0.549,0.835,1.063,1.295,1.552
				h-15.632C161.466,311.981,154.228,319.22,154.228,328.149z M263.888,386.906c-0.157,0.035-0.318,0.07-0.477,0.104
				c-0.385,0.078-0.771,0.153-1.166,0.218c-0.419,0.07-0.846,0.129-1.277,0.187c-0.354,0.045-0.709,0.086-1.071,0.122
				c-0.484,0.05-0.977,0.091-1.476,0.123c-0.227,0.014-0.457,0.028-0.687,0.039c-0.716,0.033-1.44,0.058-2.183,0.058h-22.477h-5.907
				v-59.605h27.815c6.814,0,12.488,1.701,15.897,5.107c2.836,2.841,3.973,6.247,3.973,10.222c0,6.81-3.406,10.785-7.947,13.053
				c6.81,2.839,11.353,6.813,11.353,14.761C278.256,379.685,272.743,384.966,263.888,386.906z M327.643,333.258
				c2.838,2.841,3.975,6.247,3.975,10.222c0,6.81-3.406,10.785-7.949,13.053c6.812,2.839,11.356,6.813,11.356,14.761
				c0,10.788-9.086,16.463-22.709,16.463h-22.476h-5.907V328.15h3.442h24.372C318.561,328.15,324.237,329.851,327.643,333.258z
				 M232.276,149.333l19.868-27.246l2.838,2.268c-1.703,2.273-2.269,5.111-1.703,7.948c0.57,2.838,2.271,5.111,4.545,6.812
				l36.894,26.682c7.949,5.676,12.491,13.625,14.192,22.705c1.705,9.085-0.566,18.733-6.242,26.114l-24.41,33.49l-3.335-2.486
				c0,0,1.913-2.673,2.847-6.435v-0.001c0.758-2.339,0.738-4.727,0.488-6.656v-0.316c-0.148-1.175-0.451-2.349-0.882-3.492
				c-0.064-0.18-0.103-0.284-0.103-0.284l-0.015,0.009c-1.259-3.175-3.516-6.107-6.379-8.154l-30.654-22.137
				c-4.699-3.357-8.197-7.513-10.633-12.222c0,0-0.002-0.004-0.002-0.006c-0.83-1.602-1.535-3.269-2.118-4.993
				c-0.015-0.041-0.029-0.08-0.042-0.12c-0.272-0.812-0.517-1.636-0.737-2.471c-0.033-0.126-0.066-0.254-0.097-0.382
				c-0.21-0.83-0.402-1.665-0.562-2.516c-0.566-1.704-0.566-3.973-0.566-5.675C225.465,162.393,227.732,155.582,232.276,149.333z
				 M213.541,238.46c-0.108-1.284-0.154-2.547-0.13-3.787c0.004-5.559,1.334-10.654,4.674-14.948l8.648-11.66l0.629-0.848
				l3.619-5.181l3.565,2.933c0,0-3.855,5.422,2.065,10.137l0.022,0.038l22.89,16.505c4.417,3.433,7.55,8.138,9.054,13.382
				c0.398,1.544,1.939,8.552-0.636,15.557c-0.064,0.174-0.117,0.347-0.188,0.521c-0.695,1.642-1.548,3.196-2.551,4.603
				l-13.059,17.598l-3.655-3.104c0.137-0.148,0.252-0.294,0.366-0.442c0.203-0.229,0.373-0.472,0.501-0.736
				c0.771-1.383,0.714-2.722,0.464-3.712c-0.042-0.248-0.115-0.479-0.204-0.703c-0.022-0.053-0.042-0.106-0.066-0.157
				c-0.068-0.153-0.15-0.299-0.234-0.443c-0.103-0.178-0.217-0.351-0.341-0.52c-0.112-0.152-0.232-0.3-0.356-0.445
				c-0.069-0.081-0.143-0.153-0.212-0.231c-0.404-0.438-0.83-0.819-1.186-1.111c-0.117-0.097-0.232-0.188-0.333-0.263
				l-23.696-17.082C218.084,250.38,214.678,244.702,213.541,238.46z M201.623,288.983h33.297h33.145h35.168l3.836,11.922h-27.112
				v-0.001l-3.947,13.161l-1.16,3.869h-44.845l-1.785-5.95l-3.326-11.079h-27.097L201.623,288.983z M170.399,328.15h27.815
				c0.762,0,1.501,0.028,2.231,0.071c0.23,0.013,0.453,0.031,0.678,0.05c0.514,0.04,1.016,0.091,1.513,0.152
				c0.234,0.028,0.468,0.056,0.696,0.089c0.64,0.094,1.27,0.202,1.876,0.333c0.208,0.044,0.404,0.101,0.608,0.15
				c0.429,0.105,0.853,0.213,1.263,0.337c0.274,0.081,0.539,0.169,0.804,0.26c0.324,0.11,0.638,0.227,0.947,0.35
				c0.261,0.104,0.522,0.203,0.773,0.314c0.472,0.21,0.926,0.435,1.365,0.678c1.188,0.659,2.246,1.429,3.141,2.324
				c2.838,2.841,3.975,6.247,3.975,10.222c0,6.81-3.406,10.785-7.947,13.053c6.81,2.839,11.353,6.813,11.353,14.761
				c-0.001,8.389-5.512,13.671-14.365,15.611c-0.159,0.035-0.322,0.07-0.486,0.105c-0.383,0.078-0.766,0.153-1.16,0.218
				c-0.424,0.07-0.857,0.132-1.292,0.189c-0.347,0.044-0.701,0.084-1.056,0.12c-0.486,0.05-0.979,0.091-1.478,0.123
				c-0.23,0.014-0.457,0.028-0.687,0.039c-0.716,0.033-1.44,0.058-2.183,0.058h-28.385V328.15z"/>
		</g>
	</g>
</g>
<g>
</g>
<g>
</g>
<g>
</g>
<g>
</g>
<g>
</g>
<g>
</g>
<g>
</g>
<g>
</g>
<g>
</g>
<g>
</g>
<g>
</g>
<g>
</g>
<g>
</g>
<g>
</g>
<g>
</g>
</svg>
