<?xml version="1.0" encoding="iso-8859-1"?>
<!-- Generator: Adobe Illustrator 19.0.0, SVG Export Plug-In . SVG Version: 6.00 Build 0)  -->
<svg version="1.1" id="Layer_1" xmlns="http://www.w3.org/2000/svg" xmlns:xlink="http://www.w3.org/1999/xlink" x="0px" y="0px"
	 viewBox="0 0 512 512" style="enable-background:new 0 0 512 512;" xml:space="preserve">
<g>
	<g>
		<g>
			<path d="M215.124,256.421c0,69.837,56.817,126.653,126.654,126.653S468.43,326.258,468.43,256.421
				s-56.816-126.653-126.653-126.653S215.124,186.585,215.124,256.421z M452.262,256.421c0,60.922-49.563,110.484-110.484,110.484
				c-60.922,0-110.485-49.563-110.485-110.484c0-60.922,49.564-110.484,110.485-110.484
				C402.698,145.937,452.262,195.5,452.262,256.421z"/>
			<path d="M503.916,153.88c4.466,0,8.084-3.618,8.084-8.084v-31.459c0-20.619-16.774-37.394-37.393-37.394H37.393
				C16.775,76.942,0,93.716,0,114.337v283.326c0,20.62,16.775,37.395,37.393,37.395h437.214c20.619,0,37.393-16.775,37.393-37.395
				V172.026c0-4.466-3.618-8.084-8.084-8.084c-4.466,0-8.084,3.618-8.084,8.084v225.637c0,11.705-9.522,21.227-21.225,21.227H37.393
				c-11.704,0-21.225-9.522-21.225-21.227V114.337c0-11.704,9.521-21.226,21.225-21.226h437.214
				c11.703,0,21.225,9.522,21.225,21.226v31.459C495.832,150.262,499.45,153.88,503.916,153.88z"/>
			<path d="M311.329,243.018c0.539,0,1.074,0.536,1.608,0.536C312.403,243.018,311.868,243.018,311.329,243.018z"/>
			<path d="M333.296,260.156l-7.499,31.067c5.244,1.165,16.348,4.549,26.08,4.549c8.157,0,15.347-2.379,17.303-10.439
				C373.467,267.119,342.935,262.833,333.296,260.156z"/>
			<path d="M331.03,161.035c-3.735,2.181-6.438,5.766-7.51,9.953l-1.937,7.575l-12.758-3.188c-1.316-0.33-2.635-0.487-3.934-0.487
				c-7.245,0-13.836,4.904-15.672,12.25l-3.75,14.996c-2.147,8.586,3.008,17.303,11.566,19.558l2.697,0.709l-4.099,16.741
				c0,0.001-0.002,0.003-0.002,0.005l-6.311,25.62c-1.234-0.29-2.476-0.43-3.701-0.43c-6.313-0.001-12.221,3.714-14.832,9.741
				l-6.964,16.071c-1.873,4.322-1.769,9.245,0.289,13.484c2.055,4.238,5.857,7.37,10.41,8.575l12.966,3.432l-2.019,8.083
				c-2.139,8.553,2.969,17.241,11.482,19.534l13.926,3.749c1.381,0.373,2.796,0.556,4.202,0.556c0.711,0,1.423-0.047,2.127-0.14
				c1.312,0.895,2.777,1.61,4.369,2.101l13.926,4.286c1.555,0.478,3.158,0.715,4.756,0.715c2.756,0,5.497-0.705,7.943-2.086
				c3.867-2.181,6.666-5.855,7.744-10.161l2.408-9.635c2.122,0.144,4.148,0.216,6.088,0.216c29.527,0,41.733-17.349,46.771-31.97
				c5.195-14.394,4.364-27.363-2.05-37.755c4.285-5.557,7.086-12.484,8.164-20.503c2.004-13.227-1.966-25.058-11.493-34.226
				c-3.929-3.781-8.817-7.099-14.775-10.011l2.355-9.215c2.194-8.575-2.916-17.319-11.461-19.619l-13.929-3.749
				c-1.381-0.373-2.794-0.556-4.202-0.556c-0.556,0-1.109,0.028-1.661,0.085c-1.444-0.973-3.072-1.729-4.846-2.208l-13.926-3.749
				c-1.381-0.372-2.794-0.555-4.201-0.555C336.343,158.827,333.526,159.576,331.03,161.035z M353.112,178.744l-5.893,22.496
				c3.75,1.071,7.499,1.604,11.249,2.679l5.354-22.497l13.929,3.749l-5.893,23.032c18.746,5.891,32.136,14.996,29.461,32.136
				c-1.606,12.318-8.57,18.749-18.213,20.89c12.857,6.429,19.282,16.604,12.857,34.281c-5.456,15.976-16.581,21.181-31.522,21.181
				c-5.595,0-11.724-0.731-18.293-1.898l-5.891,23.565l-13.926-4.285l5.891-23.03c-3.749-1.074-7.499-2.142-11.249-2.676
				l-5.893,23.031l-13.926-3.749l5.893-23.569c-3.214-1.07-6.427-1.603-10.179-2.677l-18.209-4.819l6.964-16.07l10.176,2.679
				c0.596,0.17,1.151,0.246,1.667,0.246c2.722,0,4.307-2.107,4.758-3.461l9.105-36.958l6.43-26.247c0-3.212-1.071-6.963-6.43-8.032
				l-10.176-2.68l3.75-14.996l19.282,4.82c2.682,0.536,5.895,1.607,9.109,2.145l5.891-23.034L353.112,178.744z"/>
			<path d="M358.141,250.136c7.132,0,13.553-2.216,15.324-9.798c3.748-16.605-21.425-20.354-29.461-22.497l-6.964,28.387
				C341.285,247.362,350.158,250.136,358.141,250.136z"/>
			<path d="M173.625,140.548H60.389c-4.465,0-8.084,3.618-8.084,8.084c0,4.466,3.62,8.084,8.084,8.084h113.236
				c4.465,0,8.084-3.62,8.084-8.084C181.709,144.166,178.09,140.548,173.625,140.548z"/>
			<path d="M173.625,176.118H60.389c-4.465,0-8.084,3.619-8.084,8.084c0,4.466,3.62,8.084,8.084,8.084h113.236
				c4.465,0,8.084-3.62,8.084-8.084C181.709,179.737,178.09,176.118,173.625,176.118z"/>
		</g>
	</g>
</g>
<g>
</g>
<g>
</g>
<g>
</g>
<g>
</g>
<g>
</g>
<g>
</g>
<g>
</g>
<g>
</g>
<g>
</g>
<g>
</g>
<g>
</g>
<g>
</g>
<g>
</g>
<g>
</g>
<g>
</g>
</svg>
