<?xml version="1.0" encoding="iso-8859-1"?>
<!-- Generator: Adobe Illustrator 19.0.0, SVG Export Plug-In . SVG Version: 6.00 Build 0)  -->
<svg version="1.1" id="Layer_1" xmlns="http://www.w3.org/2000/svg" xmlns:xlink="http://www.w3.org/1999/xlink" x="0px" y="0px"
	 viewBox="0 0 512 512" style="enable-background:new 0 0 512 512;" xml:space="preserve">
<g>
	<g>
		<g>
			<path d="M512,306.531c0-0.007-0.001-0.014-0.001-0.021V151.546c0-4.466-3.619-8.084-8.084-8.084s-8.084,3.619-8.084,8.084
				v146.901H16.168v-184.11c0-11.704,9.522-21.226,21.225-21.226h437.212c11.703,0,21.225,9.522,21.225,21.226v10.979
				c0,4.466,3.619,8.084,8.084,8.084s8.084-3.619,8.084-8.084v-10.979c0-20.619-16.774-37.394-37.393-37.394H37.393
				C16.775,76.942,0,93.716,0,114.337v192.194v69.743v21.389c0,20.62,16.775,37.395,37.393,37.395h437.214
				c20.619,0,37.393-16.775,37.392-37.395v-21.368c0-0.007,0.001-0.014,0.001-0.021V306.531z M495.831,314.615v53.575H16.168
				v-53.575H495.831z M474.606,418.889H37.393c-11.703,0-21.225-9.522-21.225-21.227v-13.305h479.662v13.305
				C495.831,409.367,486.308,418.889,474.606,418.889z"/>
			<path d="M269.818,185.29h95.61c4.465,0,8.084-3.618,8.084-8.084c0-4.466-3.619-8.084-8.084-8.084h-95.61
				c-4.466,0-8.084,3.618-8.084,8.084C261.733,181.672,265.352,185.29,269.818,185.29z"/>
			<path d="M269.816,218.856H446.09c4.466,0,8.084-3.619,8.084-8.084c0-4.466-3.619-8.084-8.084-8.084H269.816
				c-4.466,0-8.084,3.618-8.084,8.084C261.732,215.237,265.351,218.856,269.816,218.856z"/>
			<path d="M123.564,138.02c-32.03,0-57.996,25.966-57.996,57.997c0,32.03,25.966,57.996,57.996,57.996
				c32.032,0,57.998-25.966,57.998-57.996C181.562,163.987,155.596,138.02,123.564,138.02z M110.223,229.784
				c-13.608-5.039-23.186-18.143-23.186-33.768c0-15.625,9.577-28.729,23.186-33.768V229.784z M135.924,229.786v-67.537
				c13.613,5.038,23.188,18.142,23.188,33.768C159.111,211.136,149.536,224.746,135.924,229.786z"/>
			<path d="M197.345,130.348c-0.96-0.593-1.975-1.19-3.095-1.82c-9.615-5.545-20.497-9.185-31.507-10.547
				c-3.695-0.629-6.998-0.629-9.678-0.629h-0.508h-29.231h-0.501c-21.343,0-41.166,7.845-55.817,22.091
				c-15.061,14.646-23.356,34.918-23.356,57.081c0,18.917,6.854,36.909,19.301,50.663c0.172,0.19,0.347,0.375,0.528,0.556
				l0.516,0.52c15.044,16.797,36.638,26.421,59.328,26.421h29.231c20.581,0,41.212-8.186,56.607-22.456
				c16.177-14.996,25.084-34.779,25.084-55.705c0-0.073,0-0.147,0-0.22c-0.362-26.635-13.306-50.272-35.56-65.03
				C198.257,130.943,197.809,130.633,197.345,130.348z M218.082,196.524c-0.002,34.27-31.248,61.991-65.524,61.991h-29.231
				c-18.981,0-35.994-8.267-47.549-21.338l-0.833-0.839c-9.577-10.583-15.122-24.696-15.122-39.815
				c0-37.299,28.226-63.004,63.004-63.004h0.501h29.231h0.508c2.43,0,4.863,0.005,7.295,0.459
				c9.189,1.079,18.015,4.046,25.885,8.597c0.88,0.495,1.749,1.001,2.606,1.529c0.04,0.046,0.082,0.093,0.126,0.137
				C205.9,155.141,217.772,173.652,218.082,196.524z"/>
		</g>
	</g>
</g>
<g>
</g>
<g>
</g>
<g>
</g>
<g>
</g>
<g>
</g>
<g>
</g>
<g>
</g>
<g>
</g>
<g>
</g>
<g>
</g>
<g>
</g>
<g>
</g>
<g>
</g>
<g>
</g>
<g>
</g>
</svg>
