<?xml version="1.0" encoding="iso-8859-1"?>
<!-- Generator: Adobe Illustrator 19.0.0, SVG Export Plug-In . SVG Version: 6.00 Build 0)  -->
<svg version="1.1" id="Layer_1" xmlns="http://www.w3.org/2000/svg" xmlns:xlink="http://www.w3.org/1999/xlink" x="0px" y="0px"
	 viewBox="0 0 512 512" style="enable-background:new 0 0 512 512;" xml:space="preserve">
<g>
	<g>
		<g>
			<path d="M503.916,153.88c4.466,0,8.084-3.62,8.084-8.084v-31.459c0-20.619-16.775-37.394-37.393-37.394H37.393
				C16.775,76.942,0,93.718,0,114.337v283.326c0,20.62,16.775,37.395,37.393,37.395h437.212c20.619,0,37.393-16.776,37.393-37.395
				V172.025c0-4.465-3.619-8.084-8.084-8.084s-8.084,3.62-8.084,8.084v225.637c0,11.705-9.522,21.227-21.225,21.227H37.393
				c-11.703,0-21.225-9.522-21.225-21.227V114.337c0-11.704,9.522-21.226,21.225-21.226h437.212
				c11.703,0,21.225,9.522,21.225,21.226v31.459C495.832,150.261,499.45,153.88,503.916,153.88z"/>
			<path d="M307.432,130.54c-18.396,0-36.421,5.729-51.432,16.213c-15.011-10.484-33.034-16.213-51.43-16.213
				c-49.523,0-89.812,40.291-89.812,89.813c0,49.521,40.29,89.809,89.812,89.809c18.398,0,36.422-5.728,51.43-16.207
				c15.009,10.48,33.033,16.207,51.432,16.207c49.522,0,89.81-40.288,89.81-89.809C397.242,170.83,356.953,130.54,307.432,130.54z
				 M204.57,293.994c-40.608,0-73.644-33.034-73.644-73.641c0-40.607,33.036-73.645,73.644-73.645
				c13.642,0,27.04,3.831,38.58,10.922c-0.061,0.063-0.117,0.128-0.178,0.191c-0.905,0.931-1.789,1.879-2.649,2.843
				c-0.068,0.077-0.138,0.151-0.206,0.227c-0.863,0.974-1.698,1.968-2.515,2.976c-0.136,0.167-0.272,0.333-0.405,0.501
				c-0.789,0.987-1.557,1.989-2.301,3.006c-0.127,0.174-0.252,0.349-0.378,0.524c-0.755,1.047-1.491,2.104-2.199,3.18
				c-0.056,0.085-0.11,0.172-0.166,0.259c-0.695,1.064-1.365,2.143-2.012,3.234c-0.068,0.115-0.139,0.229-0.207,0.344
				c-0.645,1.097-1.26,2.21-1.857,3.333c-0.106,0.198-0.211,0.397-0.316,0.596c-0.578,1.107-1.133,2.226-1.662,3.356
				c-0.091,0.193-0.178,0.387-0.266,0.58c-0.539,1.169-1.058,2.349-1.546,3.541c-0.03,0.073-0.057,0.147-0.086,0.22
				c-0.476,1.174-0.925,2.358-1.351,3.553c-0.055,0.153-0.112,0.304-0.166,0.457c-0.417,1.19-0.805,2.391-1.173,3.599
				c-0.068,0.224-0.136,0.448-0.203,0.674c-0.355,1.2-0.686,2.408-0.99,3.624c-0.051,0.202-0.097,0.404-0.147,0.606
				c-0.308,1.269-0.596,2.543-0.848,3.827c-0.009,0.045-0.016,0.091-0.025,0.136c-0.247,1.266-0.462,2.543-0.655,3.824
				c-0.028,0.184-0.058,0.368-0.085,0.552c-0.181,1.256-0.333,2.519-0.461,3.788c-0.024,0.238-0.047,0.477-0.07,0.717
				c-0.119,1.268-0.213,2.539-0.278,3.817c-0.011,0.201-0.016,0.401-0.025,0.601c-0.059,1.342-0.098,2.687-0.098,4.039
				c0,1.351,0.039,2.696,0.098,4.038c0.009,0.201,0.015,0.401,0.025,0.602c0.065,1.278,0.16,2.55,0.278,3.819
				c0.023,0.237,0.045,0.474,0.069,0.711c0.129,1.27,0.28,2.535,0.462,3.793c0.026,0.181,0.056,0.361,0.084,0.541
				c0.194,1.286,0.41,2.566,0.659,3.838c0.009,0.042,0.015,0.084,0.023,0.125c0.253,1.288,0.542,2.565,0.852,3.837
				c0.048,0.197,0.094,0.396,0.143,0.593c0.305,1.22,0.637,2.432,0.993,3.636c0.065,0.22,0.131,0.439,0.198,0.659
				c0.369,1.214,0.759,2.42,1.178,3.614c0.051,0.146,0.106,0.29,0.157,0.435c0.43,1.205,0.883,2.402,1.364,3.585
				c0.027,0.065,0.051,0.132,0.078,0.196c0.49,1.199,1.012,2.383,1.554,3.559c0.086,0.186,0.17,0.374,0.258,0.56
				c0.532,1.135,1.09,2.258,1.67,3.371c0.101,0.195,0.205,0.388,0.308,0.582c0.598,1.126,1.216,2.243,1.863,3.344
				c0.066,0.112,0.135,0.223,0.202,0.334c0.65,1.096,1.324,2.18,2.021,3.248c0.054,0.083,0.106,0.167,0.16,0.25
				c0.708,1.077,1.445,2.135,2.201,3.183c0.126,0.175,0.25,0.349,0.377,0.523c0.744,1.016,1.51,2.018,2.299,3.004
				c0.136,0.169,0.273,0.337,0.41,0.507c0.815,1.005,1.648,1.996,2.508,2.969c0.072,0.081,0.147,0.161,0.219,0.241
				c0.855,0.959,1.733,1.9,2.632,2.826c0.064,0.066,0.122,0.135,0.185,0.199C231.613,290.163,218.213,293.994,204.57,293.994z
				 M266.552,260.111c-0.452,0.703-0.905,1.403-1.381,2.091c-0.294,0.425-0.604,0.841-0.906,1.26
				c-0.457,0.632-0.918,1.261-1.397,1.879c-0.332,0.429-0.674,0.85-1.015,1.272c-0.48,0.592-0.966,1.178-1.464,1.756
				c-0.361,0.418-0.728,0.832-1.098,1.243c-0.511,0.566-1.033,1.124-1.563,1.676c-0.382,0.398-0.764,0.793-1.156,1.184
				c-0.185,0.185-0.38,0.362-0.569,0.545c-0.189-0.183-0.384-0.361-0.569-0.547c-0.39-0.389-0.773-0.785-1.154-1.181
				c-0.53-0.552-1.052-1.11-1.564-1.677c-0.37-0.41-0.736-0.824-1.096-1.241c-0.499-0.579-0.987-1.167-1.467-1.76
				c-0.341-0.421-0.682-0.842-1.013-1.27c-0.479-0.619-0.941-1.248-1.399-1.881c-0.303-0.418-0.611-0.832-0.904-1.257
				c-0.479-0.691-0.935-1.395-1.387-2.101c-0.245-0.38-0.5-0.756-0.738-1.141c-0.569-0.923-1.111-1.862-1.638-2.807
				c-0.1-0.179-0.21-0.352-0.308-0.533c-0.617-1.13-1.202-2.275-1.757-3.435c-0.167-0.348-0.316-0.705-0.477-1.056
				c-0.377-0.819-0.749-1.639-1.096-2.472c-0.19-0.455-0.361-0.917-0.541-1.375c-0.291-0.742-0.579-1.484-0.846-2.236
				c-0.178-0.5-0.342-1.005-0.509-1.509c-0.24-0.725-0.473-1.452-0.691-2.185c-0.155-0.523-0.301-1.048-0.444-1.574
				c-0.198-0.729-0.387-1.462-0.563-2.198c-0.128-0.534-0.251-1.067-0.368-1.604c-0.161-0.746-0.306-1.497-0.444-2.25
				c-0.097-0.531-0.196-1.062-0.282-1.596c-0.126-0.784-0.231-1.574-0.331-2.364c-0.065-0.509-0.138-1.014-0.192-1.525
				c-0.093-0.874-0.158-1.754-0.221-2.634c-0.03-0.432-0.074-0.861-0.097-1.295c-0.07-1.316-0.111-2.638-0.111-3.964
				c0-1.327,0.041-2.648,0.11-3.963c0.023-0.437,0.067-0.869,0.098-1.303c0.063-0.877,0.127-1.755,0.22-2.626
				c0.055-0.513,0.127-1.021,0.193-1.532c0.101-0.788,0.205-1.575,0.331-2.357c0.086-0.537,0.185-1.07,0.284-1.604
				c0.138-0.749,0.282-1.497,0.443-2.241c0.116-0.54,0.241-1.078,0.37-1.615c0.175-0.731,0.361-1.458,0.558-2.182
				c0.144-0.532,0.292-1.064,0.449-1.592c0.216-0.725,0.446-1.445,0.683-2.162c0.169-0.511,0.335-1.023,0.515-1.53
				c0.263-0.74,0.548-1.472,0.834-2.204c0.184-0.47,0.36-0.943,0.554-1.409c0.34-0.815,0.705-1.618,1.073-2.42
				c0.168-0.368,0.324-0.74,0.5-1.105c0.554-1.156,1.137-2.298,1.752-3.423c0.113-0.207,0.239-0.406,0.354-0.611
				c0.513-0.918,1.039-1.831,1.592-2.728c0.245-0.397,0.507-0.781,0.759-1.174c0.447-0.694,0.896-1.387,1.366-2.067
				c0.297-0.43,0.611-0.852,0.918-1.276c0.454-0.626,0.911-1.25,1.385-1.863c0.334-0.431,0.678-0.856,1.022-1.279
				c0.477-0.59,0.963-1.175,1.461-1.752c0.361-0.418,0.728-0.832,1.098-1.243c0.512-0.567,1.035-1.126,1.565-1.678
				c0.379-0.396,0.761-0.79,1.15-1.177c0.186-0.187,0.383-0.364,0.572-0.549c0.19,0.184,0.386,0.363,0.573,0.55
				c0.388,0.387,0.769,0.78,1.147,1.174c0.533,0.555,1.057,1.116,1.57,1.685c0.369,0.409,0.733,0.82,1.092,1.235
				c0.5,0.58,0.988,1.169,1.47,1.763c0.341,0.42,0.68,0.84,1.011,1.265c0.481,0.621,0.943,1.253,1.402,1.886
				c0.302,0.416,0.609,0.83,0.901,1.251c0.479,0.691,0.935,1.395,1.388,2.101c0.245,0.382,0.501,0.757,0.738,1.143
				c0.568,0.926,1.11,1.865,1.638,2.811c0.099,0.178,0.208,0.35,0.306,0.529c0.617,1.13,1.201,2.275,1.757,3.435
				c0.168,0.351,0.319,0.711,0.482,1.065c0.375,0.816,0.747,1.633,1.092,2.462c0.19,0.456,0.362,0.918,0.542,1.379
				c0.291,0.742,0.579,1.483,0.846,2.234c0.178,0.5,0.342,1.006,0.509,1.509c0.239,0.724,0.473,1.45,0.69,2.182
				c0.155,0.524,0.302,1.05,0.445,1.578c0.198,0.729,0.386,1.462,0.563,2.197c0.127,0.532,0.251,1.065,0.366,1.601
				c0.162,0.748,0.307,1.502,0.445,2.256c0.097,0.529,0.196,1.058,0.281,1.591c0.126,0.786,0.231,1.576,0.332,2.367
				c0.065,0.508,0.137,1.013,0.192,1.523c0.093,0.873,0.158,1.75,0.221,2.63c0.03,0.434,0.074,0.866,0.098,1.301
				c0.07,1.316,0.11,2.637,0.11,3.963s-0.041,2.647-0.11,3.962c-0.023,0.435-0.067,0.867-0.098,1.301
				c-0.063,0.878-0.127,1.757-0.22,2.629c-0.055,0.51-0.127,1.016-0.192,1.524c-0.101,0.791-0.206,1.581-0.332,2.366
				c-0.085,0.534-0.184,1.063-0.281,1.593c-0.138,0.753-0.284,1.505-0.445,2.253c-0.115,0.537-0.239,1.071-0.368,1.604
				c-0.176,0.735-0.363,1.467-0.562,2.195c-0.143,0.528-0.29,1.054-0.445,1.578c-0.217,0.732-0.451,1.457-0.69,2.181
				c-0.167,0.504-0.331,1.011-0.509,1.511c-0.266,0.75-0.554,1.492-0.845,2.231c-0.181,0.46-0.354,0.925-0.543,1.381
				c-0.344,0.828-0.715,1.643-1.09,2.457c-0.164,0.357-0.315,0.718-0.484,1.071c-0.556,1.159-1.139,2.303-1.756,3.432
				c-0.102,0.188-0.217,0.368-0.32,0.554c-0.524,0.939-1.061,1.87-1.625,2.785C267.056,259.349,266.799,259.727,266.552,260.111z
				 M307.432,293.994c-13.868,0-27.044-3.745-38.598-10.901c0.07-0.072,0.135-0.148,0.205-0.22c0.883-0.909,1.745-1.833,2.586-2.775
				c0.086-0.097,0.176-0.191,0.261-0.288c0.853-0.963,1.678-1.946,2.486-2.94c0.146-0.179,0.291-0.357,0.434-0.537
				c0.783-0.98,1.545-1.974,2.284-2.983c0.133-0.18,0.262-0.362,0.392-0.543c0.751-1.042,1.485-2.095,2.189-3.166
				c0.058-0.088,0.113-0.179,0.171-0.267c0.69-1.056,1.355-2.128,1.998-3.21c0.074-0.125,0.151-0.247,0.224-0.372
				c0.642-1.093,1.257-2.202,1.851-3.321c0.107-0.202,0.215-0.403,0.32-0.606c0.577-1.106,1.132-2.223,1.661-3.351
				c0.091-0.193,0.178-0.388,0.267-0.582c0.539-1.171,1.06-2.349,1.547-3.542c0.029-0.07,0.055-0.14,0.083-0.21
				c0.477-1.176,0.927-2.363,1.354-3.559c0.055-0.154,0.113-0.307,0.167-0.461c0.417-1.19,0.806-2.391,1.174-3.6
				c0.068-0.224,0.136-0.447,0.203-0.672c0.355-1.201,0.687-2.409,0.991-3.626c0.051-0.201,0.097-0.402,0.146-0.603
				c0.308-1.27,0.597-2.546,0.85-3.832c0.009-0.042,0.015-0.084,0.023-0.126c0.248-1.271,0.463-2.55,0.657-3.835
				c0.028-0.183,0.058-0.365,0.084-0.549c0.181-1.257,0.333-2.52,0.462-3.789c0.025-0.239,0.047-0.479,0.07-0.719
				c0.119-1.267,0.213-2.537,0.278-3.815c0.011-0.202,0.016-0.404,0.026-0.606c0.059-1.341,0.098-2.686,0.098-4.037
				s-0.039-2.696-0.098-4.038c-0.009-0.202-0.015-0.404-0.026-0.606c-0.065-1.276-0.16-2.546-0.278-3.813
				c-0.023-0.241-0.046-0.483-0.071-0.724c-0.128-1.267-0.28-2.528-0.461-3.782c-0.027-0.188-0.058-0.373-0.086-0.559
				c-0.193-1.279-0.407-2.552-0.654-3.818c-0.009-0.046-0.016-0.093-0.026-0.14c-0.252-1.281-0.539-2.551-0.846-3.817
				c-0.051-0.208-0.098-0.416-0.15-0.623c-0.303-1.212-0.634-2.414-0.986-3.61c-0.068-0.231-0.138-0.46-0.208-0.691
				c-0.365-1.202-0.752-2.396-1.167-3.58c-0.058-0.165-0.12-0.328-0.179-0.492c-0.421-1.18-0.866-2.352-1.337-3.512
				c-0.033-0.082-0.064-0.164-0.097-0.245c-0.485-1.185-1.001-2.354-1.536-3.516c-0.094-0.204-0.185-0.407-0.28-0.61
				c-0.526-1.121-1.077-2.229-1.649-3.327c-0.111-0.212-0.223-0.423-0.335-0.634c-0.591-1.11-1.2-2.211-1.837-3.295
				c-0.08-0.136-0.164-0.269-0.244-0.405c-0.635-1.068-1.291-2.123-1.97-3.166c-0.064-0.098-0.125-0.198-0.19-0.296
				c-0.701-1.065-1.43-2.112-2.177-3.147c-0.135-0.188-0.268-0.375-0.405-0.56c-0.737-1.006-1.496-1.997-2.278-2.974
				c-0.144-0.181-0.292-0.36-0.438-0.541c-0.807-0.994-1.631-1.975-2.483-2.936c-0.086-0.098-0.177-0.193-0.263-0.29
				c-0.842-0.943-1.706-1.869-2.591-2.78c-0.068-0.07-0.13-0.143-0.198-0.212c11.556-7.16,24.731-10.905,38.598-10.905
				c40.606,0,73.642,33.037,73.642,73.645C381.074,260.959,348.038,293.994,307.432,293.994z"/>
			<path d="M138.764,386.814h11.689c0.298,0,0.539-0.241,0.539-0.539v-23.082c0-13.918-9.324-25.24-20.785-25.24
				c-6.135,0-12.013,3.256-15.869,8.753c-3.991-5.574-9.73-8.753-15.856-8.753c-3.676,0-7.734,1.687-11.223,4.651l-1.661-3.074
				c-0.094-0.175-0.276-0.284-0.473-0.284H75c-0.297,0-0.539,0.241-0.539,0.539v46.489c0,0.298,0.241,0.539,0.539,0.539h12.524
				c0.297,0,0.539-0.241,0.539-0.539v-26.681c1.393-5.313,4.776-8.482,9.061-8.482c5.316,0,9.48,5.306,9.48,12.081v23.082
				c0,0.297,0.241,0.539,0.539,0.539h11.689c0.298,0,0.539-0.241,0.539-0.539v-23.819c0.195-5.456,3.835-11.344,9.374-11.344
				c5.934,0,9.48,6.142,9.48,12.081v23.082C138.225,386.574,138.466,386.814,138.764,386.814z"/>
			<path d="M196.886,386.814h11.063c0.298,0,0.539-0.241,0.539-0.539v-46.489c0-0.298-0.241-0.539-0.539-0.539h-10.019
				c-0.249,0-0.468,0.171-0.524,0.415l-0.842,3.568c-4.266-3.478-9.602-5.384-15.122-5.384c-13.475,0-24.438,11.274-24.438,25.132
				c0,13.857,10.963,25.131,24.438,25.131c5.427,0,10.674-1.842,14.905-5.211v3.377
				C196.347,386.574,196.589,386.814,196.886,386.814z M190.961,371.565c-2.082,2.253-4.869,3.493-7.849,3.493
				c-2.99,0-5.743-1.212-7.945-3.485c-2.133-2.414-3.307-5.467-3.307-8.596c0-3.187,1.202-6.316,3.291-8.578
				c2.219-2.292,4.971-3.503,7.962-3.503c2.98,0,5.768,1.241,7.857,3.503c2.123,2.194,3.293,5.24,3.293,8.578
				C194.262,366.263,193.121,369.232,190.961,371.565z"/>
			<path d="M263.679,367.401c0.296-1.435,0.428-2.832,0.428-4.531c0-13.917-10.963-25.239-24.438-25.239
				c-13.474,0-24.436,11.322-24.436,25.239c0,13.918,10.962,25.24,24.436,25.24c7.199,0,13.932-3.217,18.474-8.829
				c0.095-0.116,0.136-0.267,0.114-0.416c-0.022-0.149-0.104-0.281-0.226-0.367l-9.811-6.795c-0.218-0.15-0.511-0.121-0.695,0.068
				c-2.021,2.09-4.694,3.288-7.335,3.288c-2.916,0-5.554-1.243-7.633-3.595c-0.905-1.02-1.637-2.214-2.225-3.634h32.818
				C263.407,367.831,263.627,367.651,263.679,367.401z M230.095,358.556c0.618-1.676,1.464-3.183,2.457-4.381
				c2.081-2.253,4.794-3.493,7.64-3.493c2.835,0,5.579,1.271,7.531,3.488c1.099,1.223,1.954,2.728,2.495,4.386H230.095z"/>
			<path d="M287.365,376.157c-2.827,0-7.478-1.593-11.281-6.085c-0.099-0.116-0.242-0.185-0.396-0.191
				c-0.161,0.01-0.299,0.057-0.405,0.166l-8.347,8.736c-0.201,0.209-0.199,0.539,0.002,0.747c5.352,5.532,13.087,8.578,21.781,8.578
				c9.125,0,17.131-7.057,17.131-15.101c0-6.984-4.627-12.401-12.674-14.853c-1.025-0.36-2.038-0.675-3.001-0.974
				c-4.212-1.309-6.579-2.157-6.243-4.383c0.275-2.18,1.635-3.332,3.932-3.332c2.726,0,6.474,1.658,10.552,4.668
				c0.121,0.088,0.274,0.123,0.423,0.096c0.149-0.029,0.278-0.117,0.357-0.246l6.052-9.814c0.156-0.252,0.078-0.583-0.174-0.741
				c-6.063-3.783-10.339-5.583-18.235-5.583c-9.409,0-16.506,6.307-16.506,14.668c0,9.461,6.585,12.321,15.193,15.074
				c3.746,1.209,6.201,2.218,6.201,5.095C291.727,374.859,290.096,376.157,287.365,376.157z"/>
			<path d="M320.857,386.814h13.253c0.297,0,0.539-0.241,0.539-0.539v-33.33h9.897c0.298,0,0.539-0.241,0.539-0.539v-12.62
				c0-0.298-0.241-0.539-0.539-0.539h-9.897v-16.719c0-0.297-0.241-0.539-0.539-0.539h-13.253c-0.297,0-0.539,0.241-0.539,0.539
				v16.719h-8.855c-0.297,0-0.539,0.241-0.539,0.539v12.62c0,0.297,0.241,0.539,0.539,0.539h8.855v33.33
				C320.318,386.574,320.559,386.814,320.857,386.814z"/>
			<path d="M377.276,351.259c1.659,0,3.317,0.37,4.927,1.099c0.131,0.061,0.281,0.063,0.418,0.012
				c0.135-0.053,0.244-0.156,0.3-0.291l5.114-11.972c0.058-0.137,0.058-0.291-0.002-0.428c-0.059-0.136-0.171-0.241-0.312-0.291
				c-2.416-0.868-5.114-1.326-7.801-1.326c-6.398,0-11.819,2.144-15.053,5.916l-1.555-4.372c-0.075-0.215-0.279-0.358-0.508-0.358
				h-10.122c-0.297,0-0.539,0.241-0.539,0.539v46.489c0,0.297,0.241,0.539,0.539,0.539h13.045c0.297,0,0.539-0.241,0.539-0.539
				l-0.009-25.575C367.255,355.23,371.889,351.259,377.276,351.259z"/>
			<path d="M414.983,388.109c14.288,0,25.48-11.039,25.48-25.131c0-13.859-11.43-25.132-25.48-25.132
				c-13.992,0-25.377,11.274-25.377,25.132C389.606,376.835,400.991,388.109,414.983,388.109z M407.361,354.373
				c1.914-2.278,4.732-3.584,7.726-3.584c3.064,0,5.741,1.213,7.954,3.602c2.061,2.231,3.196,5.243,3.196,8.479
				c-0.001,3.343-1.139,6.472-3.188,8.794c-2.251,2.324-4.929,3.503-7.962,3.503c-2.969,0-5.787-1.27-7.751-3.503
				c-2.255-2.33-3.398-5.253-3.398-8.686C403.938,359.613,405.142,356.57,407.361,354.373z"/>
		</g>
	</g>
</g>
<g>
</g>
<g>
</g>
<g>
</g>
<g>
</g>
<g>
</g>
<g>
</g>
<g>
</g>
<g>
</g>
<g>
</g>
<g>
</g>
<g>
</g>
<g>
</g>
<g>
</g>
<g>
</g>
<g>
</g>
</svg>
