<?xml version="1.0" encoding="iso-8859-1"?>
<!-- Generator: Adobe Illustrator 19.0.0, SVG Export Plug-In . SVG Version: 6.00 Build 0)  -->
<svg version="1.1" id="Layer_1" xmlns="http://www.w3.org/2000/svg" xmlns:xlink="http://www.w3.org/1999/xlink" x="0px" y="0px"
	 viewBox="0 0 512 512" style="enable-background:new 0 0 512 512;" xml:space="preserve">
<g>
	<g>
		<g>
			<path d="M503.916,133.4c4.466,0,8.084-3.62,8.084-8.084v-10.979c0-20.619-16.775-37.394-37.393-37.394H37.393
				C16.775,76.942,0,93.718,0,114.337v283.326c0,20.62,16.775,37.395,37.393,37.395h437.212c20.619,0,37.393-16.776,37.393-37.395
				V151.546c0-4.465-3.619-8.084-8.084-8.084H16.168v-29.125c0-11.704,9.522-21.226,21.225-21.226h437.212
				c11.703,0,21.225,9.522,21.225,21.226v10.979C495.832,129.781,499.45,133.4,503.916,133.4z M495.832,397.662
				c0,11.705-9.522,21.227-21.225,21.227H37.393c-11.703,0-21.225-9.522-21.225-21.227v-125.14h479.663V397.662z M495.832,256.354
				H16.168v-26.982h479.663V256.354z M495.832,159.63v53.573H16.168V159.63H495.832z"/>
			<path d="M359.212,399.715c10.342,0,20.491-2.988,29.169-8.491c8.677,5.502,18.827,8.491,29.169,8.491
				c30.016,0,54.436-24.419,54.436-54.435c0-30.016-24.42-54.435-54.436-54.435c-10.342,0-20.491,2.989-29.169,8.491
				c-8.677-5.502-18.825-8.491-29.169-8.491c-30.015,0-54.434,24.419-54.434,54.435S329.197,399.715,359.212,399.715z
				 M413.571,342.482c-0.014-0.282-0.037-0.564-0.055-0.846c-0.044-0.663-0.098-1.324-0.166-1.981c-0.031-0.301-0.061-0.6-0.098-0.9
				c-0.085-0.716-0.186-1.427-0.3-2.136c-0.032-0.203-0.058-0.407-0.093-0.61c-0.155-0.904-0.333-1.803-0.532-2.696
				c-0.045-0.204-0.099-0.404-0.148-0.608c-0.164-0.695-0.34-1.386-0.53-2.073c-0.078-0.279-0.159-0.556-0.24-0.834
				c-0.19-0.641-0.391-1.277-0.604-1.91c-0.083-0.246-0.162-0.494-0.248-0.738c-0.607-1.724-1.301-3.413-2.078-5.063
				c-0.111-0.235-0.227-0.468-0.342-0.702c-0.294-0.603-0.599-1.2-0.916-1.791c-0.131-0.246-0.263-0.492-0.399-0.735
				c-0.359-0.647-0.733-1.286-1.12-1.919c-0.092-0.151-0.178-0.304-0.272-0.453c-0.485-0.776-0.99-1.54-1.514-2.293
				c-0.119-0.17-0.246-0.337-0.367-0.507c-0.413-0.578-0.836-1.15-1.273-1.713c-0.18-0.232-0.362-0.461-0.545-0.69
				c-0.17-0.213-0.334-0.431-0.508-0.642c5.05-2.395,10.575-3.636,16.329-3.636c21.101,0,38.267,17.167,38.267,38.266
				c-0.003,21.107-17.17,38.274-38.271,38.274c-5.755,0-11.28-1.241-16.329-3.636c0.175-0.211,0.337-0.43,0.509-0.643
				c0.183-0.229,0.365-0.457,0.544-0.688c0.438-0.564,0.862-1.136,1.276-1.716c0.121-0.168,0.246-0.334,0.364-0.503
				c0.525-0.752,1.03-1.517,1.516-2.294c0.094-0.15,0.18-0.303,0.272-0.453c0.386-0.633,0.76-1.272,1.12-1.919
				c0.136-0.244,0.267-0.489,0.399-0.735c0.317-0.592,0.622-1.189,0.917-1.793c0.114-0.233,0.231-0.465,0.341-0.7
				c0.777-1.65,1.471-3.34,2.078-5.064c0.086-0.245,0.165-0.492,0.248-0.738c0.212-0.633,0.415-1.27,0.605-1.911
				c0.082-0.277,0.163-0.554,0.24-0.833c0.191-0.687,0.366-1.379,0.531-2.075c0.047-0.203,0.101-0.403,0.147-0.607
				c0.199-0.893,0.377-1.791,0.532-2.696c0.034-0.203,0.06-0.406,0.093-0.609c0.113-0.709,0.215-1.421,0.3-2.136
				c0.036-0.3,0.067-0.599,0.098-0.9c0.068-0.659,0.122-1.319,0.166-1.982c0.018-0.282,0.041-0.563,0.055-0.846
				c0.047-0.928,0.078-1.858,0.078-2.794C413.649,344.34,413.617,343.41,413.571,342.482z M379.337,343.303
				c0.011-0.205,0.027-0.407,0.041-0.611c0.031-0.459,0.068-0.916,0.115-1.372c0.023-0.224,0.047-0.447,0.074-0.67
				c0.056-0.464,0.122-0.926,0.194-1.385c0.029-0.188,0.055-0.375,0.087-0.562c0.11-0.638,0.234-1.272,0.376-1.901
				c0.017-0.075,0.039-0.15,0.056-0.225c0.128-0.554,0.269-1.104,0.423-1.649c0.056-0.201,0.117-0.399,0.177-0.598
				c0.128-0.429,0.263-0.857,0.405-1.281c0.069-0.207,0.14-0.414,0.212-0.619c0.16-0.448,0.329-0.893,0.504-1.333
				c0.064-0.16,0.123-0.32,0.189-0.477c0.245-0.592,0.503-1.177,0.778-1.756c0.052-0.11,0.11-0.217,0.163-0.327
				c0.229-0.469,0.465-0.933,0.712-1.393c0.1-0.186,0.206-0.371,0.309-0.556c0.218-0.388,0.442-0.772,0.673-1.152
				c0.112-0.185,0.224-0.371,0.341-0.554c0.264-0.418,0.537-0.83,0.818-1.237c0.086-0.125,0.168-0.253,0.255-0.377
				c0.37-0.525,0.755-1.041,1.151-1.549c0.096-0.122,0.196-0.239,0.293-0.36c0.225-0.281,0.459-0.557,0.694-0.832
				c0.227,0.267,0.454,0.536,0.674,0.808c0.106,0.13,0.214,0.259,0.318,0.39c0.394,0.503,0.776,1.016,1.144,1.537
				c0.093,0.133,0.18,0.267,0.272,0.401c0.275,0.401,0.544,0.805,0.803,1.215c0.117,0.186,0.232,0.374,0.346,0.563
				c0.23,0.377,0.452,0.759,0.667,1.144c0.105,0.187,0.21,0.373,0.313,0.562c0.247,0.458,0.483,0.922,0.71,1.389
				c0.054,0.11,0.111,0.218,0.164,0.328c0.275,0.578,0.534,1.164,0.778,1.756c0.066,0.157,0.124,0.318,0.188,0.476
				c0.176,0.442,0.346,0.886,0.505,1.334c0.073,0.205,0.143,0.412,0.212,0.619c0.143,0.425,0.278,0.853,0.406,1.284
				c0.059,0.198,0.12,0.396,0.176,0.594c0.153,0.549,0.295,1.102,0.425,1.658c0.017,0.073,0.038,0.146,0.054,0.219
				c0.142,0.63,0.265,1.264,0.376,1.904c0.032,0.185,0.058,0.373,0.087,0.558c0.072,0.461,0.139,0.924,0.195,1.388
				c0.027,0.222,0.052,0.445,0.074,0.669c0.047,0.456,0.084,0.914,0.115,1.373c0.014,0.204,0.03,0.406,0.041,0.611
				c0.033,0.655,0.055,1.313,0.055,1.974s-0.022,1.32-0.055,1.975c-0.011,0.204-0.027,0.407-0.041,0.611
				c-0.031,0.459-0.068,0.917-0.115,1.373c-0.023,0.223-0.047,0.446-0.074,0.669c-0.056,0.465-0.122,0.927-0.195,1.388
				c-0.029,0.187-0.055,0.374-0.087,0.559c-0.11,0.638-0.234,1.273-0.376,1.903c-0.017,0.074-0.038,0.147-0.055,0.221
				c-0.129,0.556-0.271,1.107-0.424,1.656c-0.056,0.199-0.116,0.397-0.176,0.594c-0.128,0.43-0.263,0.858-0.405,1.283
				c-0.07,0.207-0.14,0.414-0.213,0.62c-0.16,0.447-0.329,0.891-0.504,1.332c-0.064,0.16-0.123,0.32-0.189,0.479
				c-0.245,0.592-0.503,1.177-0.778,1.755c-0.053,0.111-0.111,0.219-0.164,0.329c-0.227,0.467-0.464,0.93-0.71,1.387
				c-0.102,0.19-0.208,0.376-0.314,0.564c-0.215,0.384-0.437,0.763-0.665,1.139c-0.115,0.19-0.23,0.378-0.348,0.566
				c-0.258,0.409-0.526,0.812-0.8,1.21c-0.092,0.135-0.18,0.272-0.274,0.405c-0.368,0.521-0.748,1.033-1.141,1.535
				c-0.105,0.134-0.217,0.264-0.323,0.397c-0.218,0.272-0.443,0.538-0.669,0.803c-0.234-0.275-0.468-0.551-0.694-0.832
				c-0.097-0.121-0.198-0.238-0.293-0.36c-0.398-0.508-0.781-1.024-1.151-1.549c-0.087-0.124-0.169-0.251-0.255-0.376
				c-0.28-0.409-0.555-0.821-0.819-1.24c-0.115-0.182-0.227-0.368-0.34-0.552c-0.232-0.38-0.456-0.765-0.674-1.154
				c-0.104-0.184-0.208-0.369-0.308-0.555c-0.248-0.46-0.485-0.925-0.714-1.395c-0.053-0.109-0.11-0.216-0.162-0.324
				c-0.275-0.579-0.534-1.164-0.779-1.756c-0.066-0.158-0.125-0.319-0.189-0.478c-0.176-0.442-0.346-0.886-0.505-1.334
				c-0.073-0.205-0.143-0.412-0.212-0.619c-0.143-0.425-0.278-0.853-0.405-1.283c-0.059-0.198-0.121-0.397-0.176-0.596
				c-0.153-0.547-0.294-1.096-0.423-1.65c-0.017-0.075-0.039-0.15-0.056-0.225c-0.142-0.628-0.265-1.263-0.376-1.901
				c-0.032-0.186-0.058-0.374-0.087-0.562c-0.072-0.46-0.138-0.923-0.194-1.386c-0.027-0.223-0.052-0.446-0.074-0.669
				c-0.047-0.456-0.084-0.914-0.115-1.373c-0.014-0.204-0.03-0.406-0.041-0.611c-0.033-0.655-0.055-1.313-0.055-1.974
				S379.304,343.958,379.337,343.303z M359.213,307.014c5.755,0,11.28,1.241,16.33,3.636c-0.17,0.206-0.329,0.418-0.496,0.626
				c-0.192,0.239-0.384,0.48-0.571,0.722c-0.423,0.544-0.831,1.097-1.232,1.657c-0.134,0.188-0.274,0.371-0.405,0.56
				c-0.517,0.744-1.018,1.498-1.496,2.266c-0.108,0.174-0.208,0.35-0.315,0.525c-0.37,0.606-0.728,1.218-1.073,1.838
				c-0.146,0.262-0.287,0.526-0.429,0.79c-0.304,0.568-0.597,1.141-0.88,1.72c-0.124,0.253-0.25,0.504-0.371,0.76
				c-0.372,0.79-0.729,1.588-1.062,2.395c-0.013,0.03-0.027,0.06-0.04,0.091c-0.344,0.838-0.661,1.687-0.961,2.543
				c-0.092,0.26-0.176,0.522-0.264,0.784c-0.207,0.617-0.403,1.235-0.588,1.859c-0.085,0.29-0.17,0.579-0.251,0.87
				c-0.187,0.673-0.359,1.35-0.52,2.031c-0.051,0.213-0.108,0.426-0.155,0.64c-0.198,0.888-0.376,1.783-0.53,2.683
				c-0.036,0.21-0.064,0.423-0.097,0.633c-0.112,0.702-0.212,1.407-0.296,2.116c-0.036,0.301-0.068,0.604-0.098,0.905
				c-0.067,0.656-0.122,1.315-0.166,1.977c-0.018,0.282-0.041,0.565-0.055,0.848c-0.047,0.928-0.078,1.858-0.078,2.793
				c0,0.935,0.031,1.866,0.078,2.793c0.014,0.284,0.037,0.565,0.055,0.848c0.044,0.661,0.098,1.319,0.166,1.976
				c0.031,0.303,0.063,0.605,0.098,0.906c0.084,0.708,0.184,1.412,0.296,2.114c0.033,0.211,0.06,0.424,0.097,0.635
				c0.154,0.9,0.331,1.794,0.529,2.682c0.049,0.216,0.106,0.428,0.156,0.643c0.161,0.68,0.333,1.356,0.52,2.028
				c0.081,0.292,0.166,0.581,0.251,0.871c0.184,0.623,0.38,1.242,0.587,1.857c0.088,0.262,0.172,0.525,0.264,0.785
				c0.302,0.855,0.618,1.704,0.961,2.542c0.013,0.032,0.028,0.064,0.041,0.095c0.332,0.806,0.689,1.602,1.06,2.391
				c0.12,0.255,0.247,0.508,0.371,0.761c0.283,0.578,0.576,1.151,0.88,1.72c0.141,0.264,0.282,0.528,0.429,0.79
				c0.345,0.62,0.703,1.231,1.073,1.838c0.107,0.175,0.206,0.351,0.315,0.525c0.48,0.767,0.979,1.522,1.497,2.266
				c0.13,0.188,0.269,0.37,0.402,0.556c0.401,0.561,0.812,1.116,1.235,1.662c0.186,0.241,0.377,0.48,0.568,0.718
				c0.167,0.209,0.327,0.423,0.498,0.628c-5.049,2.395-10.574,3.636-16.329,3.636c-21.1,0-38.265-17.167-38.265-38.266
				C320.947,324.18,338.113,307.014,359.213,307.014z"/>
			<path d="M61.771,320.615h101.322c4.466,0,8.084-3.618,8.084-8.084c0-4.465-3.62-8.084-8.084-8.084H61.771
				c-4.466,0-8.084,3.618-8.084,8.084C53.687,316.997,57.305,320.615,61.771,320.615z"/>
			<path d="M61.771,354.219h101.322c4.466,0,8.084-3.619,8.084-8.084c0-4.466-3.62-8.084-8.084-8.084H61.771
				c-4.466,0-8.084,3.618-8.084,8.084C53.687,350.6,57.305,354.219,61.771,354.219z"/>
			<path d="M61.771,387.822h101.322c4.466,0,8.084-3.618,8.084-8.084c0-4.466-3.62-8.084-8.084-8.084H61.771
				c-4.466,0-8.084,3.618-8.084,8.084C53.687,384.204,57.305,387.822,61.771,387.822z"/>
		</g>
	</g>
</g>
<g>
</g>
<g>
</g>
<g>
</g>
<g>
</g>
<g>
</g>
<g>
</g>
<g>
</g>
<g>
</g>
<g>
</g>
<g>
</g>
<g>
</g>
<g>
</g>
<g>
</g>
<g>
</g>
<g>
</g>
</svg>
