<?xml version="1.0" encoding="iso-8859-1"?>
<!-- Generator: Adobe Illustrator 19.0.0, SVG Export Plug-In . SVG Version: 6.00 Build 0)  -->
<svg version="1.1" id="Layer_1" xmlns="http://www.w3.org/2000/svg" xmlns:xlink="http://www.w3.org/1999/xlink" x="0px" y="0px"
	 viewBox="0 0 512 512" style="enable-background:new 0 0 512 512;" xml:space="preserve">
<g>
	<g>
		<g>
			<path d="M503.916,153.88c4.466,0,8.084-3.618,8.084-8.084v-31.459c0-20.62-16.775-37.394-37.393-37.394H37.393
				C16.775,76.942,0,93.716,0,114.337v283.326c0,20.62,16.775,37.395,37.393,37.395h437.212c20.619,0,37.393-16.775,37.393-37.395
				V172.025c0-4.466-3.619-8.084-8.084-8.084s-8.084,3.618-8.084,8.084v225.637c0,11.705-9.522,21.227-21.225,21.227H37.393
				c-11.703,0-21.225-9.522-21.225-21.227V114.337c0-11.704,9.522-21.226,21.225-21.226h437.212
				c11.703,0,21.225,9.522,21.225,21.226v31.459C495.832,150.261,499.45,153.88,503.916,153.88z"/>
			<path d="M434.602,297.947H220.984c-4.466,0-8.084,3.618-8.084,8.084c0,4.466,3.619,8.084,8.084,8.084h213.619
				c4.466,0,8.084-3.619,8.084-8.084C442.687,301.566,439.068,297.947,434.602,297.947z"/>
			<path d="M434.602,337.05H220.984c-4.466,0-8.084,3.619-8.084,8.084s3.619,8.084,8.084,8.084h213.619
				c4.466,0,8.084-3.619,8.084-8.084S439.068,337.05,434.602,337.05z"/>
			<path d="M164.308,278.202H76.489c-8.36,0-15.162,6.802-15.162,15.16v68.435c0,8.36,6.803,15.162,15.162,15.162h87.819
				c8.36,0,15.162-6.803,15.162-15.162v-68.435C179.469,285.003,172.667,278.202,164.308,278.202z M77.495,294.371h19.37v11.36
				h-19.37V294.371z M96.866,360.792H77.495v-11.36h19.371V360.792z M96.866,333.263H77.495v-11.364h19.371V333.263z
				 M163.301,360.792h-50.268v-66.421h18.682v46.977c0,4.466,3.618,8.084,8.084,8.084h23.501V360.792z M163.301,333.263h-15.417
				v-11.364h15.417V333.263z M163.301,305.731h-15.417v-11.36h15.417V305.731z"/>
			<path d="M192.115,251.774h19.265h0.435c0.88,0,1.745-0.097,2.6-0.237c0.866,0.144,1.749,0.237,2.655,0.237h21.891
				c4.227,0,8.064-1.636,10.945-4.292c2.881,2.657,6.717,4.292,10.945,4.292h21.893c1.518,0,2.984-0.224,4.377-0.615
				c1.394,0.391,2.859,0.615,4.377,0.615h21.893c2.34,0,4.558-0.509,6.567-1.403c2.008,0.895,4.227,1.403,6.569,1.403h21.891
				c8.93,0,16.168-7.239,16.168-16.168v-84.937c0-4.789-2.122-9.332-5.798-12.404c-2.931-2.45-6.609-3.764-10.37-3.764
				c-0.954,0-1.911,0.084-2.865,0.255l-21.412,3.856c-0.102-0.091-0.192-0.192-0.296-0.28c-2.942-2.492-6.653-3.832-10.45-3.832
				c-0.884,0-1.773,0.072-2.657,0.22l-13.137,2.188c-0.863,0.144-1.703,0.355-2.511,0.627l-3.532,0.637
				c-0.183-0.195-0.362-0.39-0.552-0.58c-5.101-5.099-11.923-7.909-19.204-7.909c-7.281,0-14.103,2.809-19.204,7.911
				c-5.098,5.1-7.91,11.922-7.91,19.204c0,0.041,0.003,0.081,0.004,0.122c-8.163,0.4-15.29,2.033-21.311,4.883
				c-2.789-2.286-6.354-3.661-10.242-3.661h-0.004h-0.44h-13.133h-10.101v-5.724v-1.753c0-4.898-2.219-9.532-6.038-12.601
				c-2.897-2.33-6.48-3.568-10.13-3.568c-1.158,0-2.32,0.124-3.472,0.378l-21.893,4.815c-0.08,0.018-0.157,0.044-0.239,0.064
				c-0.502-0.215-1.011-0.414-1.534-0.577l-0.113-0.036c-7.446-2.328-17.644-5.517-34.482-5.517c-0.185,0-0.371,0.003-0.556,0.01
				c-19.716,0.678-31.349,8.24-37.636,14.464c-8.104,8.022-12.564,18.729-12.564,30.152c0,0.363,0.006,0.742,0.015,1.132
				c0.194,7.315,2.28,14.967,6.825,21.703c-0.347,0.227-0.687,0.471-1.016,0.727c-3.953,3.063-6.265,7.78-6.265,12.778v20.143
				c0,7.42,5.051,13.888,12.248,15.687c10.577,2.643,22.356,3.983,35.007,3.983c0.068,0,0.135,0,0.204-0.001
				c0.08,0.001,0.156,0.001,0.232,0.001c14.181,0,24.372-3.653,31.442-7.882c2.956,3.221,7.186,5.253,11.903,5.253h21.891
				c1.823,0,3.574-0.302,5.211-0.858c1.663,0.558,3.446,0.858,5.297,0.858H192.115z M325.988,154.611
				c0-0.261,0.185-0.484,0.442-0.53l21.893-3.942c0.154-0.025,0.32,0.016,0.44,0.116c0.124,0.102,0.194,0.253,0.194,0.414v84.937
				c0,0.297-0.24,0.539-0.539,0.539h-21.891c-0.299,0-0.539-0.241-0.539-0.539V154.611z M290.96,154.611L290.96,154.611
				c0-0.261,0.188-0.484,0.444-0.53l8.396-1.511c0.08-0.126,0.212-0.218,0.366-0.244l13.137-2.188
				c0.157-0.028,0.316,0.018,0.435,0.12c0.122,0.103,0.192,0.253,0.192,0.412v84.937c0,0.297-0.242,0.539-0.539,0.539h-21.893
				c-0.296,0-0.539-0.241-0.539-0.539V154.611z M271.798,145.314c6.44,0,11.486,5.046,11.486,11.485s-5.047,11.484-11.486,11.484
				c-6.439,0-11.484-5.044-11.484-11.484C260.314,150.36,265.358,145.314,271.798,145.314z M260.314,174.313
				c0-0.298,0.243-0.539,0.539-0.539h21.893c0.296,0,0.539,0.241,0.539,0.539v61.292c0,0.297-0.242,0.539-0.539,0.539h-21.893
				c-0.296,0-0.539-0.241-0.539-0.539V174.313z M216.533,200.58c0-0.044,0.006-0.087,0.017-0.129
				c0.345-18.411,10.394-27.568,30.72-27.992c0.013-0.002,1.204-0.11,2.419-0.11c1.531,0,2.947,0.131,2.947,1.086v18.389
				c0,0.291-0.232,0.529-0.522,0.539c-12.612,0.42-12.612,4.569-12.612,15.659v27.583c0,0.297-0.243,0.539-0.539,0.539h-21.891
				c-0.296,0-0.539-0.241-0.539-0.539V200.58z M108.052,238.773l-0.314-0.003l-0.122,0.003c-11.375,0-21.878-1.184-31.217-3.517
				c-0.24-0.06-0.409-0.276-0.409-0.523V214.59c0-0.166,0.076-0.324,0.208-0.427s0.303-0.138,0.464-0.096l0.097,0.024
				c0.106-0.043,0.223-0.054,0.338-0.025c1.68,0.42,3.309,0.856,4.92,1.286c6.717,1.794,13.063,3.488,21.057,3.512
				c2.103-0.013,4.312-0.182,6.381-0.488c3.899-0.69,8.566-2.44,8.566-6.85c0-3.478-2.266-5.475-6.733-5.934
				c-1.087-0.083-1.948-0.096-2.362-0.096c-28.75-2.177-32.297-19.261-32.489-26.505c-0.006-0.257-0.011-0.503-0.011-0.741
				c0-12.819,9.193-28.104,35.107-28.995c14.472,0,22.989,2.665,29.836,4.805l0.113,0.035l0.958,0.472
				c0.183,0.092,0.296,0.278,0.296,0.482v19.699c0,0.297-0.24,0.539-0.539,0.539h-0.876c-0.059,0-0.115-0.01-0.17-0.027
				l-6.567-2.188c-5.202-1.6-13.566-3.474-19.97-3.474c-3.444,0-12.594,0-12.594,6.466c0,4,3.059,6.028,9.091,6.028
				c21.507,1.79,33.815,12.039,33.815,28.12C144.93,224.428,133.528,238.773,108.052,238.773z M183.262,235.675
				c-0.017-0.129-1.701-12.533-9.434-22.221v22.152c0,0.298-0.24,0.539-0.539,0.539h-21.891c-0.299,0-0.539-0.241-0.539-0.539
				v-80.122c0-0.252,0.175-0.472,0.424-0.526l21.891-4.815c0.156-0.036,0.327,0.003,0.455,0.107c0.126,0.102,0.201,0.257,0.201,0.42
				v43.584c5.913-7.413,9.497-14.927,11.071-18.229c0.97-2.036,1.071-2.248,1.524-2.248h26.707c0.296,0,0.539,0.241,0.539,0.539
				c0,0.158-0.069,0.302-0.179,0.401c-0.126,0.233-0.453,1.056-0.793,1.925c-1.829,4.641-6.661,16.901-15.124,27.506
				c1.546,2.883,12.286,23.054,14.76,31.306c0.051,0.163,0.019,0.34-0.082,0.476c-0.103,0.136-0.263,0.217-0.433,0.217h-28.021
				C183.527,236.144,183.297,235.944,183.262,235.675z"/>
		</g>
	</g>
</g>
<g>
</g>
<g>
</g>
<g>
</g>
<g>
</g>
<g>
</g>
<g>
</g>
<g>
</g>
<g>
</g>
<g>
</g>
<g>
</g>
<g>
</g>
<g>
</g>
<g>
</g>
<g>
</g>
<g>
</g>
</svg>
