<?xml version="1.0" encoding="iso-8859-1"?>
<!-- Generator: Adobe Illustrator 19.0.0, SVG Export Plug-In . SVG Version: 6.00 Build 0)  -->
<svg version="1.1" id="Layer_1" xmlns="http://www.w3.org/2000/svg" xmlns:xlink="http://www.w3.org/1999/xlink" x="0px" y="0px"
	 viewBox="0 0 512 512" style="enable-background:new 0 0 512 512;" xml:space="preserve">
<g>
	<g>
		<g>
			<path d="M131.503,343.972c0.554,0,1.116-0.058,1.679-0.177c4.369-0.923,7.162-5.212,6.239-9.58l-31.327-148.326
				c-0.923-4.369-5.213-7.164-9.58-6.239c-4.369,0.922-7.161,5.212-6.239,9.58l31.327,148.326
				C124.405,341.362,127.763,343.972,131.503,343.972z"/>
			<path d="M71.568,179.651c-4.369,0.922-7.162,5.212-6.239,9.58l31.326,148.326c0.803,3.805,4.161,6.416,7.901,6.416
				c0.554,0,1.116-0.058,1.679-0.177c4.369-0.923,7.161-5.212,6.239-9.58L81.147,185.889
				C80.226,181.521,75.932,178.727,71.568,179.651z"/>
			<path d="M503.916,153.88c4.466,0,8.084-3.618,8.084-8.084v-31.458c0-20.62-16.775-37.394-37.393-37.394H37.393
				C16.775,76.942,0,93.716,0,114.337v283.325c0,20.62,16.775,37.395,37.393,37.395h437.212c20.619,0,37.393-16.776,37.393-37.395
				V172.025c0-4.466-3.619-8.084-8.084-8.084s-8.084,3.618-8.084,8.084v225.637c0,11.705-9.522,21.227-21.225,21.227H37.393
				c-11.703,0-21.225-9.522-21.225-21.227V114.338c0-11.704,9.522-21.226,21.225-21.226h437.212
				c11.703,0,21.225,9.522,21.225,21.226v31.458C495.832,150.261,499.45,153.88,503.916,153.88z"/>
			<path d="M166.636,343.53h53.038h4.514c4.499,0,8.612-1.85,11.567-4.871c2.953,3.021,7.07,4.871,11.566,4.871h0.564h55.859h0.564
				c3.625,0,7.008-1.216,9.741-3.281c1.513,0.55,3.045,1.054,4.608,1.468c9.206,3.159,20.41,4.633,35.162,4.633h2.259
				c0.444,0,0.882-0.018,1.318-0.054c22.927-0.527,40.958-6.132,53.604-16.669c0.133-0.111,0.265-0.224,0.393-0.34
				c13.71-12.189,20.661-30.113,20.661-53.275v-79.555c0-8.929-7.24-16.168-16.168-16.168h-32.162h-18.621
				c-4.68,0-8.895,1.989-11.848,5.166c-2.951-3.178-7.168-5.166-11.848-5.166h-9.593c-0.086,0-0.172,0.01-0.259,0.012
				c0.011,0,0.022-0.002,0.032-0.002c-0.065,0-0.128-0.01-0.193-0.01H295.28h-9.03c-4.779,0-9.129,2.088-12.109,5.455
				c-1.407-1.443-3.077-2.62-4.928-3.457c-2.32-1.277-4.979-1.998-7.788-1.998h-52.474c-4.373,0-8.389,1.748-11.324,4.628
				c-2.935-2.879-6.949-4.628-11.324-4.628h-1.61h-45.703c-4.875,0-9.489,2.199-12.56,5.986c-3.07,3.787-4.267,8.755-3.26,13.524
				l27.647,130.902C152.396,338.18,158.994,343.53,166.636,343.53z M339.724,198.122c0.117-0.558,0.172-1.113,0.172-1.662h1.509
				v81.25c0,5.64,0.566,10.156,2.821,12.976c2.257,2.821,5.08,4.514,9.025,4.514c3.388,0,6.211-1.693,8.465-4.514
				c2.257-2.82,3.386-7.336,3.386-12.411V196.46h18.621h32.162v79.555c0,18.62-5.08,32.162-15.236,41.192
				c-9.781,8.15-24.816,12.626-44.567,12.945l-0.007,0.03h-2.259c-12.413,0-22.567-1.13-30.468-3.951
				c-3.556-0.887-6.792-2.251-9.724-3.91L339.724,198.122z M184.693,196.461v-0.001h1.61l11.061,75.336l11.587-75.336h52.474
				l0.086,0.565h1.044l11.572,80.451l12.122-81.016h9.03h6.242h13.769h8.26l-26.514,126.183c0,0.001,0,0.001,0,0.002
				c-0.698,3.319-2.631,4.406-4.221,4.718h-44.932h-0.564l-11.565-82.617l-11.568,82.617h-4.514h-53.038L138.99,196.461H184.693z"/>
		</g>
	</g>
</g>
<g>
</g>
<g>
</g>
<g>
</g>
<g>
</g>
<g>
</g>
<g>
</g>
<g>
</g>
<g>
</g>
<g>
</g>
<g>
</g>
<g>
</g>
<g>
</g>
<g>
</g>
<g>
</g>
<g>
</g>
</svg>
