<?xml version="1.0" encoding="utf-8"?>
<!-- Generator: Adobe Illustrator 19.2.1, SVG Export Plug-In . SVG Version: 6.00 Build 0)  -->
<svg version="1.1" id="Calque_1" xmlns="http://www.w3.org/2000/svg" xmlns:xlink="http://www.w3.org/1999/xlink" x="0px" y="0px"
	 viewBox="0 0 2068 2230.8" style="enable-background:new 0 0 2068 2230.8;" xml:space="preserve">
<style type="text/css">
	.st0{fill:#FFFAF7;}
	.st1{fill:#A12029;}
	.st2{fill:#FFFFFF;}
</style>
<g>
	<path class="st0" d="M1994.1,2071c-653.5,0-1307,0-1960.6,0c0-654.7,0-1309.3,0-1964c653.5,0,1307,0,1960.6,0
		c-0.1,2.5-0.1,5-0.1,7.5c0,649.7,0,1299.3,0,1949C1994,2066,1994.1,2068.5,1994.1,2071z M969,176.9c-0.3-0.3-0.7-0.6-1-1
		c1.5-2.2,3-4.5,5.4-7.9c-9.5-1-17.8-1.8-26.2-2.6c-0.3,0.7-0.6,1.4-0.9,2c2.3,3.2,4.5,6.4,6.7,9.5c-7.4,0.9-12.7-9.4-21.7-3.5
		c2.5,1.5,4.1,2.4,5.6,3.3c-0.2,0.5-0.3,1-0.5,1.5c-5.3,0-10.6-0.2-15.9,0c-5.8,0.2-9-2.6-11.4-7.7c-1.2-2.6-3.7-5.5-6.3-6.5
		c-9.8-4-19.7-1.6-29.6,1.1c2.1,1.3,4.3,2.6,6.5,2.8c4.2,0.4,8.5-0.1,12.7,0.2c1.9,0.2,3.7,1.6,5.5,2.4c-1.1,2.2-1.9,4.7-3.5,6.6
		c-1,1.2-3.2,1.3-4.8,1.9c0,0.3,0.1,0.6,0.1,0.9c9.7,0.9,19.4,1.7,30.8,2.7c-2.5,1.3-3.7,2.4-5,2.5c-7.6,0.7-15.2,1.3-22.8,1.7
		c-2,0.1-4.2-0.4-6.2-1c-9.1-2.5-18.1-4.5-27.8-4.4c-22.4,0.1-44.8-1-67.1-1.7c-1.5,0-3-0.6-4.4-0.9c-4.8-0.9-9.7-1.7-14.5-2.5
		c-0.2,0.6-0.4,1.2-0.6,1.8c2.7,1.6,5.3,3.1,8.4,4.9c-1.3,0.9-2,1.9-2.8,1.9c-9.8,0.1-19.6,0.5-29.4-0.1
		c-10.8-0.6-21.5-2.1-32.3-3.2c-0.9-0.1-1.9,0.1-2.9,0.2c-7.6,0.9-15.1,1.9-22.7,2.8c-0.1-0.5-0.2-1-0.3-1.6
		c3.2-0.6,6.5-1.2,10.1-1.9c-10.1-6.6-69.7-6.9-86.5-0.2c2.1,0.9,4,1.8,5.8,2.5c1.8,0.7,3.6,1.3,5.4,2c-0.1,0.5-0.3,1-0.4,1.5
		c-16.4-8.3-33.7-4-50.6-3.6c-9.5,0.3-19,1.1-28.5,1.5c-0.7,0-1.4-0.8-0.9-0.5c2.2-3.3,4.5-6.4,6.8-9.9c-12.5-1.2-25.1-2.4-37.7-3.8
		c-2.4-0.3-4.8-0.8-7.2-1.4c-6.3-1.8-10.2-0.1-13.3,5.6c-1,1.9-3.3,4.4-4.9,4.3c-6.3,0-12.5-0.8-18.8-1.6c-8.2-1-16.4-2.6-24.6-3.2
		c-6.9-0.5-13.9,0.3-20.8-0.3c-3.8-0.3-7.4-2.4-11.2-3.4c-1.5-0.4-3.2-0.1-4.8-0.1c0,0.7,0,1.3,0,2c6.2,2.4,12.3,4.7,18.5,7.1
		c-0.1,0.5-0.2,1-0.3,1.5c-1.6,0-3.2,0.1-4.8,0c-6.4-0.6-12.8-1.2-19.2-1.8c-2.1-0.2-4.4,0.2-6.3-0.5c-5.1-2.2-9.9-1.5-14,1.8
		c-7.8,6.2-16.8,5.7-25.4,3.9c-15.8-3.3-31.8-4.2-47.8-5c-11.1-0.5-22.3-0.1-33.5-0.1c-13.3,0-26-3.3-38.9-6.2
		c-13.7-3.1-28.5-2.1-42.8-2.1c-9.2,0-18.2,3.8-27.8,1.5c-9.9-2.5-10.3-2.3-6.1-10.9c0.1-0.3-0.1-0.7-0.4-2.1
		c-4.1,0.7-8.3,1.8-12.4,2c-9.4,0.3-18.9,0.3-28.3,0c-6.6-0.2-13.2-1.2-19.8-1.7c-2.8-0.2-5.9-0.9-6,3.8c-0.2,7.8-0.7,15.7-1.1,23.5
		c-0.4,8.8-1.1,17.6-1.2,26.4c-0.1,8.5,0.2,17,0.4,25.5c0.9,0,1.7,0.1,2.6,0.1c1.9-13.4,3.8-26.8,5.8-40.2c0.7,0,1.3,0.1,2,0.1
		c0.7,6.2,2,12.3,1.8,18.5c-0.3,11.3-1.5,22.5-2.1,33.8c-0.9,15.9-1.7,31.7-2.3,47.6c-0.6,15.9-1.2,31.8-1.1,47.8
		c0.1,22.5,0.6,44.9,1.1,67.4c0.3,12.7,0.8,25.3,1.1,38c0.8,28.4,1.6,56.8,2.3,85.1c0.4,16.1,0.6,32.2,1.2,48.3
		c0.3,8.4,1.4,16.7,2,25.1c0,0.3-0.3,0.6-0.7,1.1c-1-0.7-2-1.4-4.1-2.8c0,21,0,41,0,62.5c1.1-9.6,2.1-17.8,3-26.1
		c0.7,3.1,0.9,6.2,0.6,9.3c-1.5,20-3.5,40-4.4,60c-1,22.1-1.2,44.2-1.1,66.2c0,9.3,2.3,18.6,2.8,27.9c0.6,12.8,0.5,25.5,0.7,38.3
		c0.1,4.6,0,9.2,0.4,13.7c0.2,2.4,1.7,4.8,1.4,7.1c-0.7,7.1-2.8,14.2-3,21.3c-0.7,24.4-1,48.8-1.3,73.2c-0.2,16,0,31.9,0,47.9
		c0,1.6,0.1,3.3,0.2,4.9c5.8-19.3,3.2-39,3.3-58.7c1.2,5,2.2,10,2.2,14.9c-0.1,15.7-0.7,31.5-1.1,47.2c-0.4,21.7-0.5,43.4-1.3,65.1
		c-0.3,8.5-1.9,17-3.4,25.5c-1.2,7.1-4.2,14.1-4.3,21.1c-0.2,21.3,0.5,42.6,1,63.9c0,1.6,0.9,3.2,1.4,4.7c0.3-0.1,0.7-0.1,1-0.2
		c1.5-8,2.9-15.9,4.4-23.9c-4.7,31.8-6,115.6-4.9,128.6c0.8-2.7,1.6-4.2,1.7-5.8c0.5-9.4,1.1-18.8,1.2-28.1
		c0.2-16.9,0-33.9,0.2-50.8c0.1-5,1.1-9.9,1.7-14.9c0.9,2.6,0.3,5,0.2,7.5c-0.5,10.7-0.9,21.4-1.2,32.2c-0.5,18.2-0.6,36.5-1.2,54.7
		c-0.3,8.2-1.3,16.4-2,24.5c-0.3,3.8-1.4,7.6-1,11.4c0.7,8.5,2.8,17,3,25.5c0.8,31.8,0,63.6-3.3,95.4c-2.1,20.1-3.8,40.4-4.4,60.6
		c-0.6,18.8,0.8,37.6,0.9,56.4c0.2,31.7,0,63.5,0,95.3c0,1.9,0,3.7,0,5.6c0.5-0.4,1-0.9,1.5-1.3c1,0.6,2.5,1.1,2.9,2
		c1.5,3.4,2.7,7,4.2,11c1.1-1.3,1.9-2.2,2.9-3.4c0,12.6,0.7,24.8-0.2,36.8c-0.9,11.9-3.7,23.6-5.3,35.5c-0.9,6.7-1,13.5-1.4,20.3
		c0.4,0,0.7,0,1.1,0.1c1.3-5.1,2.7-10.1,4.4-16.6c1.8,28.2-6.3,54.5-3.9,81.2c0.6,0,1.2,0.1,1.7,0.1c0.2-1.2,0.5-2.4,0.7-3.5
		c0.2,0,0.4,0,0.6,0.1c0,2.8,0,5.7,0,8.5c0,38.3,0,76.6,0,114.9c0,2.8,0.7,5.7,0.9,8.5c0.4,6.4,1.6,12.9-4.5,17.9
		c-3.4,2.9-3,7.1,0.1,11.6c0.4-2.3,0.7-4.6,1.1-6.9c0.3-0.5,0.6-0.9,1-1.4c5.5,10.5,13.5,5.4,21.4,4c-4.9,6-4.9,6,4.1,8.9
		c2.2-1.6,3.9-3.7,6.1-4.3c6-1.6,12.4-2.1,18.3-3.9c5.1-1.6,8.7,2.2,13.5,2c6.9-0.2,14,0.9,20.9,1.9c2.9,0.4,5.6,2.2,8.5,3
		c2.1,0.5,4.4,0.4,6.6,0.6c0.1-0.6,0.1-1.2,0.2-1.9c-4.4-1.7-8.9-3.4-13.3-5c1.2-1,2-0.9,2.9-0.7c8.6,1.3,17.2,3.3,25.8,3.7
		c14.4,0.6,28.9,0.1,43.3,0.2c5,0,10.1-0.3,15,0.5c12.1,1.9,24.1,4.6,36.2,6.5c12.3,2,24.7,3.5,37.1,5.2c3.9,0.5,7.8,0.9,12.7,1.5
		c-2.3-1.8-3.6-2.9-5.9-4.8c11.8-0.2,22.3-1.5,32,5.1c8.9,6.1,17.7,13,30.1,6c4.6-2.6,11.1-2,16.8-2.3c6.5-0.3,13.1,0.1,19.6-0.2
		c1.7-0.1,3.2-1.6,4.9-2.5c5.4-0.1,11.2,1,16.8,2.6c12,3.4,23.8,7.2,35.8,10.6c1.3,0.4,2.9-0.1,5.7-0.2c-6.9-6.7-16.9-5.2-21.3-13.4
		c5.8-0.4,11.3-0.1,16.9,0.5c6.4,0.7,13.4,3.4,19,1.7c4.8-1.5,8.7-1.9,13.3-0.9c1.3,0.3,2.5,0.8,3.8,1.1c4.8,0.8,10.3,3.3,14.4,1.8
		c5.1-1.9,9-7,13.7-11c-5.9-4.4-14.2-3.1-17.5-12.5c6.5,2.7,11.5,4.9,16.7,7c2.7,1.1,5.6,2.7,8.4,2.6c9.9-0.2,19.8-1.3,29.7-1.4
		c6.6-0.1,13.4,2,19.9,1.2c6.3-0.7,11.4,1.6,17,2.8c5.5,1.1,11.1,2.5,16.7,2.8c12.3,0.6,24.9-1.3,36,6.4c0.7,0.5,2.4-0.4,3.5-0.9
		c2.9-1.3,5.8-3.8,8.7-3.9c10.1-0.4,19.6,1.2,26.8,9.8c2.5,3,6.8,5.7,10.6,6.1c7.7,0.9,15.6,0.3,23.8,0.3c-2.5-5.6,1.3-6.3,4.5-7
		c10-1.9,20.1-3.7,30.1-5.3c5.4-0.9,10.9-1.7,16.4-1.7c6.6,0.1,13.2,1,19.8,1.7c4.9,0.5,9.8,1.1,14.7,1.5c2.7,0.2,5.4,0,9.5,0
		c-8.3-8.2-17.8-4.5-26-7.1c1.6-1.6,3.2-2.7,4.9-3.4c12.6-4.7,25.2-0.4,37.8,0.5c11.9,0.9,23.8,2,35.8,2.9c1.1,0.1,3.2-1.2,3.3-2.1
		c0.8-4.8,4.2-3,6.7-2.8c3,0.2,5.9,1,8.8,1.5c8,1.5,16.3,2,23.8,4.8c10.2,3.9,19.8,9.6,29.7,14.3c1.6,0.7,3.9-0.3,5.9-0.5
		c-0.9-1.6-1.4-3.9-2.7-4.8c-3.9-2.7-8.2-4.8-13.2-7.7c8.4-0.9,15.6-2.5,22.9-2.4c15.5,0.1,31,1.2,46.5,1.5
		c17.7,0.3,35.4,0.2,53.1-0.1c2.2,0,4.4-2.1,6.6-3.2c-0.2-0.6-0.4-1.3-0.6-1.9c-6.1-1.5-12.3-3-18.4-4.5c3.4-0.6,6.5,0.5,9.7,0.8
		c9.7,0.8,19.4,1.5,29.1,1.8c10.2,0.3,20.4-0.4,30.6,0.2c10.2,0.6,20.3,2.2,30.5,3.3c6.9,0.7,13.8,1.8,20.7,1.8
		c5.8,0.1,11.7-0.9,17.5-1.8c3.6-0.6,7-2,10.5-2.8c2-0.4,4.1-0.3,6.2-0.4c0.1,0.5,0.1,0.9,0.2,1.4c-2.1,0.9-4.2,1.7-6.3,2.6
		c5,8.1,83,14.8,101.1,8.9c-1.3-0.7-2.3-1.2-3.7-2c1-0.3,1.5-0.7,2-0.6c13.6,0.6,27.2,0.9,40.7,2c10.4,0.8,20.7,2.4,31.1,3.7
		c13.3,1.7,26.6,4.6,39.9,4.9c16.7,0.4,33.7,2.3,50.2-2.2c-0.6-2.5-1.1-5-2-9.4c7.1,1.4,14.1,0.7,18.1,3.9
		c10.3,8.2,21.5,8.9,33.5,7.5c1.5-2-2.7-7.3,2.8-6.1c6.6,1.4,12.8,4.5,19.2,6.8c-0.1,0.6-0.1,1.3-0.2,1.9c-5,1.2-10.1,2.5-15.1,3.7
		c0.1,0.2,0.2,0.4,0.2,0.7c11.7,0,23.4,0,35.1,0c0.1-0.3,0.1-0.7,0.2-1c-3.7-1.9-7.4-3.8-10.7-5.5c6.5-0.6,13.2-1.9,19.9-1.8
		c30.9,0.4,61.7,1.2,92.6,1.8c0.8,0,1.5,0.2,2.3,0.2c12.2,0.4,24.5,1.3,36.7,1.1c13.9-0.2,27.3-4.7,41.7-1.8
		c15.6,3.1,31.6,4.2,47.5,5.4c16.2,1.2,32.5,1.5,48.7,2.1c1.2,0,2.5-0.3,3.7-0.5c-1.8-8.8-9.6-11-16.1-15.2
		c12.6-1.7,23.5,1.1,34.5,4.4c6.6,2,13.6,3.5,20.5,3.7c5.2,0.2,10.5-2,15.8-3.3c0.9-0.2,2.1-1.2,2.3-2.1c0.7-3,1.2-6,1.3-9.1
		c0.9-19,1.7-37.9,2.3-56.9c0.6-17.3,0.8-34.5,1.2-51.8c0.3-9.6,0.6-19.2,1.2-28.7c0.3-5.3,1.4-10.6,1.8-15.9
		c0.8-11.1,1.5-22.3,2.2-33.5c-0.6,0-1.2-0.1-1.8-0.1c-0.6,6-1.2,12-1.8,18c-0.7-33.3-2.2-66.6-4.1-99.8c-0.6-11-2.3-22-3.1-33.1
		c-0.5-7.3-0.1-14.7-0.1-22c0.4,0,0.8-0.1,1.2-0.1c0.8,1,1.5,2,3.2,4.2c0-19.9,0-38.2,0-56.6c-0.2-0.1-0.3-0.1-0.5-0.2
		c-1.1,7.7-2.2,15.4-3.2,23.1c-0.7,0-1.4-0.1-2.1-0.1c0-9.4-0.1-18.7,0-28.1c0.1-6.9,0.8-13.8,1.1-20.6c0.8-18.8,1.6-37.5,2.3-56.3
		c0.8-21.3,1.8-42.5,2.3-63.8c0.2-8.2-0.9-16.4-1-24.7c-0.2-20,0-40-0.1-60c0-4.4-1.2-8.8-1-13.1c0.6-16.3,1.7-32.5,2.1-48.8
		c0.4-12.7,0.2-25.5,0-38.2c-0.1-5.2-1.1-10.3-0.9-15.5c0.3-6.7,1.6-13.3,2-19.9c0.9-15.3,1.9-30.6,2.3-45.9
		c0.6-21.7,0.9-43.4,1.2-65.1c0.2-14.9-0.3-29.8,0.2-44.7c0.7-19.7,2.2-39.4,3.3-59c0.1-1.8,0-3.7,0-5.5c-0.6-0.1-1.2-0.1-1.8-0.2
		c-0.5,4-1.1,8.1-1.6,12.1c-0.4,0-0.8,0-1.2-0.1c0-8.2,0-16.4,0-24.5c-0.4,0-0.8-0.1-1.2-0.1c-0.8,2.9-1.6,5.8-2.4,8.7
		c-0.5-0.1-1-0.2-1.5-0.2c0.5-6.6,1.4-13.1,1.5-19.7c0.9-43.9,1.6-87.7,2.4-131.6c0.1-7.5,0.7-14.9,1.2-22.4
		c1.5-20.8,3.4-41.6,4.5-62.4c0.7-13.3,0.1-26.7,0.1-40c0.6,24.2,0.6,48.4,0.6,72.6c0,3.7,0.2,7.3-0.1,11
		c-1.2,13.6-3.2,26.9-0.5,40.9c2.2,11.4-0.6,23.6-0.8,35.5c-0.1,5.8,0.5,11.6,1,17.5c0.3,3.8,1.5,7.6,1.4,11.3
		c-0.5,13-1.8,26-2.1,39c-0.2,9.1,0.8,18.1,1,27.2c0.2,7.5-0.1,15,0.1,22.5c0.1,2.7,1.1,5.4,1.7,8.1c0.7-0.1,1.4-0.3,2.1-0.4
		c0-2.2,0-4.5,0-6.7c0-294.4,0-588.8,0-883.2c0-1.9,0.4-4-0.2-5.7c-0.6-1.6-2.2-2.9-3.2-4.1c-1.1,21.6-2.1,42.3-3.1,63
		c-0.3,0-0.6,0-0.9-0.1c0-16.3,0-32.7,0-49.5c-1.2,0.5-1.9,0.8-2.6,1c-8.5,2.1-16.5,5.3-26,3c-15.5-3.9-31.5-7.9-48-0.6
		c-0.4-7.8-5.6-7.7-11.1-7.3c-2.1,0.2-4.2,0.1-6.3,0c-5.7-0.4-9.7,1.9-12.8,6.8c-1.6,2.5-4.5,5-7.3,5.7c-8.8,2.1-17.7,3.3-26.6,4.8
		c0.2-0.8,0.3-1.7,0.5-2.5c-0.8-1.2-1.5-3.2-2.5-3.4c-3.2-0.7-6.5-0.3-9.7-1c-5.2-1.2-5.1-1.4-7.5,2c1.6,0.5,3.3,1,4.9,1.5
		c-0.1,0.5-0.3,1-0.4,1.5c-14.1-3.1-28.1-6.2-42.2-9.1c-1.8-0.4-3.8,0.3-5.7,0.5c1.2,1.6,2.2,3.5,3.7,4.9c1.4,1.3,3.3,1.9,5,2.8
		c-0.2,0.6-0.3,1.2-0.5,1.8c-5.8-0.9-11.7-1.6-17.4-3c-1-0.2-1.3-3.1-2.1-4.7c-1-1.7-2.2-4.5-3.4-4.6c-7.1-0.5-14.2-0.3-21.3-0.2
		c-0.8,0-1.7,1.2-2.5,1.8c0.9,0.7,1.8,1.8,2.8,2.1c3,1,6,1.6,9.1,2.4c-22.5,8.7-44.7,1.5-68.4-1.4c2.7,3.1,4.1,4.6,6.1,6.9
		c-4.6,1.1-8.2,1.9-10.8,2.5c-0.7-3.7-0.8-7.9-1.7-8c-2.5-0.5-5.4,0.6-8.1,1.2c-1.6,0.3-3.1,1.2-4.7,1.3
		c-10.6,0.3-21.5-1.2-31.7,3.4c-1.5,0.7-3.7,0.1-5.5,0.1c-0.1-0.3-0.1-0.7-0.2-1c4.1-1.3,8.2-2.7,12.4-4c-10.1-7.3-21-1.7-32-4.5
		c5-1.8,9.1-3.4,13.2-4.9c-0.1-0.6-0.2-1.2-0.3-1.8c-18-5-34.6,3.6-51.8,6.1c0,0.5-0.1,1.1-0.1,1.6c6.5,0,13.1,0,19.6,0
		c-1.7,1.8-3.5,2.9-5.5,3.1c-12.9,1.3-25.7,2.8-38.6,3.5c-10,0.6-20,0.6-29.9,0c-9.8-0.6-19.6-2.1-29.3-3.5c-2.5-0.4-6.1-1-7.1-2.8
		c-1-1.7,0.7-4.9,1.3-7.8c-1.5-0.5-3.4-1.4-5.4-1.8c-5.2-1.1-10.5-1.4-15.5-2.9c-8.1-2.4-14.2,1.8-14.1,9.1c0.1,3.6-1.7,6.4-5.9,6.3
		c-7.5-0.1-14.9-0.3-22.4-0.5c-0.3,0-0.7-0.8-1.1-1.3c1.5-0.9,2.8-1.8,5.5-3.5c-18.7-8.4-37.6-9.1-56-12.3c-0.2,0.5-0.3,0.9-0.5,1.4
		c6.8,3.3,13.6,6.6,20.7,10.1c-13.1,4-25.5-4.5-37.9,0.6c0-0.4-0.2-0.8-0.1-1.1c3.8-7.3,3.6-6.9-5.1-7.8c-13-1.3-26,3.5-39,0.3
		c-0.3-0.1-0.8,0.6-1.3,1c9.1,7.4,23.1,10,23.2,26.1c-22.6-9.3-45-16.3-69.4-13.3c7.3,3.1,14.6,6.2,21.8,9.3c-1.5,1.4-2.7,1.7-4,1.7
		c-14.5,0.5-28.9-0.5-43.2-3.4c-10.9-2.2-22.1-3.4-32.9-6c-18.8-4.6-37.4-10-56-15.1c-1,7.3-0.8,14,7.1,18.2
		c-0.4,0.3-0.9,0.6-1.3,0.9c-12.8-0.7-25.6-1.4-38.3-2.1c-0.1,0.6-0.2,1.1-0.3,1.7c2.5,2.1,5,4.3,7.4,6.4c-4.2-0.3-7.9-1.7-11.6-2.5
		c-6.1-1.4-12.2-2.4-18.3-3.7c-6.1-1.3-7.6-4.3-5.1-9.3c3.5,1,6.9,2.1,11.6,3.5c-5.3-7.9-23.5-14-30.9-11.6
		c-0.7,0.2-1.7,1.1-1.8,1.7c0,0.6,0.9,1.5,1.6,1.9c1.9,1.3,3.9,2.4,6.9,4.2c-12.1,0-22.4,0-33.8,0c3.7-1.9,6.7-3.5,9.8-5.1
		c-2.4-3.2-16.5-4.3-24.1-2c-0.4,2.2,0,4.9-1.1,6C978.2,169.6,973.5,173.2,969,176.9z M67.3,1521.4c0.5,0,1.1,0.1,1.6,0.1
		c0.2-1.6,0.6-3.1,0.7-4.7c0.4-19.4,0.9-38.8,1.2-58.1c0.4-25.7,0.8-51.5,1.2-77.2c0.1-6.1,0.7-12.2,0.1-18.2
		c-0.8-9.3-3.4-18.5-3.4-27.8c-0.2-24.6,0.4-49.2,1-73.7c0.5-19.9,1.8-39.8,2.2-59.7c0.2-10.7-0.5-21.5-1.1-32.2
		c-0.2-4.3-1.3-8.6-1.9-12.9c-0.5,0.1-1,0.1-1.5,0.2C67.3,1278.7,67.3,1400,67.3,1521.4z M1953.5,1717.4c0-174.1,0-348.3,0-522.4
		C1950.9,1369.1,1950.1,1543.2,1953.5,1717.4z M66.9,917.8c0.8,0.2,1.6,0.4,2.4,0.6c0.5-1.7,1.4-3.4,1.3-5c-0.1-4.4-1-8.8-0.9-13.1
		c0.6-21.9,1.5-43.8,2.2-65.6c0.1-3-0.5-6.1-1-9.1c-0.7-4.7-2.4-9.4-2.4-14.1c0.6-45.3,1.4-90.6,2.2-135.9c0.2-10,0.9-19.9,1.1-29.9
		c0.5-22.3,0.8-44.5,1.2-66.8c0-1.3-0.5-2.7-0.8-4.1c-5.4,2.4-5.5,6.4-5.5,10.9c0.1,108.5,0,217,0,325.5
		C66.9,913.3,66.9,915.6,66.9,917.8z M67.8,1798c-0.3,0.4-0.6,0.7-0.6,1c-0.1,27.7-0.2,55.4-0.1,83.1c0,1.2,1.2,2.4,1.9,3.6
		c1.8-3.4,2.9-6.3,3-9.3c0.5-24.2,0.8-48.4,1.3-72.6C73.2,1800,71.5,1798.1,67.8,1798z M1953.4,1847.4c0-37.7,0-75.4,0-112.3
		C1946.2,1772.1,1952.9,1809.8,1953.4,1847.4z M1952.7,1142.2c0.2,0,0.5-0.1,0.7-0.1c0-28.1,0-56.3,0-84.4c-0.2,0-0.5,0-0.7,0
		C1952.7,1085.8,1952.7,1114,1952.7,1142.2z M1952.3,2029c0.4,0.1,0.8,0.1,1.1,0.2c0-22.9,0-45.8,0-68.7c-0.4,0-0.8,0-1.1,0
		C1952.3,1983.3,1952.3,2006.2,1952.3,2029z M1946.1,154.7c1.9-9.4-2.5-15.5-8.3-13.6c1.1,3.3,2.2,6.6,3.7,11
		C1942.2,152.5,1944.1,153.6,1946.1,154.7z"/>
	<path class="st1" d="M1994.1,2071c-0.1-2.5-0.1-5-0.1-7.5c0-649.7,0-1299.3,0-1949c0-2.5,0.1-5,0.1-7.5c1.9,0.1,4.5-0.7,3.5,2.9
		c-0.2,0.7,0,1.5,0,2.3c0,651.2,0,1302.4,0,1953.6C1997.5,2068,1999.3,2071.9,1994.1,2071z"/>
	<path class="st1" d="M969,176.9c4.5-3.7,9.3-7.3,13.5-11.4c1.1-1.1,0.8-3.8,1.1-6c7.6-2.3,21.7-1.2,24.1,2c-3,1.6-6.1,3.2-9.8,5.1
		c11.4,0,21.7,0,33.8,0c-3.1-1.8-5.1-2.9-6.9-4.2c-0.7-0.5-1.6-1.3-1.6-1.9c0-0.6,1-1.5,1.8-1.7c7.5-2.4,25.6,3.7,30.9,11.6
		c-4.8-1.4-8.2-2.5-11.6-3.5c-2.4,5-1,8,5.1,9.3c6.1,1.3,12.2,2.3,18.3,3.7c3.8,0.9,7.4,2.2,11.6,2.5c-2.5-2.1-5-4.3-7.4-6.4
		c0.1-0.6,0.2-1.1,0.3-1.7c12.8,0.7,25.6,1.4,38.3,2.1c0.4-0.3,0.9-0.6,1.3-0.9c-7.9-4.2-8.1-10.9-7.1-18.2
		c18.6,5.1,37.2,10.5,56,15.1c10.8,2.7,22,3.8,32.9,6c14.3,2.8,28.7,3.9,43.2,3.4c1.2,0,2.4-0.3,4-1.7c-7.3-3.1-14.6-6.2-21.8-9.3
		c24.3-3,46.8,4,69.4,13.3c-0.1-16.2-14.2-18.8-23.2-26.1c0.5-0.4,1-1.1,1.3-1c13,3.2,25.9-1.5,39-0.3c8.6,0.8,8.9,0.5,5.1,7.8
		c-0.1,0.3,0,0.7,0.1,1.1c12.4-5.1,24.8,3.4,37.9-0.6c-7.1-3.5-13.9-6.8-20.7-10.1c0.2-0.5,0.3-0.9,0.5-1.4
		c18.4,3.2,37.3,3.9,56,12.3c-2.7,1.7-4,2.6-5.5,3.5c0.5,0.5,0.8,1.3,1.1,1.3c7.5,0.2,14.9,0.4,22.4,0.5c4.2,0.1,5.9-2.7,5.9-6.3
		c-0.1-7.3,6-11.5,14.1-9.1c5,1.5,10.4,1.9,15.5,2.9c2,0.4,3.9,1.3,5.4,1.8c-0.6,3-2.3,6.2-1.3,7.8c1,1.7,4.5,2.4,7.1,2.8
		c9.8,1.4,19.5,2.9,29.3,3.5c10,0.6,20,0.6,29.9,0c12.9-0.7,25.7-2.2,38.6-3.5c1.9-0.2,3.8-1.4,5.5-3.1c-6.5,0-13.1,0-19.6,0
		c0-0.5,0.1-1.1,0.1-1.6c17.2-2.6,33.9-11.1,51.8-6.1c0.1,0.6,0.2,1.2,0.3,1.8c-4.1,1.5-8.2,3-13.2,4.9c11.1,2.7,22-2.8,32,4.5
		c-4.1,1.3-8.2,2.7-12.4,4c0.1,0.3,0.1,0.7,0.2,1c1.9,0,4,0.6,5.5-0.1c10.2-4.6,21-3,31.7-3.4c1.6-0.1,3.1-1,4.7-1.3
		c2.7-0.6,5.5-1.6,8.1-1.2c0.8,0.2,1,4.3,1.7,8c2.6-0.6,6.2-1.4,10.8-2.5c-2-2.3-3.3-3.8-6.1-6.9c23.7,3,45.9,10.1,68.4,1.4
		c-3-0.8-6.1-1.5-9.1-2.4c-1.1-0.3-1.9-1.4-2.8-2.1c0.8-0.6,1.6-1.8,2.5-1.8c7.1-0.1,14.2-0.3,21.3,0.2c1.2,0.1,2.4,2.9,3.4,4.6
		c0.9,1.5,1.1,4.4,2.1,4.7c5.7,1.3,11.6,2.1,17.4,3c0.2-0.6,0.3-1.2,0.5-1.8c-1.7-0.9-3.6-1.6-5-2.8c-1.5-1.3-2.5-3.2-3.7-4.9
		c1.9-0.2,3.9-0.8,5.7-0.5c14.1,2.9,28.2,6.1,42.2,9.1c0.1-0.5,0.3-1,0.4-1.5c-1.6-0.5-3.3-1-4.9-1.5c2.3-3.4,2.3-3.2,7.5-2
		c3.1,0.7,6.5,0.4,9.7,1c1,0.2,1.7,2.2,2.5,3.4c-0.2,0.8-0.3,1.7-0.5,2.5c8.9-1.5,17.9-2.8,26.6-4.8c2.8-0.7,5.7-3.2,7.3-5.7
		c3.1-4.9,7.1-7.2,12.8-6.8c2.1,0.1,4.2,0.2,6.3,0c5.5-0.4,10.7-0.6,11.1,7.3c16.6-7.3,32.5-3.3,48,0.6c9.5,2.4,17.5-0.9,26-3
		c0.7-0.2,1.3-0.5,2.6-1c0,16.8,0,33.2,0,49.5c0.3,0,0.6,0,0.9,0.1c1-20.7,2-41.4,3.1-63c1,1.3,2.7,2.5,3.2,4.1
		c0.6,1.7,0.2,3.8,0.2,5.7c0,294.4,0,588.8,0,883.2c0,2.2,0,4.5,0,6.7c-0.7,0.1-1.4,0.3-2.1,0.4c-0.6-2.7-1.7-5.4-1.7-8.1
		c-0.2-7.5,0.1-15-0.1-22.5c-0.2-9.1-1.2-18.2-1-27.2c0.3-13,1.6-26,2.1-39c0.1-3.7-1.1-7.5-1.4-11.3c-0.5-5.8-1.1-11.6-1-17.5
		c0.2-11.9,3-24.2,0.8-35.5c-2.7-14-0.7-27.3,0.5-40.9c0.3-3.6,0.1-7.3,0.1-11c0-24.2,0-48.4-0.6-72.6c0,13.3,0.6,26.7-0.1,40
		c-1.1,20.8-3,41.6-4.5,62.4c-0.5,7.4-1.1,14.9-1.2,22.4c-0.9,43.9-1.5,87.7-2.4,131.6c-0.1,6.6-1,13.1-1.5,19.7
		c0.5,0.1,1,0.2,1.5,0.2c0.8-2.9,1.6-5.8,2.4-8.7c0.4,0,0.8,0.1,1.2,0.1c0,8.2,0,16.4,0,24.5c0.4,0,0.8,0,1.2,0.1
		c0.5-4,1.1-8.1,1.6-12.1c0.6,0.1,1.2,0.1,1.8,0.2c0,1.8,0.1,3.7,0,5.5c-1.1,19.7-2.6,39.3-3.3,59c-0.5,14.9,0,29.8-0.2,44.7
		c-0.3,21.7-0.6,43.4-1.2,65.1c-0.4,15.3-1.4,30.6-2.3,45.9c-0.4,6.7-1.8,13.3-2,19.9c-0.2,5.1,0.8,10.3,0.9,15.5
		c0.1,12.7,0.3,25.5,0,38.2c-0.5,16.3-1.6,32.5-2.1,48.8c-0.2,4.4,1,8.7,1,13.1c0.1,20-0.1,40,0.1,60c0.1,8.2,1.2,16.5,1,24.7
		c-0.5,21.3-1.4,42.5-2.3,63.8c-0.7,18.8-1.5,37.5-2.3,56.3c-0.3,6.9-1,13.8-1.1,20.6c-0.2,9.4,0,18.7,0,28.1c0.7,0,1.4,0.1,2.1,0.1
		c1.1-7.7,2.2-15.4,3.2-23.1c0.2,0.1,0.3,0.1,0.5,0.2c0,18.4,0,36.7,0,56.6c-1.7-2.2-2.5-3.2-3.2-4.2c-0.4,0-0.8,0.1-1.2,0.1
		c0,7.4-0.4,14.7,0.1,22c0.7,11,2.5,22,3.1,33.1c1.8,33.2,3.3,66.5,4.1,99.8c0.6-6,1.2-12,1.8-18c0.6,0,1.2,0.1,1.8,0.1
		c-0.7,11.2-1.3,22.3-2.2,33.5c-0.4,5.3-1.5,10.6-1.8,15.9c-0.6,9.6-1,19.1-1.2,28.7c-0.5,17.3-0.7,34.5-1.2,51.8
		c-0.6,19-1.5,37.9-2.3,56.9c-0.1,3-0.7,6.1-1.3,9.1c-0.2,0.8-1.4,1.8-2.3,2.1c-5.2,1.3-10.5,3.5-15.8,3.3
		c-6.9-0.2-13.9-1.7-20.5-3.7c-11-3.3-22-6.1-34.5-4.4c6.6,4.2,14.3,6.4,16.1,15.2c-1.2,0.2-2.5,0.6-3.7,0.5
		c-16.2-0.6-32.5-0.9-48.7-2.1c-15.9-1.2-31.9-2.3-47.5-5.4c-14.4-2.9-27.8,1.5-41.7,1.8c-12.2,0.2-24.4-0.7-36.7-1.1
		c-0.8,0-1.5-0.2-2.3-0.2c-30.9-0.6-61.7-1.4-92.6-1.8c-6.7-0.1-13.4,1.2-19.9,1.8c3.3,1.7,7,3.6,10.7,5.5c-0.1,0.3-0.1,0.7-0.2,1
		c-11.7,0-23.4,0-35.1,0c-0.1-0.2-0.2-0.4-0.2-0.7c5-1.2,10.1-2.5,15.1-3.7c0.1-0.6,0.1-1.3,0.2-1.9c-6.4-2.3-12.6-5.4-19.2-6.8
		c-5.6-1.2-1.4,4.1-2.8,6.1c-12,1.4-23.1,0.7-33.5-7.5c-4-3.2-11-2.5-18.1-3.9c1,4.4,1.5,6.8,2,9.4c-16.6,4.5-33.5,2.6-50.2,2.2
		c-13.3-0.3-26.6-3.2-39.9-4.9c-10.3-1.3-20.7-2.9-31.1-3.7c-13.5-1-27.1-1.4-40.7-2c-0.5,0-1,0.3-2,0.6c1.4,0.8,2.4,1.3,3.7,2
		c-18.1,6-96-0.7-101.1-8.9c2.1-0.9,4.2-1.8,6.3-2.6c-0.1-0.5-0.1-0.9-0.2-1.4c-2.1,0.1-4.2,0-6.2,0.4c-3.5,0.8-7,2.2-10.5,2.8
		c-5.8,0.9-11.7,1.8-17.5,1.8c-6.9-0.1-13.8-1.1-20.7-1.8c-10.2-1.1-20.3-2.7-30.5-3.3c-10.2-0.6-20.4,0.1-30.6-0.2
		c-9.7-0.3-19.4-1-29.1-1.8c-3.2-0.3-6.3-1.3-9.7-0.8c6.1,1.5,12.3,3,18.4,4.5c0.2,0.6,0.4,1.3,0.6,1.9c-2.2,1.1-4.4,3.2-6.6,3.2
		c-17.7,0.3-35.4,0.4-53.1,0.1c-15.5-0.2-31-1.4-46.5-1.5c-7.3,0-14.6,1.5-22.9,2.4c5,2.8,9.3,5,13.2,7.7c1.4,0.9,1.9,3.2,2.7,4.8
		c-2,0.2-4.3,1.2-5.9,0.5c-10-4.6-19.5-10.4-29.7-14.3c-7.5-2.8-15.8-3.3-23.8-4.8c-2.9-0.6-5.9-1.3-8.8-1.5c-2.5-0.2-5.9-2-6.7,2.8
		c-0.1,0.9-2.2,2.2-3.3,2.1c-11.9-0.8-23.9-2-35.8-2.9c-12.6-0.9-25.2-5.1-37.8-0.5c-1.8,0.7-3.4,1.8-4.9,3.4
		c8.2,2.6,17.7-1.1,26,7.1c-4.1,0-6.8,0.2-9.5,0c-4.9-0.4-9.8-1-14.7-1.5c-6.6-0.6-13.2-1.6-19.8-1.7c-5.5,0-10.9,0.8-16.4,1.7
		c-10.1,1.6-20.1,3.4-30.1,5.3c-3.2,0.6-7,1.4-4.5,7c-8.1,0-16,0.7-23.8-0.3c-3.8-0.5-8.1-3.2-10.6-6.1c-7.2-8.6-16.7-10.3-26.8-9.8
		c-3,0.1-5.8,2.6-8.7,3.9c-1.1,0.5-2.9,1.3-3.5,0.9c-11.1-7.6-23.7-5.8-36-6.4c-5.6-0.3-11.2-1.7-16.7-2.8c-5.6-1.2-10.8-3.5-17-2.8
		c-6.5,0.8-13.3-1.3-19.9-1.2c-9.9,0.1-19.8,1.2-29.7,1.4c-2.8,0-5.7-1.6-8.4-2.6c-5.2-2-10.2-4.3-16.7-7
		c3.2,9.4,11.6,8.2,17.5,12.5c-4.7,3.9-8.6,9.1-13.7,11c-4,1.5-9.5-1-14.4-1.8c-1.3-0.2-2.5-0.8-3.8-1.1c-4.5-1-8.5-0.6-13.3,0.9
		c-5.6,1.7-12.6-1.1-19-1.7c-5.5-0.6-11.1-0.9-16.9-0.5c4.4,8.3,14.4,6.7,21.3,13.4c-2.7,0.1-4.3,0.6-5.7,0.2
		c-11.9-3.5-23.8-7.2-35.8-10.6c-5.6-1.6-11.4-2.7-16.8-2.6c-1.6,0.9-3.2,2.4-4.9,2.5c-6.5,0.3-13.1-0.1-19.6,0.2
		c-5.7,0.3-12.2-0.3-16.8,2.3c-12.3,7-21.2,0.1-30.1-6c-9.7-6.7-20.2-5.3-32-5.1c2.3,1.9,3.7,2.9,5.9,4.8c-4.9-0.6-8.8-1-12.7-1.5
		c-12.4-1.7-24.8-3.2-37.1-5.2c-12.1-1.9-24.1-4.6-36.2-6.5c-4.9-0.8-10-0.4-15-0.5c-14.4,0-28.9,0.4-43.3-0.2
		c-8.6-0.4-17.2-2.4-25.8-3.7c-0.9-0.1-1.7-0.2-2.9,0.7c4.4,1.7,8.9,3.4,13.3,5c-0.1,0.6-0.1,1.2-0.2,1.9c-2.2-0.2-4.5,0-6.6-0.6
		c-2.9-0.8-5.6-2.5-8.5-3c-6.9-1-14-2.2-20.9-1.9c-4.8,0.2-8.4-3.6-13.5-2c-5.9,1.9-12.3,2.3-18.3,3.9c-2.1,0.6-3.9,2.7-6.1,4.3
		c-9.1-2.9-9.1-2.9-4.1-8.9c-7.9,1.4-15.9,6.5-21.4-4c-0.3,0.5-0.6,0.9-1,1.4c-0.4,2.3-0.7,4.6-1.1,6.9c-3.1-4.5-3.5-8.7-0.1-11.6
		c6.1-5.1,4.9-11.5,4.5-17.9c-0.2-2.8-0.8-5.7-0.9-8.5c-0.1-38.3,0-76.6,0-114.9c0-2.8,0-5.7,0-8.5c-0.2,0-0.4,0-0.6-0.1
		c-0.2,1.2-0.5,2.4-0.7,3.5c-0.6,0-1.2-0.1-1.7-0.1c-2.4-26.7,5.7-53,3.9-81.2c-1.7,6.5-3.1,11.5-4.4,16.6c-0.4,0-0.7,0-1.1-0.1
		c0.4-6.8,0.5-13.6,1.4-20.3c1.6-11.9,4.4-23.6,5.3-35.5c0.9-12,0.2-24.2,0.2-36.8c-1,1.2-1.7,2.1-2.9,3.4c-1.5-4.1-2.7-7.6-4.2-11
		c-0.4-0.9-1.9-1.3-2.9-2c-0.5,0.4-1,0.9-1.5,1.3c0-1.9,0-3.7,0-5.6c0-31.8,0.1-63.5,0-95.3c-0.1-18.8-1.5-37.6-0.9-56.4
		c0.6-20.2,2.3-40.4,4.4-60.6c3.2-31.7,4.1-63.5,3.3-95.4c-0.2-8.5-2.3-17-3-25.5c-0.3-3.7,0.7-7.6,1-11.4c0.7-8.2,1.8-16.3,2-24.5
		c0.6-18.2,0.8-36.5,1.2-54.7c0.3-10.7,0.7-21.4,1.2-32.2c0.1-2.4,0.7-4.8-0.2-7.5c-0.6,5-1.6,9.9-1.7,14.9
		c-0.2,16.9,0,33.9-0.2,50.8c-0.1,9.4-0.7,18.8-1.2,28.1c-0.1,1.6-0.9,3.2-1.7,5.8c-1.1-12.9,0.2-96.8,4.9-128.6
		c-1.5,8-2.9,15.9-4.4,23.9c-0.3,0.1-0.7,0.1-1,0.2c-0.5-1.6-1.4-3.1-1.4-4.7c-0.5-21.3-1.2-42.6-1-63.9c0.1-7,3.1-14,4.3-21.1
		c1.4-8.4,3.1-16.9,3.4-25.5c0.8-21.7,0.9-43.4,1.3-65.1c0.3-15.7,0.9-31.5,1.1-47.2c0-5-1-10-2.2-14.9c-0.1,19.6,2.5,39.3-3.3,58.7
		c-0.1-1.6-0.2-3.3-0.2-4.9c0-16-0.1-31.9,0-47.9c0.3-24.4,0.5-48.8,1.3-73.2c0.2-7.1,2.2-14.2,3-21.3c0.2-2.3-1.3-4.7-1.4-7.1
		c-0.3-4.6-0.3-9.2-0.4-13.7c-0.2-12.8,0-25.6-0.7-38.3c-0.5-9.3-2.7-18.6-2.8-27.9c-0.1-22.1,0.2-44.2,1.1-66.2
		c0.9-20,2.9-40,4.4-60c0.2-3.1,0-6.1-0.6-9.3c-1,8.2-1.9,16.4-3,26.1c0-21.5,0-41.5,0-62.5c2.1,1.4,3,2.1,4.1,2.8
		c0.3-0.5,0.7-0.8,0.7-1.1c-0.7-8.4-1.7-16.7-2-25.1c-0.6-16.1-0.8-32.2-1.2-48.3c-0.7-28.4-1.5-56.8-2.3-85.1
		c-0.3-12.7-0.8-25.3-1.1-38c-0.5-22.5-1-44.9-1.1-67.4c0-15.9,0.5-31.8,1.1-47.8c0.6-15.9,1.4-31.7,2.3-47.6
		c0.6-11.3,1.9-22.5,2.1-33.8c0.1-6.1-1.2-12.3-1.8-18.5c-0.7,0-1.3-0.1-2-0.1c-1.9,13.4-3.8,26.8-5.8,40.2c-0.9,0-1.7-0.1-2.6-0.1
		c-0.1-8.5-0.5-17-0.4-25.5c0.1-8.8,0.8-17.6,1.2-26.4c0.4-7.8,0.9-15.7,1.1-23.5c0.1-4.7,3.2-4,6-3.8c6.6,0.5,13.2,1.5,19.8,1.7
		c9.4,0.3,18.9,0.3,28.3,0c4.2-0.1,8.3-1.3,12.4-2c0.3,1.4,0.5,1.8,0.4,2.1c-4.2,8.6-3.8,8.4,6.1,10.9c9.6,2.4,18.6-1.5,27.8-1.5
		c14.3,0,29-1,42.8,2.1c12.9,2.9,25.6,6.3,38.9,6.2c11.2,0,22.3-0.4,33.5,0.1c16,0.8,32,1.7,47.8,5c8.6,1.8,17.6,2.4,25.4-3.9
		c4.1-3.3,8.9-4,14-1.8c1.8,0.8,4.2,0.3,6.3,0.5c6.4,0.6,12.8,1.2,19.2,1.8c1.6,0.1,3.2,0,4.8,0c0.1-0.5,0.2-1,0.3-1.5
		c-6.2-2.4-12.3-4.7-18.5-7.1c0-0.7,0-1.3,0-2c1.6,0,3.3-0.3,4.8,0.1c3.8,1,7.4,3.1,11.2,3.4c6.9,0.6,13.9-0.3,20.8,0.3
		c8.2,0.7,16.4,2.2,24.6,3.2c6.2,0.8,12.5,1.6,18.8,1.6c1.7,0,3.9-2.5,4.9-4.3c3.1-5.7,7-7.4,13.3-5.6c2.3,0.7,4.8,1.2,7.2,1.4
		c12.6,1.3,25.2,2.5,37.7,3.8c-2.4,3.4-4.6,6.6-6.8,9.9c-0.5-0.3,0.2,0.5,0.9,0.5c9.5-0.5,19-1.3,28.5-1.5c17-0.4,34.2-4.8,50.6,3.6
		c0.1-0.5,0.3-1,0.4-1.5c-1.8-0.7-3.6-1.3-5.4-2c-1.9-0.8-3.7-1.6-5.8-2.5c16.8-6.7,76.4-6.4,86.5,0.2c-3.6,0.7-6.8,1.3-10.1,1.9
		c0.1,0.5,0.2,1,0.3,1.6c7.6-0.9,15.1-1.9,22.7-2.8c0.9-0.1,1.9-0.3,2.9-0.2c10.8,1.1,21.5,2.6,32.3,3.2c9.8,0.5,19.6,0.2,29.4,0.1
		c0.8,0,1.5-1,2.8-1.9c-3.1-1.8-5.7-3.4-8.4-4.9c0.2-0.6,0.4-1.2,0.6-1.8c4.8,0.8,9.7,1.7,14.5,2.5c1.5,0.3,3,0.8,4.4,0.9
		c22.4,0.7,44.8,1.8,67.1,1.7c9.7,0,18.7,2,27.8,4.4c2,0.5,4.1,1.1,6.2,1c7.6-0.4,15.2-1,22.8-1.7c1.3-0.1,2.4-1.2,5-2.5
		c-11.3-1-21.1-1.9-30.8-2.7c0-0.3-0.1-0.6-0.1-0.9c1.6-0.6,3.8-0.8,4.8-1.9c1.6-1.8,2.4-4.4,3.5-6.6c-1.8-0.8-3.6-2.2-5.5-2.4
		c-4.2-0.4-8.5,0.1-12.7-0.2c-2.3-0.2-4.4-1.4-6.5-2.8c9.9-2.8,19.8-5.1,29.6-1.1c2.6,1.1,5.1,3.9,6.3,6.5c2.3,5.1,5.5,7.9,11.4,7.7
		c5.3-0.2,10.6,0,15.9,0c0.2-0.5,0.3-1,0.5-1.5c-1.5-0.9-3.1-1.8-5.6-3.3c9.1-5.9,14.3,4.4,21.7,3.5c-2.2-3.1-4.4-6.3-6.7-9.5
		c0.3-0.7,0.6-1.4,0.9-2c8.4,0.8,16.8,1.7,26.2,2.6c-2.3,3.4-3.8,5.6-5.4,7.9C968.3,176.3,968.6,176.6,969,176.9z M1152.1,1482.6
		c7.5,15.1,14.7,29.9,22.1,44.6c2.2,4.4,5.2,8.5,7.5,12.8c6.3,12,12.3,24.2,18.6,36.2c1,2,2.5,3.9,4.1,5.5
		c4.8,4.7,11.7,4.5,15.7-0.8c2.2-3,4.2-6.9,4.4-10.4c0.5-15.5,0.4-31,0.2-46.5c-0.1-4.3-1.8-8.7-1.7-13c0.2-8.4,1.3-16.8,1.8-25.2
		c0.5-9.4,1-18.8,1.2-28.2c0.1-7.9,3.6-15.8-0.4-24c-1.3-2.6,0.3-6.7,0.7-10.2c0.2-1.5,0.8-3,0.8-4.5c0.5-25.4,1.5-50.8,1.3-76.2
		c-0.1-15-0.1-29.9,4.6-44.4c0.8-2.5,1.5-5.6,0.7-7.9c-2.9-8.4-0.6-16.2,1.6-24.2c0.9-3.3,1.3-6.8,1.2-10.3
		c-0.4-12.1-2.3-24.1-0.1-36.3c1.4-7.7,0.5-15.7,0.9-23.6c0.4-7.3,2.1-14.7,1.4-21.8c-1-10.6-1.6-20.9,1.9-31.3
		c1.8-5.1,0.5-10.2-2.7-14.7c-2.9-4.1-7.3-6.3-11.5-4.5c-4,1.7-9.3,5.4-9.9,9c-2,12.2-2.5,24.8-3.1,37.2c-0.7,13,0,26.1-1.4,39
		c-1.7,14.9-3.5,29.7-2,44.8c0.4,4.2-1,8.6-1.5,12.9c-0.8,5.8-2.1,11.6-2.3,17.4c-0.4,10,0.7,20.1-0.3,30
		c-0.8,8.1-2.4,15.9-2.1,24.4c0.6,17.2-1,34.4-1.3,51.6c-0.2,7.8,1.1,15.7,0.8,23.5c-1.1,28.4-2.4,56.8-3.8,85.1
		c-0.3,5.9-1,11.7-1.5,17c-5.1-8.1-10.3-16.1-15.3-24.2c-2-3.2-4.8-6.7-4.9-10.2c-0.3-11.9-5.4-22.3-8.9-33.2
		c-6.6-20.6-13.4-41.2-20.3-61.7c-4.8-14.3-10.5-28.4-15-42.8c-5-15.9-9.2-32-13.7-48.1c-1.4-5-2.8-10-4.2-14.9
		c-0.9-3-2.4-5.9-2.9-9c-1.3-8.8,1.2-18.1-6.1-26.1c-2.9-3.2-2.2-9.4-3.7-14.1c-2.7-8.3-7.7-16.4-8.2-24.8
		c-1.2-19.2-12.3-34-19.9-50.3c-4.4-9.4-9.8-18.1-12.2-28.4c-3.4-14.7-9.5-19.3-24.4-21.1c-7.2-0.8-11.7,2.8-12,9.7
		c0,1,0.2,2-0.2,2.9c-3.4,7.3-1.3,15-1.4,22.5c-0.1,11.5,0.9,22.9,1.3,34.4c0.2,4.2-0.3,8.5,0.1,12.6c2,20.3,4.4,40.5,1.5,61
		c-0.7,5.1-0.6,10.3-0.5,15.5c0.5,14.2,1.2,28.3,1.7,42.5c0.1,1.3-0.4,2.7-0.5,4c-0.5,8.2-1.1,16.4-1.3,24.7
		c-0.2,6.5,0.4,13.1,0.3,19.6c-0.2,9.7-0.8,19.5-1.1,29.2c-0.1,4.2,0.3,8.5,0.1,12.7c-0.6,11.1-1.9,22.2-2,33.3
		c-0.1,17.8,0.8,35.6,1,53.5c0.2,18.4-0.1,36.9,0.2,55.3c0.2,9.9,1.1,19.9,2,29.8c0.7,7.2,5.6,11.3,12.8,11.5
		c9.3,0.3,15.3-7.2,14.3-17.5c-0.7-7.1-1.1-14.2-1.5-21.2c-0.8-14.1-1.5-28.1-2.2-42.2c-0.2-4.2-0.2-8.4-0.3-12.6
		c-0.2-5.9-0.4-11.8-0.5-17.7c-0.2-6.7-0.3-13.3-0.4-20c0-3,0.8-6.3,0-9.1c-3.9-13.5-2.4-27,0.5-40.3c1.5-6.9,2.6-13.3,1.1-20.4
		c-1.2-5.7-0.5-11.8-0.3-17.7c0.2-4,1.4-7.9,1.4-11.9c0.1-11.7-0.4-23.4,0-35.1c0.4-11.6-2.1-23-0.2-34.7c1.3-8.1-0.7-16.8-0.5-25.2
		c0.2-11.1,1.8-22.2,1.6-33.3c-0.2-11.2-2.1-22.4-2.7-33.7c-0.3-6.5,0.5-13.1,0.8-19.6c0.7-0.1,1.4-0.3,2-0.4
		c2.6,4.8,5.7,9.4,7.5,14.4c3.4,9.3,7.1,18.7,8.8,28.4c1,5.7,4.1,10,6,15.1c4,10.6,7.4,21.4,10.5,32.2c3.7,13.1,6.9,26.3,10.2,39.5
		c0.2,0.9,0.2,1.9,0.4,2.8c1.7,7.6,2.6,15.5,5.3,22.8c2.2,5.9,1.4,12.5,6.1,17.9c2.4,2.7,1.7,8,2.8,12.1c2,7.8,4.3,15.5,6.5,23.2
		c1.6,5.7,2.2,12.2,5.4,16.9c4.6,6.6,6.1,13.8,8.3,21.1c2,6.3,3.7,13.1,7.2,18.5c2.6,4,4,7.9,4.7,12.3c0.6,3.8,1.2,7.6,2.3,11.2
		c2.1,6.7,4.6,13.3,7.2,20.6c0.5,0.1,2.1,0.5,4.5,1C1155.5,1480.1,1154.2,1481.1,1152.1,1482.6z M634.4,753.3c2.8-1.1,4.4-1.8,6-2.2
		c5.3-1.5,10.7-2.7,16-4.5c8.3-2.8,13-9.5,18.9-15.5c9.4-9.5,14.5-20.7,17.6-32.7c3.7-14.3,5-29.2,6.8-44c0.5-4.3-0.8-8.7-1.2-13.1
		c-2.2-25-10.6-47.2-28.6-65.2c-3-3-5.3-7.1-8.9-8.8c-11.6-5.5-23.5-10.3-36.6-11.4c-12.2-1-24.3-2.8-36.5-4
		c-12.7-1.2-20.9,5-23.6,17.6c-0.4,1.7-0.5,3.4-0.6,5.1c-0.4,9.3-1,18.7-1,28c-0.1,18.5-0.1,37,0.1,55.6c0.2,15.3,1.2,30.7,0.8,46
		c-0.2,8.5-0.6,16.7,3.1,24.7c1.1,2.4,0.2,5.6,0.1,8.5c-0.2,6.9-0.7,13.7-0.8,20.6c0,2.8,0.8,5.7,0.7,8.5
		c-0.5,15.4-1.7,30.7-1.5,46.1c0.2,18.9,1.6,37.8,2,56.7c0.3,16.1,0,32.3-0.1,48.4c0,4.8-0.8,9.6-0.8,14.4c0.2,18.4,1,36.8,0.9,55.2
		c0,9-2,18-2,27c0,10.3,4.4,18.6,18.6,16c11.9-2.1,24.1-3,36.1-4.4c2.3-0.3,4.6-0.3,6.9-0.8c11.1-2.3,22.2-4.4,33.2-7.1
		c5.1-1.3,10.2-3.2,14.8-5.7c8.9-4.9,17.5-10.5,26.1-15.9c2.2-1.4,4.9-2.8,5.9-4.9c3.7-8.1,7.4-16.3,9.8-24.9
		c2.2-7.8,3.7-16.1,3.8-24.3c0.3-18.1,3.7-36.2-2.1-54.3c-9.9-31-15.2-63.6-33.8-91.4c-7.1-10.6-13.4-21.4-25.2-27.8
		C651.1,764.5,643.5,759,634.4,753.3z M565.1,1384.4c3.9-2.5,7.3-4.5,10.6-6.7c5.4-3.7,10.8-7.3,15.9-11.3c3.4-2.7,6.5-5.8,9.5-8.9
		c9.4-10.2,10.9-23.8,15.4-36.1c2.6-7.1,3.9-14.5,1.5-22.1c-0.4-1.3,0.3-3,0.4-4.5c1.2-11.7,3.2-23.4,3.5-35.2
		c0.4-13.7-0.8-27.5-0.9-41.3c-0.2-20.2-4.1-39.3-15.2-56.5c-5.4-8.3-11.2-16.4-18-23.8c-4-4.3-6.7-9.7-13.8-9.3
		c-1.5,0.1-2.9-1.8-4.5-2.3c-7-2.4-11.2-9.4-19.4-10.5c-11.9-1.5-23.5-5.4-35.5-6.9c-6.1-0.8-13,0.5-18.9,2.7
		c-3.1,1.1-6.4,6.2-6.5,9.6c-0.3,8.4,0.5,16.9,2.1,25.2c2.5,13.2,2,26.3,1.3,39.6c-0.5,11,0.6,22.1,1.2,33.2
		c0.6,11.4,1.5,22.9,2,34.3c0.2,4.7-0.3,9.5-0.2,14.2c0.3,9.4,0.8,18.7,1.2,28c0.1,2.5-0.1,5,0.1,7.5c0.6,7.2,1.7,14.3,2.1,21.5
		c0.8,13,1.3,26.1,1.9,39.1c0.2,4.4,0.8,8.9,0.3,13.3c-1.3,12-0.4,23.7,0.5,35.8c1.7,23,1.2,46.1,1.4,69.2c0.1,13.3,0.2,26.7-0.1,40
		c-0.4,13.6-0.4,27.3-2.2,40.7c-1.8,13,4.4,22.1,17.6,22.1c6.5,0,12.9-1.4,19.4-1.2c7.2,0.3,14.3,1.9,21.5,2.6
		c28.8,2.6,50.4-6.3,64.3-30.9c7-12.3,10.2-25.6,11.4-39.6c1.9-22.1-2.5-43.7-4.7-65.4c-0.5-4.9-1.7-10.5-4.5-14.4
		c-7.8-11-16.6-21.4-25.2-31.8c-1.8-2.1-4.3-3.8-6.8-5.1C584.4,1394.1,575,1389.4,565.1,1384.4z M1007.8,821.2
		c9.3,0,17.8-0.1,26.2,0c10.9,0.2,21.8,0.4,32.7,1c13.1,0.7,26.4-1.9,39.4,2.6c3.8,1.3,5.3,2.7,5,6.7c-1.4,16.9-2.5,33.8-3.8,50.6
		c-0.2,2.5-1.8,5-1.6,7.4c1.1,15.9,2.8,31.7,3.7,47.6c0.3,4.8-1.9,9.7-1.8,14.5c0.4,19.5,1.3,39.1,2,58.6c0,1,0,1.9,0.1,2.9
		c0.7,8.9,7.8,13.9,16.1,11.6c2.4-0.7,5-1,7.1-2.2c1.7-1,3.9-3.2,3.8-4.6c-0.5-6.3,3.9-13.3-2.2-19c-0.3-0.3,0-1.1,0-1.6
		c0.8-7.2,1.6-14.4,2.3-21.6c0.2-1.9,0.1-3.9-0.3-5.7c-2.8-12.7-3.5-25.3-0.6-38.2c1.3-5.7,0.7-11.9,0.1-17.7
		c-0.9-9-3.3-17.8-0.3-26.8c0.3-1,0.2-2.3-0.1-3.4c-3.5-13.9-2-27.7,1-41.4c1.4-6.6,2.1-12.8-1.2-19c-0.9-1.7-0.7-4.1-0.4-6
		c1.5-9.6,3.3-19.2,4.6-28.8c0.8-5.5,1.2-11.2,1.2-16.8c-0.1-9.8-1.3-19.6-1.1-29.4c0.6-26.7,2.2-53.3,2.5-80
		c0.2-14.4-2.3-28.7-2.1-43.1c0.2-17.1,2.1-34.1,3-51.2c0.4-8.4-6.5-15.1-14.8-14.9c-6.4,0.1-11.5,6.8-11.8,14.5
		c-0.3,7.8-1.2,15.6-1.8,23.4c-1.2,15.5-2.9,31-3.3,46.5c-0.3,14.3,0.9,28.7,1.7,43.1c0.4,6.9,1.3,13.8,1.9,20.6
		c0.4,3.8,1.2,7.7,1,11.5c-0.7,10.4-2.4,20.7-2.8,31c-0.7,14.8-0.8,29.6-0.8,44.4c0,4.5-1.3,6.2-5.8,6c-10.6-0.4-21.3-0.6-31.9-0.8
		c-22-0.5-44.1-0.8-66.1-1.5c-1.3,0-3.5-2.2-3.7-3.5c-0.7-6.9-0.8-13.8-1.3-20.7c-0.2-2-1.1-3.9-1.5-5.9c-0.7-3.7-1.9-7.4-1.6-11.1
		c0.4-6.2,2.5-12.2,2.5-18.4c0-5.6-2.7-11.2-2.7-16.8c0.1-14.9,1.1-29.8,1.7-44.7c0-0.9-0.3-1.8-0.5-2.7c-0.6-4.1-1.5-8.3-1.6-12.4
		c-0.1-6.3,0.6-12.6,0.8-18.9c0.4-8.4,0.7-16.8,1-25.1c0.2-5.7,0.5-11.4,0.4-17.1c0-4.3-1.7-9.1-0.4-12.9c3.4-10,1.2-18.8-3.6-28
		c-4,0.5-8.2,1.1-12.3,1.7c-5.4,0.7-13.1,8.8-13,14.1c0.1,6.5-0.6,13.4,1.3,19.4c5.9,18.9-1.6,37.7,0.3,56.5
		c0.8,8.5-0.1,17.2-0.1,25.8c0.1,10.5,0.6,21.1,0.5,31.6c-0.1,10.8-1.4,21.5-1,32.2c0.6,14.9,2.6,29.8,3.4,44.7
		c0.7,13.8,0.7,27.6,0.8,41.4c0.1,13,0,26-0.1,39c-0.1,19.4-0.4,38.8-0.4,58.1c0,9,0.5,18.1,0.6,27.1c0.1,3.8-0.6,7.6-0.2,11.3
		c1.8,16.4,3,32.7-1.9,48.8c-0.3,0.9,0.2,2.2,0.7,3.2c1.6,3.7,3.3,7.4,4.9,11.1c5,11.7,14.9,13,22.3,2.7c1.6-2.3,2.8-5.5,2.8-8.3
		c-0.1-6.5-1.2-13-1.8-19.5c-0.4-3.8-0.9-7.6-0.7-11.4c0.2-4.7,1.3-9.4,1.3-14.2c0-8.7-0.7-17.5-0.7-26.2c0-5.9,0.8-11.9,0.7-17.8
		c-0.3-10.1-1.5-20.2-1.6-30.3c-0.2-15,0-29.9,0.7-44.9C1004.9,840.4,1006.6,831.2,1007.8,821.2z M1466.6,875.2c0-0.2,0-0.4,0.1-0.6
		c4.4,0,8.8-0.1,13.2,0c3.7,0.1,5.8,2.1,5.1,6c-2.6,16.4,1.5,32.1,4.3,48c3.5,20,9.3,39.6,9.3,60.3c0,9.5,3.3,19,5.4,28.5
		c0.5,2.1,1.9,4.3,3.4,5.9c3.6,3.9,8.3,5.7,13.6,4.1c5.1-1.5,7.1-5.8,7.4-10.6c0.3-4.2-0.3-8.4-0.6-12.6c-0.2-2.7-0.8-5.3-1.1-8
		c-1.2-9.8-2-19.7-3.5-29.5c-1.3-8.5-3.5-16.9-5-25.4c-1.8-9.7-3.2-19.4-4.8-29.1c-0.2-1.5-0.5-3-0.7-4.6
		c-1.6-12.7-3.1-25.5-4.7-38.2c-0.1-1.1-0.4-2.3-0.2-3.4c2.2-12.9,2.3-25.5-2.9-37.9c-0.6-1.4-0.4-3-0.5-4.5c-1.2-18-1.8-36-3.8-54
		c-2.2-20.3-10.8-39.5-9.9-60.3c0.1-1.5-0.7-3-1-4.5c-1.5-7.3-3.7-14.6-4.4-22c-1.1-12-1.5-24-1.6-36c-0.2-14.7,0.7-29.4,0.2-44
		c-0.2-7.1-4.6-14.8-2.9-21.2c1.6-6.2,0.2-11-1-16.1c-2.2-9.2-9.3-14.1-18.8-13.7c-7.3,0.3-14.6,0.6-21.8,1.2
		c-5.5,0.5-11.2,0.8-16.4,2.5c-6.9,2.3-13.2,6.2-20,8.6c-5.2,1.8-7.5,5.2-7.9,10.1c-0.3,3.4,0.3,6.9,0,10.4
		c-0.2,2.8-1.1,5.6-1.8,8.3c-0.8,2.9-2.2,5.6-2.8,8.5c-0.6,3.2-0.6,6.5-0.8,9.7c-0.4,5.9-0.6,11.9-1.1,17.8c-0.6,7-1,14.1-2.3,21
		c-2.1,10.7-6.2,21.2-6.9,31.9c-1.1,15.9-2.6,31.6-5.1,47.4c-2.4,15.5-3.9,31.1-5.8,46.7c-0.2,1.3-0.8,2.6-1,3.9
		c-1.5,7.6-3.2,15.3-4.3,23c-1,7.4-1.2,14.8-2,22.3c-0.8,7.6-1.7,15.2-2.7,22.8c-0.9,6.2-2.1,12.3-3.1,18.5
		c-0.8,4.8-1.7,9.7-2.5,14.5c-0.3,1.8-0.2,3.8-0.6,5.6c-0.7,2.8-1.9,5.5-2.4,8.4c-0.6,3.4-0.5,6.9-0.9,10.3
		c-1.1,9.8-2.4,19.6-3.5,29.4c-0.7,6-0.4,12.3-1.8,18.1c-2.6,10.7-6.1,21-5.8,32.3c0.3,9.5-1.6,19-1.7,28.5
		c0,8.5,5.1,13.1,12.4,12.6c7.5-0.6,11.8-7.6,12.5-15.3c1.6-18.6,3.8-37.3,7.2-55.6c1.1-5.7,2.2-11,2-16.8c-0.1-4.3,0.3-8.7,1-13
		c2.4-14.9,5.4-29.8,7.3-44.8c1.3-10.6,3.1-12.5,13.8-10c0.6,0.1,1.1,0.4,1.6,0.6c12,3.1,24.1,5,36.3,0.8c1.9-0.7,4.2-0.5,6.2-0.3
		C1446.6,872.7,1456.6,874,1466.6,875.2z M875.9,875.3c0-0.2,0-0.4,0.1-0.6c4.2,0,8.4-0.1,12.7,0c3.7,0.1,5.9,1.9,5.3,5.8
		c-2.6,16.6,1.5,32.5,4.3,48.6c3.5,19.8,9.2,39.2,9.2,59.7c0,9.5,3.4,19,5.4,28.5c0.3,1.6,1.3,3.2,2.3,4.6c3.1,4.5,9.3,7.1,14.1,5.8
		c5.7-1.6,7.9-6,8.2-11.3c0.2-4.2-0.4-8.4-0.8-12.6c-0.2-2.7-0.7-5.3-1-8c-0.8-8.2-1.2-16.4-2.4-24.5c-1.8-11.5-4.3-23-6.3-34.5
		c-1.2-6.9-2.1-13.8-3.3-20.7c-0.5-2.6-1.7-5.1-2-7.7c-1.7-13.1-3.3-26.2-4.9-39.3c-0.2-1.3,0-2.7,0-4c-0.2-10.1-0.2-20.2-0.7-30.3
		c-0.2-3.1-2.5-6.1-2.7-9.3c-1.4-18-2.2-36-3.8-54c-0.8-8.6-1.4-17.5-4.5-25.4c-3.8-9.7-4.7-19.2-4.7-29.2c0-4.9-1.6-9.8-2.6-14.7
		c-0.8-3.9-2.3-7.8-2.8-11.7c-2.4-16.5-2.1-33-1.4-49.7c0.7-15.4-1.1-30.9-2.1-46.4c-0.3-4.5-3.8-10.3-2.1-13c4-6,0.6-10.8-0.5-15.7
		c-2-9.3-9.1-14.2-18.6-13.9c-7.5,0.2-15,0.6-22.4,1.2c-5.5,0.5-11.1,1-16.3,2.7c-6.7,2.2-12.8,6.1-19.5,8.4
		c-5.5,1.9-7.7,5.4-8.1,10.6c-0.2,3.2,0.3,6.6,0,9.8c-0.2,2.8-0.2,6.6-1.9,8.1c-3.2,2.8-2.8,5.9-2.8,9.3c0,3.1-0.4,6.1-0.6,9.2
		c-0.4,5.9-0.6,11.9-1.1,17.8c-0.6,7.2-1,14.5-2.4,21.6c-2.9,14.8-8,29.2-7.6,44.6c0.1,4.8,0,9.6-0.6,14.3c-2.9,20.3-6,40.5-9,60.7
		c-0.5,3-0.2,6.3-1.2,9.1c-3.4,8.7-5,17.6-4.2,26.9c0.1,1.5-0.1,3.1-0.2,4.6c-0.9,8.2-1.9,16.3-2.9,24.5c-1.1,8.9-1.2,18-3.5,26.6
		c-1.9,7.2-5.6,13.9-3.8,21.7c0.2,0.7,0,1.6-0.4,2.2c-5.5,8.1-2.5,17.8-4.5,26.6c-2,9-2.1,18.5-3.2,27.7c-0.7,5.8-1.8,11.6-2.8,17.4
		c-1.4,8.4-5.6,16.3-4,25.1c0.2,0.9-0.1,1.9-0.2,2.9c-0.6,9.5-1.8,19-1.8,28.5c0,8.2,5.1,12.6,12.2,12.2c7.3-0.4,13.3-7.2,12.5-14.6
		c-2.2-19.3,5.4-37.4,7-56.3c0.3-3.7,3-7.5,2.5-10.9c-2.1-15.5,4.4-29.8,5.5-44.8c0.5-6.5,2.7-12.9,2.7-19.3
		c0.1-11.3,0-10.1,11.9-9.9c1.3,0,2.6,0.6,3.9,1c11.9,3,23.7,4.8,35.8,0.7c2.1-0.7,4.5-0.5,6.8-0.3
		C855.8,872.8,865.9,874,875.9,875.3z M860.7,1432.1c2.1-0.3,2.7-0.6,3.2-0.5c21.4,4.7,42.9-1.1,64.3,0.6c1.3,0.1,2.7-0.5,4-0.4
		c6.4,0.7,12.9,1.4,19.2,2.7c1.4,0.3,3.2,2.7,3.3,4.3c1.5,19,2.8,38.1,4,57.1c0.7,10.7,1.3,21.4,1.9,32.1c0.5,9.3,1,18.6,1.6,27.8
		c0.3,5.9,0.7,11.9,1.2,17.8c0.5,6,5.9,11.9,10.7,12c4.9,0.1,13-6.1,13.2-10.7c0.5-13.8,0.9-27.6,0.7-41.4
		c-0.1-8.4-1.2-16.7-2.2-25.1c-0.6-5.3-1.9-10.6-2.9-15.8c-0.4-2.3-1.1-4.5-1.2-6.8c-0.9-20.2-1.7-40.3-2.5-60.5
		c-0.1-1.5-0.1-3.1-0.3-4.6c-1.7-12.1-4.2-23.9-3.5-36.5c0.9-17.1-1.2-34.4-2.1-51.6c-0.5-10.2-0.8-20.4-1.6-30.5
		c-1-12.5-3.3-25-3.4-37.6c0-7.6,0.5-14.9-0.4-22.7c-1.9-16.4-1.9-33-2.7-49.5c-0.2-4.2-0.1-8.5-0.5-12.6
		c-1.7-15.5-3.7-30.9-5.2-46.3c-0.9-9-7.3-18.5-16.1-20.4c-7.6-1.7-15.6-1.9-23.4-2.5c-11.5-0.9-23.3,2.5-34.6-2.5
		c-1.4-0.6-4.2-0.9-4.8-0.2c-5.8,7.4-14.6,13-15.3,23.7c-0.6,10.4-1,20.9-2,31.3c-2.5,27.6-5.9,55.2-7.5,82.9
		c-1.1,18.7-2.2,37.2-5.6,55.6c-1,5.4-0.6,11-1.2,16.4c-0.5,4.6-1.9,9.1-2.3,13.8c-0.8,8.6-0.9,17.3-1.8,25.8
		c-2,18.7-4.5,37.3-6.5,56c-1.1,10.1-1.2,20.3-2.5,30.4c-3.3,26.3-7.1,52.6-6.5,79.2c0,1.7,0,3.5-0.3,5.2
		c-2.1,9.7-4.7,19.3-6.1,29.1c-0.6,3.9,0.6,8.5,2.3,12.1c2.5,5.5,10,7.8,16.1,5.9c5.7-1.8,6.3-6.3,6.5-11.5c0.2-5.7,1.1-11.4,2-17.1
		c0.4-2.5,2.2-4.9,2.4-7.4c0.6-7.7,0.7-15.5,1.3-23.3c1.1-14.1,2.4-28.2,3.7-42.3c0.4-4.9,0.7-9.9,1.3-14.8c0.6-5,1.7-9.9,2.2-14.9
		C861,1440.2,860.7,1436.2,860.7,1432.1z M1577.7,1204.3c0-9.5,0.6-17-0.1-24.4c-1.4-15.5-3.6-30.9-5.2-46.3
		c-0.9-9.4-7.4-18.6-16.6-20.6c-7.4-1.6-15.2-1.9-22.8-2.4c-11.7-0.8-23.7,2.5-35.1-2.6c-1.3-0.6-3.7-0.8-4.3-0.1
		c-5.8,7.4-14.6,13-15.3,23.7c-0.7,10.5-0.9,21-2,31.4c-3.4,30.6-8,61.2-7.9,92.1c0,16.4-3.7,32.1-5.7,48c-0.5,3.7,0.1,7.6-0.4,11.3
		c-0.7,5.8-2.1,11.5-2.6,17.2c-0.8,8.8-1,17.6-1.9,26.4c-2,18.5-4.4,36.9-6.4,55.4c-1.2,11-1.9,22.1-3,33.2
		c-1.6,16.4-4.6,32.8-4.9,49.3c-0.3,20.2-4.1,39.8-7.3,59.6c-0.6,3.7-0.3,7.7,0.7,11.3c1.9,6.7,8.8,10.1,16.2,8.7
		c5.6-1,7.3-4.1,7.7-12.2c0.2-5.5,1.1-11,2-16.5c0.4-2.5,2.3-4.9,2.5-7.4c0.6-7.5,0.6-15.2,1.1-22.7c1.1-14.3,2.5-28.6,3.7-42.9
		c0.4-4.8-0.7-10.2,1.3-14.2c2.9-6,2.9-11.7,2-17.8c-0.3-2.2,0.3-4.5,0.5-6.8c0.2-2.9,1.7-4,4.6-3.4c21.6,4.4,43.2-1.2,64.8,0.3
		c0.4,0,0.8-0.2,1.1-0.1c6.6,0.8,13.3,1.3,19.8,2.6c1.5,0.3,3.4,3.1,3.5,4.8c0.7,11.3,0.9,22.6,1.3,34c0.2,4.6-0.6,9.5,0.8,13.8
		c3.6,11.7,4,23.6,3.9,35.7c0,3.1,0.4,6.1,0.6,9.2c0.4,6,0.9,12.1,1.2,18.1c0.4,8.4,0.4,16.9,1.1,25.2c0.4,5.1,6.1,10.2,10.3,10.4
		c4.8,0.2,13.1-6,13.3-10.5c0.5-14,0.8-28,0.6-42c-0.1-8-1.2-16-2.2-23.9c-0.7-5.7-2-11.3-3.1-17c-0.4-2.3-1-4.5-1.1-6.8
		c-0.9-20.3-1.7-40.7-2.5-61.1c-0.1-1.3-0.1-2.7-0.3-4c-1.7-11.9-4-23.5-3.5-35.9c0.8-17.9-1.3-36-2.2-53.9
		c-0.5-9.6-0.9-19.2-1.7-28.7c-1-12.7-3.1-25.4-3.2-38.2c0-7,0.7-13.8-0.4-20.9C1578.8,1229.3,1578.6,1215.8,1577.7,1204.3z
		 M1203.8,583.3c1.2,4.9,4.4,4.9,8.2,4.4c3.4-0.5,6.9-0.9,10.3-0.6c1.8,0.2,4.5,1.7,4.8,3c1.2,5.4,2.1,10.9,2.1,16.4
		c-0.1,15-0.6,29.9-1.1,44.9c-0.3,8.1-1,16.2-1.4,24.4c-0.4,6.7-1.2,13.4-1,20.1c0.3,13.6,1.5,27.2,1.7,40.8
		c0.2,10.3,0.5,20.8-0.9,30.9c-1.6,11.2,3.4,21.9,1,33.3c-1.6,7.7-0.1,16.1,0.5,24.1c0.5,7.2,1.7,14.3,2.4,20.2
		c-1.3,6.5-3.6,12.3-3.4,18c0.9,21.9,3,43.8,4,65.8c0.8,17.7,1,35.4,1.1,53.1c0,4.4-1.3,8.7-2.1,13.5c-6-3-19.2-4.1-26.5-2.6
		c-6.7,1.4-11.4,5.4-14.1,11.6c-2.7,6.1,2.7,16,9.3,17.2c5.5,1,11,1.4,16.4,2.6c5.1,1.2,10,2.6,15-0.4c0.8-0.5,2.7-0.5,3.3,0
		c4.7,4.7,10.2,2.1,15.5,2.1c10.3,0.1,20.6,1,30.9,1.7c6.9,0.5,13.2-0.3,17.6-6.2c3.9-5.1,3.7-10.9,0.8-16.3
		c-3.5-6.5-9.4-8.3-16.5-8.1c-6.8,0.1-13.7-0.6-20.6-1.2c-4.6-0.4-9.3-0.9-4-7.2c0.9-1.1,0.5-3.3,0.4-5.1c-0.5-19.5-1-39-1.5-58.5
		c-0.4-17.8-0.9-35.7-1.3-53.5c-0.2-11.7-0.5-23.4-0.5-35.1c-0.1-11.9,0.3-23.8-0.1-35.7c-0.3-8.2-2.1-16.5-2-24.7
		c0.2-16.8,1.2-33.6,1.7-50.3c0.4-13.4,1.9-26.8-1.2-40.1c-0.2-0.9-0.1-1.9,0-2.9c1.1-14.3,2.9-28.6,3.2-42.9
		c0.4-17.4-0.4-34.9-1-52.3c-0.2-4.8,1.3-6.6,6.1-6.3c8.6,0.6,17.3,1,25.9,1.1c1.8,0,4.6-1,5.1-2.3c2.9-6.5,5.6-13.3,2-20.4
		c-3.4-6.5-9.7-6.4-16-6.7c-29.2-1.6-57.5,7.3-86.6,7.1c-1.7,0-3.4,0.7-5,1.4c-8.4,3.7-10.7,12.7-5,20c1.2,1.5,2.9,2.8,3.4,4.5
		c1.4,4.6,4.8,4.1,7.9,3.2C1196.6,588.1,1202.6,590.8,1203.8,583.3z M1379,1123.9c0.3-1.7,1.3-4.1,0.7-4.6
		c-3.1-2.8-6.4-6.2-10.2-7.3c-6.8-1.9-13.9-2.7-20.9-2.9c-6-0.3-12.2,0.2-18,1.5c-3.8,0.9-6.9,4.9-10.7,5.6
		c-18.8,3.4-25.9,18.2-31.7,33.2c-3.5,9-4.3,19.4-4.9,29.3c-1.3,19.5-1.6,39-2.3,58.5c-0.2,5.8-0.7,11.5-0.9,17.3
		c-0.5,18.2-0.9,36.5-1.4,54.7c-0.2,7.9-0.6,15.7-0.8,23.5c-0.1,2.3-0.7,4.9,0.1,6.8c3.2,7.7,1.5,15.2-0.1,22.8
		c-0.8,4.1-1.5,8.4-1.4,12.5c0.1,10.5,0.7,21,1,31.5c0.4,13.8-1.3,27.7,2.5,41.2c0.5,1.9,0,4.2,0.1,6.3c0.2,4.8,0.4,9.6,0.9,14.3
		c0.6,5.1,1.7,10,2.2,15.1c0.3,3.8-0.2,7.7,0,11.5c0.9,17.5,6.7,33.6,13.2,49.6c10.1,24.6,27.3,38.8,54.6,39.3
		c12.6,0.2,25.3,0.8,37.9,0.5c3-0.1,6.8-2.1,8.6-4.5c5-6.6,3.2-16.4-2.4-22.3c-3.6-3.8-6.8-0.6-10.1-0.9
		c-13.8-1.1-27.8-1.4-41.5-3.2c-9.5-1.2-17.9-5.5-20.6-16.2c-0.3-1.3-1.1-2.5-1.7-3.7c-3.1-6.3-10.3-10.8-8.8-19.2
		c0.1-0.3-0.3-0.8-0.5-1c-4.6-2.4-3.8-6.8-3.7-10.7c0.8-17.8-1.6-35.2-5.4-52.5c-1.2-5.6-2.5-11.3-2.7-17c-0.4-10-0.2-20-0.1-30
		c0.1-14.2,0.1-28.4,0.7-42.6c0.6-17.4,2-34.8,2.5-52.2c0.4-11.3-0.3-22.7,0-34c0.3-13.2,1-26.5,1.8-39.7c1.5-23.9,3.2-47.9,5-71.8
		c1.1-14.1,9.4-22.3,22.4-26.1c3.5-1,8.4-2.8,10.5-1.3c4.4,3.2,8.8,1.7,13.2,2.2c4,0.4,8.1,1.4,11.9,0.8c4.1-0.7,8.6-2.2,11.8-4.8
		C1384.2,1130.1,1383.4,1126.8,1379,1123.9z M694.3,1391.2c-5.4-7-6.4-13.6-4-21.6c2.1-6.8,2.1-14.4,2-21.7
		c-0.2-13.5-1.5-26.9-1.9-40.4c-0.3-12.6-0.2-25.3,0-38c0.2-11.9-0.2-23.9,1.2-35.6c2-16.7,2.5-33.1-1.9-49.6
		c-1.1-4.1,0.6-8.9,1.1-13.4c0.1-1.5,0.6-3,0.5-4.5c-0.7-14.5-1.4-29-2.2-43.5c-0.1-2.1-0.4-4.2-1.1-6.2c-2.2-6.3-8-9.5-14.6-8.5
		c-6.1,1-9.4,5.4-9.4,12.5c0,17.8-0.3,35.7,0.1,53.5c0.2,8.4,2.6,16.7,2.6,25c0,22.1-1.5,44.2-1.2,66.3c0.2,17.9,0.9,35.8,0.4,53.7
		c-0.4,15.7,1,31.6-0.1,47.3c-1.2,17.9-2.5,35.7-1.8,53.8c1.2,28.8,0.1,57.7,0.2,86.5c0,5,0.8,10,0.9,15c0.2,15.7,0,31.5,0.5,47.2
		c0.2,7.7,4.8,11.5,12.6,12c4.8,0.3,9.6,0.2,14.4,0.5c9.4,0.7,19,0.3,27.9,2.7c7.6,2.1,14.7,1.5,22,1.2c1.3-0.1,2.7-0.2,4-0.2
		c10.7,0.3,21.5,0.8,32.2,0.8c5.5,0,8.3-3.4,8.3-8.9c0-9.4-6.1-16.2-16-17.2c-9.7-0.9-19.4-1.2-29-1.7c-13.4-0.8-26.8-1.8-40.3-2.2
		c-13.9-0.5-16-2.8-13.7-16.5c0.4-2.2,1.9-4.3,2.3-6.5c0.7-4.4,1.7-9,1.3-13.4c-1.1-13.2-3-26.3-4.4-39.4c-0.2-2,0.9-4.1,1-6.2
		c0.4-10.3,0.7-20.6,1-30.9c0.1-2.9-1.1-6.2-0.1-8.5c4.7-10.5,0.2-20.8-0.4-31.1C688.7,1398,688.4,1394.1,694.3,1391.2z
		 M1939.5,868.2c0.3,0.1,0.6,0.2,1,0.3c0.5-1.4,1.3-2.8,1.4-4.3c1.6-17.3,3.4-34.6,4.5-52c0.9-13.4,0.7-26.9,1.3-40.3
		c1-22.9,3-45.9,3.3-68.8c0.3-34-0.8-68-0.9-102c-0.2-41.9-0.1-83.9,0-125.8c0-2.8,1.1-5.7,0.9-8.5c-0.9-10.4-3.1-20.8-3.1-31.1
		c0.2-30.7,1.3-61.4,2.1-92c0.3-13.2,1.2-26.5,1.1-39.7c-0.2-24.9-0.9-49.7-1.4-74.6c-0.9,0-1.8,0-2.7,0c0,21.5,0.1,43,0,64.5
		c-0.1,13.8-0.8,27.6-1.1,41.4c-0.4,17.6-0.8,35.3-1.2,52.9c-0.1,2.9-0.8,5.7-0.8,8.5c0.1,5.1,0.3,10.2,0.8,15.2
		c0.4,3.1,2.3,6.1,2.3,9.2c-0.1,11.9-0.7,23.7-1.2,35.6c0,1.1-0.6,2.2-0.6,3.4c-0.3,11-0.6,22.1-0.6,33.1c0,5.1,1.2,10.3,1.2,15.4
		c-0.3,36.9-0.8,73.8-1.1,110.7c-0.1,18.3,0,36.5,0,54.8c0,7,2.1,15.1-0.7,20.8c-4,8.2-1.9,16-2.8,23.9c-0.2,1.9-0.1,3.8,0,5.8
		c0.4,11.3,0.6,22.6,1.2,33.9c0.4,6.8,2.1,13.7,2.1,20.5c-0.1,9.1-1.6,18.3-2.1,27.4C1941.3,827.1,1940.5,847.6,1939.5,868.2z
		 M1942.3,651.4c-0.2,0-0.5,0-0.7,0c0,14.3,0,28.6,0,42.9c0.2,0,0.5,0,0.7,0C1942.3,680,1942.3,665.7,1942.3,651.4z"/>
	<path class="st1" d="M67.3,1521.4c0-121.4,0-242.8,0-364.2c0.5-0.1,1-0.1,1.5-0.2c0.7,4.3,1.7,8.6,1.9,12.9
		c0.6,10.7,1.4,21.5,1.1,32.2c-0.4,19.9-1.7,39.8-2.2,59.7c-0.6,24.6-1.2,49.2-1,73.7c0.1,9.3,2.6,18.5,3.4,27.8
		c0.5,6,0,12.1-0.1,18.2c-0.4,25.7-0.7,51.5-1.2,77.2c-0.3,19.4-0.8,38.8-1.2,58.1c0,1.6-0.4,3.1-0.7,4.7
		C68.4,1521.5,67.9,1521.5,67.3,1521.4z"/>
	<path class="st1" d="M1953.5,1717.4c-3.4-174.1-2.6-348.3,0-522.4C1953.5,1369.1,1953.5,1543.2,1953.5,1717.4z"/>
	<path class="st1" d="M66.9,917.8c0-2.3,0-4.5,0-6.8c0-108.5,0-217,0-325.5c0-4.4,0.1-8.5,5.5-10.9c0.3,1.5,0.8,2.8,0.8,4.1
		c-0.3,22.3-0.7,44.5-1.2,66.8c-0.2,10-0.9,19.9-1.1,29.9c-0.8,45.3-1.7,90.6-2.2,135.9c-0.1,4.7,1.6,9.4,2.4,14.1
		c0.5,3,1.1,6.1,1,9.1c-0.7,21.9-1.6,43.8-2.2,65.6c-0.1,4.4,0.8,8.7,0.9,13.1c0,1.7-0.9,3.4-1.3,5C68.5,918.2,67.7,918,66.9,917.8z
		"/>
	<path class="st1" d="M67.8,1798c3.7,0.1,5.5,2,5.4,5.8c-0.4,24.2-0.7,48.4-1.3,72.6c-0.1,3-1.1,5.9-3,9.3c-0.7-1.2-1.9-2.4-1.9-3.6
		c0-27.7,0-55.4,0.1-83.1C67.1,1798.7,67.5,1798.4,67.8,1798z"/>
	<path class="st1" d="M1953.4,1847.4c-0.5-37.6-7.2-75.3,0-112.3C1953.4,1772,1953.4,1809.7,1953.4,1847.4z"/>
	<path class="st1" d="M1952.7,1142.2c0-28.2,0-56.3,0-84.5c0.2,0,0.5,0,0.7,0c0,28.1,0,56.3,0,84.4
		C1953.2,1142.1,1952.9,1142.1,1952.7,1142.2z"/>
	<path class="st1" d="M1952.3,2029c0-22.8,0-45.7,0-68.5c0.4,0,0.8,0,1.1,0c0,22.9,0,45.8,0,68.7
		C1953.1,2029.1,1952.7,2029.1,1952.3,2029z"/>
	<path class="st1" d="M1946.1,154.7c-2-1.2-3.9-2.3-4.6-2.6c-1.5-4.4-2.6-7.7-3.7-11C1943.7,139.2,1948.1,145.3,1946.1,154.7z"/>
	<path class="st0" d="M1152.1,1482.6c2.1-1.5,3.4-2.5,5.3-4c-2.4-0.5-4-0.9-4.5-1c-2.6-7.3-5.1-13.9-7.2-20.6
		c-1.1-3.6-1.7-7.4-2.3-11.2c-0.7-4.5-2.1-8.3-4.7-12.3c-3.5-5.4-5.2-12.2-7.2-18.5c-2.3-7.2-3.8-14.5-8.3-21.1
		c-3.2-4.6-3.7-11.2-5.4-16.9c-2.2-7.7-4.5-15.4-6.5-23.2c-1.1-4-0.4-9.4-2.8-12.1c-4.8-5.4-3.9-12-6.1-17.9
		c-2.7-7.2-3.7-15.1-5.3-22.8c-0.2-0.9-0.2-1.9-0.4-2.8c-3.4-13.2-6.5-26.4-10.2-39.5c-3.1-10.9-6.6-21.7-10.5-32.2
		c-1.9-5-4.9-9.3-6-15.1c-1.8-9.7-5.4-19.1-8.8-28.4c-1.9-5-5-9.6-7.5-14.4c-0.7,0.1-1.4,0.3-2,0.4c-0.3,6.5-1.1,13.1-0.8,19.6
		c0.6,11.3,2.5,22.5,2.7,33.7c0.2,11.1-1.3,22.2-1.6,33.3c-0.2,8.4,1.8,17,0.5,25.2c-1.9,11.7,0.7,23.1,0.2,34.7
		c-0.4,11.7,0.2,23.4,0,35.1c0,4-1.3,7.9-1.4,11.9c-0.2,5.9-0.9,12,0.3,17.7c1.5,7.1,0.4,13.5-1.1,20.4c-2.9,13.3-4.4,26.8-0.5,40.3
		c0.8,2.8-0.1,6.1,0,9.1c0.1,6.7,0.2,13.3,0.4,20c0.1,5.9,0.4,11.8,0.5,17.7c0.1,4.2,0.1,8.4,0.3,12.6c0.7,14.1,1.4,28.2,2.2,42.2
		c0.4,7.1,0.8,14.2,1.5,21.2c1.1,10.3-4.9,17.7-14.3,17.5c-7.2-0.2-12.1-4.3-12.8-11.5c-1-9.9-1.8-19.9-2-29.8
		c-0.3-18.4,0-36.9-0.2-55.3c-0.2-17.8-1.1-35.6-1-53.5c0-11.1,1.4-22.2,2-33.3c0.2-4.2-0.2-8.5-0.1-12.7c0.3-9.7,0.9-19.5,1.1-29.2
		c0.1-6.5-0.4-13.1-0.3-19.6c0.2-8.2,0.8-16.4,1.3-24.7c0.1-1.3,0.5-2.7,0.5-4c-0.5-14.2-1.3-28.3-1.7-42.5
		c-0.2-5.2-0.3-10.4,0.5-15.5c2.9-20.4,0.6-40.7-1.5-61c-0.4-4.2,0-8.4-0.1-12.6c-0.4-11.5-1.4-22.9-1.3-34.4c0-7.5-2-15.2,1.4-22.5
		c0.4-0.8,0.2-1.9,0.2-2.9c0.3-6.9,4.8-10.5,12-9.7c14.9,1.7,21,6.3,24.4,21.1c2.4,10.3,7.8,19,12.2,28.4
		c7.6,16.3,18.7,31.1,19.9,50.3c0.5,8.4,5.6,16.5,8.2,24.8c1.5,4.7,0.8,10.9,3.7,14.1c7.2,7.9,4.7,17.2,6.1,26.1c0.5,3.1,2,6,2.9,9
		c1.5,5,2.8,9.9,4.2,14.9c4.5,16,8.7,32.2,13.7,48.1c4.5,14.4,10.2,28.5,15,42.8c6.9,20.5,13.7,41,20.3,61.7
		c3.5,10.9,8.6,21.3,8.9,33.2c0.1,3.4,2.9,7,4.9,10.2c5,8.1,10.2,16.2,15.3,24.2c0.5-5.2,1.2-11.1,1.5-17
		c1.4-28.4,2.7-56.8,3.8-85.1c0.3-7.8-0.9-15.7-0.8-23.5c0.3-17.2,1.9-34.4,1.3-51.6c-0.3-8.4,1.3-16.3,2.1-24.4
		c1-9.9-0.1-20,0.3-30c0.2-5.8,1.5-11.6,2.3-17.4c0.6-4.3,2-8.7,1.5-12.9c-1.5-15.1,0.3-29.9,2-44.8c1.4-12.9,0.7-26,1.4-39
		c0.6-12.4,1.1-25,3.1-37.2c0.6-3.5,5.9-7.3,9.9-9c4.1-1.8,8.6,0.4,11.5,4.5c3.2,4.5,4.4,9.6,2.7,14.7c-3.5,10.3-2.9,20.6-1.9,31.3
		c0.7,7.2-1,14.5-1.4,21.8c-0.4,7.9,0.5,15.9-0.9,23.6c-2.2,12.2-0.3,24.2,0.1,36.3c0.1,3.4-0.3,7-1.2,10.3
		c-2.2,8-4.5,15.8-1.6,24.2c0.8,2.3,0.1,5.4-0.7,7.9c-4.7,14.5-4.7,29.3-4.6,44.4c0.1,25.4-0.8,50.8-1.3,76.2c0,1.5-0.7,3-0.8,4.5
		c-0.4,3.4-2,7.5-0.7,10.2c4,8.2,0.5,16,0.4,24c-0.1,9.4-0.6,18.8-1.2,28.2c-0.5,8.4-1.6,16.8-1.8,25.2c-0.1,4.3,1.6,8.6,1.7,13
		c0.2,15.5,0.3,31-0.2,46.5c-0.1,3.5-2.2,7.4-4.4,10.4c-4,5.3-10.9,5.5-15.7,0.8c-1.6-1.6-3.1-3.5-4.1-5.5
		c-6.3-12-12.3-24.2-18.6-36.2c-2.3-4.4-5.3-8.4-7.5-12.8C1166.8,1512.5,1159.6,1497.7,1152.1,1482.6z"/>
	<path class="st0" d="M634.4,753.3c9.1,5.7,16.7,11.1,24.9,15.6c11.8,6.4,18.1,17.2,25.2,27.8c18.6,27.8,23.9,60.4,33.8,91.4
		c5.8,18.2,2.4,36.2,2.1,54.3c-0.1,8.1-1.6,16.4-3.8,24.3c-2.4,8.5-6.1,16.8-9.8,24.9c-1,2.1-3.7,3.6-5.9,4.9
		c-8.6,5.4-17.2,11-26.1,15.9c-4.6,2.5-9.7,4.4-14.8,5.7c-11,2.7-22.1,4.8-33.2,7.1c-2.2,0.5-4.6,0.5-6.9,0.8
		c-12.1,1.4-24.2,2.2-36.1,4.4c-14.2,2.6-18.6-5.8-18.6-16c0-9,2-18,2-27c0.1-18.4-0.7-36.8-0.9-55.2c-0.1-4.8,0.7-9.6,0.8-14.4
		c0.2-16.1,0.5-32.3,0.1-48.4c-0.4-18.9-1.9-37.8-2-56.7c-0.1-15.3,1.1-30.7,1.5-46.1c0.1-2.8-0.8-5.7-0.7-8.5
		c0.1-6.9,0.5-13.7,0.8-20.6c0.1-2.9,1-6.1-0.1-8.5c-3.6-8-3.3-16.2-3.1-24.7c0.4-15.3-0.6-30.6-0.8-46c-0.2-18.5-0.3-37-0.1-55.6
		c0.1-9.3,0.6-18.7,1-28c0.1-1.7,0.3-3.5,0.6-5.1c2.7-12.6,10.9-18.9,23.6-17.6c12.2,1.2,24.3,3,36.5,4c13.1,1.1,25,5.9,36.6,11.4
		c3.6,1.7,5.9,5.8,8.9,8.8c18,18,26.5,40.2,28.6,65.2c0.4,4.4,1.7,8.9,1.2,13.1c-1.8,14.7-3.1,29.7-6.8,44
		c-3.1,11.9-8.2,23.2-17.6,32.7c-5.9,6-10.7,12.7-18.9,15.5c-5.2,1.8-10.7,3-16,4.5C638.8,751.5,637.3,752.2,634.4,753.3z
		 M588.9,768.5c0,22.2-0.1,42.7,0.1,63.2c0.1,6.9,1.1,13.8,1.5,20.7c0.6,12.6,1.4,25.2,1.5,37.8c0.2,16.3-1.1,32.7,0.1,48.9
		c1.3,17.4,2.7,34.7,0.5,52.1c-1.2,9.5-0.4,10.2,9.3,9.1c7.6-0.8,15.1-2.3,22.7-2.9c17.1-1.3,32.6-5.5,47.1-15.5
		c11-7.6,17.2-15.8,20.3-29c3.8-16.3,2.9-32.3,2.2-48.4c-0.3-6.9-3.1-13.7-4.7-20.6c-1.3-5.5-2-11.2-3.8-16.5
		c-4.3-12.5-8.7-25-13.7-37.2c-2.4-5.9-6-11.4-9.9-16.5c-3.8-5-8.5-9.4-13-13.8c-3.5-3.4-7-7.1-11.3-9.3
		c-12.2-6.3-24.8-12-37.3-17.7C597.6,771.4,594.3,770.4,588.9,768.5z M590.4,581.2c-1.1,9.8-2.7,18.5-2.8,27.2
		c-0.4,20.8,0,41.7-0.3,62.5c0,3.7-1.8,7.4-2.6,11.2c-0.2,1-0.3,2.7,0.3,3.1c5,4.1,4.5,10.1,3,14.7c-4.3,13,3.7,24.1,3.5,36.5
		c4.1-0.8,7.6-1.3,10.9-2.2c11.7-3.1,23.5-5.6,34.9-9.6c19-6.7,33.6-29.6,32.8-49.7c-0.1-2.7-0.5-5.5,0.3-8
		c4.3-14,4.1-27.5-3.5-40.6c-3-5.3-6.6-11.1-7-16.8c-0.5-7.1-3.8-11.2-9-14.2c-7.3-4.2-14.9-7.8-22.6-11.1c-2.9-1.2-6.4-1.3-9.6-1.5
		c-6.8-0.4-13.6-0.4-20.4-0.7C595.6,581.9,593.2,581.5,590.4,581.2z"/>
	<path class="st0" d="M565.1,1384.4c9.9,5.1,19.4,9.7,28.7,14.7c2.5,1.3,5.1,3,6.8,5.1c8.6,10.4,17.3,20.8,25.2,31.8
		c2.8,3.9,4,9.4,4.5,14.4c2.3,21.7,6.6,43.4,4.7,65.4c-1.2,14-4.4,27.3-11.4,39.6c-14,24.6-35.6,33.5-64.3,30.9
		c-7.2-0.7-14.3-2.3-21.5-2.6c-6.4-0.2-12.9,1.2-19.4,1.2c-13.2,0-19.3-9.1-17.6-22.1c1.8-13.4,1.9-27.1,2.2-40.7
		c0.4-13.3,0.3-26.7,0.1-40c-0.2-23.1,0.3-46.2-1.4-69.2c-0.9-12-1.8-23.8-0.5-35.8c0.5-4.4-0.1-8.8-0.3-13.3
		c-0.6-13-1.1-26.1-1.9-39.1c-0.4-7.2-1.5-14.3-2.1-21.5c-0.2-2.5,0-5-0.1-7.5c-0.4-9.3-0.9-18.7-1.2-28c-0.1-4.7,0.4-9.5,0.2-14.2
		c-0.5-11.4-1.4-22.9-2-34.3c-0.6-11.1-1.7-22.2-1.2-33.2c0.7-13.3,1.2-26.4-1.3-39.6c-1.6-8.2-2.4-16.8-2.1-25.2
		c0.1-3.4,3.4-8.5,6.5-9.6c5.8-2.2,12.7-3.5,18.9-2.7c11.9,1.5,23.5,5.4,35.5,6.9c8.2,1,12.4,8.1,19.4,10.5c1.6,0.5,3.1,2.4,4.5,2.3
		c7.1-0.4,9.9,5,13.8,9.3c6.8,7.4,12.6,15.5,18,23.8c11.1,17.2,15,36.3,15.2,56.5c0.1,13.8,1.3,27.6,0.9,41.3
		c-0.4,11.8-2.3,23.5-3.5,35.2c-0.2,1.5-0.8,3.2-0.4,4.5c2.4,7.6,1,15-1.5,22.1c-4.4,12.3-5.9,26-15.4,36.1c-3,3.2-6.1,6.3-9.5,8.9
		c-5.1,4-10.5,7.6-15.9,11.3C572.4,1379.9,569,1381.9,565.1,1384.4z M514.5,1135.6c0.4,7.4-0.1,13.1,1.2,18.4
		c3.2,13.3,2.5,26.7,2.5,40.1c0,4.4-0.9,8.8-0.7,13.1c0.6,15.1,1.6,30.2,2.3,45.4c0.1,2-0.8,4.1-0.5,6c0.5,3.5,2.2,6.9,2.3,10.4
		c0.7,19.7,0.8,39.3,1.7,59c0.6,13.4,2.3,26.7,3.3,40.1c0.3,4.3,3.1,4.1,5.6,3c7.2-3.1,14.5-6,21.2-10c7.6-4.6,14.8-10.1,21.9-15.5
		c6.9-5.3,11.7-11.9,12.6-21c0.2-2.5,0.7-5,1.7-7.3c3.9-8.3,5.1-16.9,5.2-26.1c0.2-12.8,2.5-25.7,2.1-38.5
		c-0.5-14.5-2.9-28.9-4.6-43.4c-0.7-5.5-2.2-10.9-2.6-16.5c-0.8-10.3-7.5-17.9-11.9-26.5c-2-3.8-6-7.1-9.8-9.5
		c-6.6-4.2-13.8-7.5-20.8-11.1c-3-1.6-6-4-9.2-4.4C530.4,1140.7,522.3,1142.7,514.5,1135.6z M526.3,1403.3
		c1.4,27.7,2.9,54.5,0.8,81.5c-1.8,22.5,0.1,45.3,0.2,68c0,3.7,1.5,5,5.1,5.3c14,1,27.9,2.3,41.8,3.4c8.7,0.7,28.5-13.5,30.8-22.7
		c4.4-17.7,9.2-35.4,5.9-53.9c-1.6-9.1-3.1-18.2-5.2-27.1c-3.7-15.2-13.3-27-25.5-35.7c-13.4-9.5-29.1-14.7-45.3-18
		C532.1,1403.5,529.3,1403.6,526.3,1403.3z"/>
	<path class="st0" d="M1007.8,821.2c-1.2,10-2.9,19.2-3.3,28.5c-0.7,14.9-0.8,29.9-0.7,44.9c0.1,10.1,1.3,20.2,1.6,30.3
		c0.2,5.9-0.7,11.9-0.7,17.8c0.1,8.7,0.7,17.5,0.7,26.2c0,4.7-1.1,9.4-1.3,14.2c-0.1,3.8,0.4,7.6,0.7,11.4c0.6,6.5,1.7,13,1.8,19.5
		c0.1,2.8-1.1,6-2.8,8.3c-7.5,10.3-17.4,9.1-22.3-2.7c-1.6-3.7-3.3-7.3-4.9-11.1c-0.4-1-0.9-2.3-0.7-3.2c4.9-16.1,3.6-32.5,1.9-48.8
		c-0.4-3.7,0.2-7.5,0.2-11.3c-0.1-9-0.6-18.1-0.6-27.1c0-19.4,0.3-38.8,0.4-58.1c0.1-13,0.2-26,0.1-39c-0.1-13.8-0.1-27.6-0.8-41.4
		c-0.8-14.9-2.8-29.8-3.4-44.7c-0.4-10.7,0.9-21.5,1-32.2c0.1-10.5-0.4-21.1-0.5-31.6c-0.1-8.6,0.9-17.3,0.1-25.8
		c-1.9-18.8,5.7-37.6-0.3-56.5c-1.9-6-1.2-12.9-1.3-19.4c-0.1-5.3,7.7-13.3,13-14.1c4.2-0.6,8.3-1.1,12.3-1.7c4.8,9.2,7,18,3.6,28
		c-1.3,3.8,0.4,8.6,0.4,12.9c0,5.7-0.2,11.4-0.4,17.1c-0.3,8.4-0.7,16.8-1,25.1c-0.3,6.3-0.9,12.6-0.8,18.9c0,4.1,1,8.3,1.6,12.4
		c0.1,0.9,0.5,1.8,0.5,2.7c-0.6,14.9-1.6,29.8-1.7,44.7c0,5.6,2.7,11.2,2.7,16.8c0,6.1-2.1,12.2-2.5,18.4c-0.2,3.6,1,7.4,1.6,11.1
		c0.4,2,1.3,3.9,1.5,5.9c0.5,6.9,0.6,13.8,1.3,20.7c0.1,1.3,2.4,3.5,3.7,3.5c22,0.6,44.1,1,66.1,1.5c10.6,0.2,21.3,0.4,31.9,0.8
		c4.6,0.2,5.8-1.6,5.8-6c0-14.8,0.1-29.6,0.8-44.4c0.5-10.4,2.1-20.7,2.8-31c0.3-3.8-0.6-7.6-1-11.5c-0.7-6.9-1.6-13.7-1.9-20.6
		c-0.8-14.4-1.9-28.7-1.7-43.1c0.3-15.5,2.1-31,3.3-46.5c0.6-7.8,1.5-15.6,1.8-23.4c0.3-7.7,5.4-14.4,11.8-14.5
		c8.3-0.1,15.2,6.5,14.8,14.9c-0.9,17.1-2.8,34.1-3,51.2c-0.2,14.4,2.3,28.7,2.1,43.1c-0.3,26.7-1.9,53.3-2.5,80
		c-0.2,9.8,1,19.6,1.1,29.4c0.1,5.6-0.4,11.2-1.2,16.8c-1.3,9.6-3.2,19.2-4.6,28.8c-0.3,2-0.4,4.4,0.4,6c3.3,6.3,2.6,12.4,1.2,19
		c-3,13.7-4.5,27.5-1,41.4c0.3,1.1,0.4,2.4,0.1,3.4c-3,9-0.5,17.9,0.3,26.8c0.6,5.9,1.2,12.1-0.1,17.7c-2.9,12.9-2.2,25.5,0.6,38.2
		c0.4,1.8,0.5,3.8,0.3,5.7c-0.7,7.2-1.5,14.4-2.3,21.6c-0.1,0.6-0.3,1.4,0,1.6c6.1,5.7,1.7,12.6,2.2,19c0.1,1.5-2.1,3.7-3.8,4.6
		c-2.1,1.2-4.7,1.5-7.1,2.2c-8.3,2.4-15.4-2.7-16.1-11.6c-0.1-1-0.1-1.9-0.1-2.9c-0.7-19.5-1.6-39.1-2-58.6
		c-0.1-4.8,2.1-9.7,1.8-14.5c-0.9-15.9-2.6-31.7-3.7-47.6c-0.2-2.4,1.4-4.9,1.6-7.4c1.4-16.9,2.5-33.8,3.8-50.6c0.3-4-1.2-5.4-5-6.7
		c-13-4.5-26.3-1.9-39.4-2.6c-10.9-0.6-21.8-0.8-32.7-1C1025.6,821,1017.1,821.2,1007.8,821.2z"/>
	<path class="st0" d="M1466.6,875.2c-10-1.2-20.1-2.5-30.1-3.6c-2-0.2-4.3-0.3-6.2,0.3c-12.2,4.2-24.3,2.3-36.3-0.8
		c-0.6-0.1-1.1-0.4-1.6-0.6c-10.7-2.5-12.5-0.6-13.8,10c-1.9,15-4.9,29.8-7.3,44.8c-0.7,4.3-1.1,8.7-1,13c0.2,5.8-1,11.1-2,16.8
		c-3.4,18.4-5.6,37-7.2,55.6c-0.7,7.7-5,14.7-12.5,15.3c-7.3,0.6-12.5-4.1-12.4-12.6c0-9.5,1.9-19,1.7-28.5
		c-0.3-11.3,3.2-21.7,5.8-32.3c1.4-5.8,1.2-12.1,1.8-18.1c1.1-9.8,2.4-19.6,3.5-29.4c0.4-3.4,0.3-6.9,0.9-10.3
		c0.5-2.8,1.7-5.6,2.4-8.4c0.4-1.8,0.3-3.7,0.6-5.6c0.8-4.8,1.6-9.7,2.5-14.5c1.1-6.2,2.3-12.3,3.1-18.5c1.1-7.6,1.9-15.2,2.7-22.8
		c0.8-7.4,1-14.9,2-22.3c1.1-7.7,2.8-15.3,4.3-23c0.3-1.3,0.9-2.6,1-3.9c1.9-15.6,3.4-31.2,5.8-46.7c2.5-15.7,4-31.5,5.1-47.4
		c0.8-10.8,4.9-21.2,6.9-31.9c1.3-6.9,1.7-14,2.3-21c0.5-5.9,0.7-11.9,1.1-17.8c0.2-3.2,0.1-6.5,0.8-9.7c0.6-2.9,2-5.7,2.8-8.5
		c0.8-2.7,1.6-5.5,1.8-8.3c0.3-3.4-0.3-6.9,0-10.4c0.4-4.9,2.7-8.3,7.9-10.1c6.8-2.4,13.2-6.4,20-8.6c5.2-1.7,10.9-2,16.4-2.5
		c7.3-0.6,14.5-0.9,21.8-1.2c9.5-0.3,16.6,4.5,18.8,13.7c1.2,5.1,2.6,9.9,1,16.1c-1.7,6.3,2.7,14,2.9,21.2c0.4,14.7-0.4,29.4-0.2,44
		c0.1,12,0.5,24.1,1.6,36c0.7,7.4,2.8,14.7,4.4,22c0.3,1.5,1.1,3,1,4.5c-0.9,20.8,7.7,40.1,9.9,60.3c2,17.9,2.6,36,3.8,54
		c0.1,1.5-0.1,3.2,0.5,4.5c5.2,12.3,5.1,25,2.9,37.9c-0.2,1.1,0.1,2.3,0.2,3.4c1.6,12.7,3.1,25.5,4.7,38.2c0.2,1.5,0.5,3,0.7,4.6
		c1.6,9.7,3.1,19.4,4.8,29.1c1.5,8.5,3.7,16.9,5,25.4c1.5,9.8,2.4,19.7,3.5,29.5c0.3,2.7,0.9,5.3,1.1,8c0.3,4.2,0.9,8.4,0.6,12.6
		c-0.3,4.8-2.3,9.1-7.4,10.6c-5.3,1.5-9.9-0.2-13.6-4.1c-1.5-1.6-2.9-3.8-3.4-5.9c-2.1-9.5-5.4-19-5.4-28.5
		c0-20.7-5.8-40.3-9.3-60.3c-2.8-15.9-6.9-31.6-4.3-48c0.6-3.9-1.4-5.9-5.1-6c-4.4-0.1-8.8,0-13.2,0
		C1466.7,874.9,1466.7,875,1466.6,875.2z M1474,750.4c-7.2,1.1-6-4.2-6.4-8.1c-1.4-13.3-0.8-26.7-5.3-39.7
		c-2.3-6.5-3.9-13.7-3.8-20.6c0.2-16.4,0-32.6-3.6-48.7c-0.6-2.5,0.8-5.4,1.4-8.1c0.6-2.6,2-5.2,2-7.8c0-8.6-0.4-17.2-0.7-25.8
		c-0.1-3.1,0-6.2-0.7-9.2c-0.3-1.2-2.5-2.9-3.8-2.8c-6.9,0.4-13.8,1-20.6,2.1c-3.5,0.6-7.4,1.7-10.1,3.8c-1.4,1.1-0.5,5.1-0.9,7.7
		c-0.3,2.1-1.3,4-1.8,6c-1.5,5.7-3.7,11.4-4.4,17.3c-1.7,15.2-2.2,30.6-4.3,45.7c-1.5,10.9-5.8,21.5-7.2,32.4
		c-1.9,14.9-2.1,30-3.1,45c-0.1,1.3-0.3,2.7-0.6,4c-2,10-4.4,19.9-6,29.9c-3.3,21-6.2,42.1-9.4,63.1c-0.9,6-0.1,7.3,6,6.9
		c8.6-0.5,17.3-1.6,25.9-1.5c9.8,0.1,19.6,1.3,29.4,2c3.3,0.2,6.5,0.4,9.8,0.7c6.5,0.6,13,1.5,19.5,1.8c4.9,0.3,6.6-2.1,5.9-7.2
		c-2.5-18.7-5.3-37.3-6.8-56.1C1473.4,772.5,1467.5,761.7,1474,750.4z"/>
	<path class="st0" d="M875.9,875.3c-10-1.2-20.1-2.5-30.1-3.6c-2.2-0.2-4.7-0.4-6.8,0.3c-12.1,4.1-23.9,2.3-35.8-0.7
		c-1.3-0.3-2.6-0.9-3.9-1c-11.9-0.1-11.8-1.4-11.9,9.9c0,6.4-2.2,12.8-2.7,19.3c-1.2,15-7.6,29.3-5.5,44.8c0.5,3.5-2.2,7.2-2.5,10.9
		c-1.6,18.9-9.2,37-7,56.3c0.8,7.3-5.2,14.1-12.5,14.6c-7.1,0.4-12.2-4.1-12.2-12.2c0-9.5,1.1-19,1.8-28.5c0.1-1,0.3-2,0.2-2.9
		c-1.6-8.8,2.6-16.7,4-25.1c0.9-5.8,2.1-11.6,2.8-17.4c1.1-9.2,1.2-18.7,3.2-27.7c2-8.8-1-18.4,4.5-26.6c0.4-0.6,0.5-1.5,0.4-2.2
		c-1.8-7.8,1.9-14.5,3.8-21.7c2.3-8.6,2.4-17.7,3.5-26.6c1-8.2,1.9-16.3,2.9-24.5c0.2-1.5,0.4-3.1,0.2-4.6
		c-0.8-9.3,0.8-18.2,4.2-26.9c1.1-2.8,0.8-6,1.2-9.1c3-20.2,6.2-40.5,9-60.7c0.7-4.7,0.8-9.6,0.6-14.3c-0.4-15.4,4.6-29.8,7.6-44.6
		c1.4-7.1,1.8-14.4,2.4-21.6c0.5-5.9,0.8-11.9,1.1-17.8c0.2-3.1,0.6-6.1,0.6-9.2c0-3.4-0.4-6.4,2.8-9.3c1.7-1.5,1.7-5.3,1.9-8.1
		c0.3-3.2-0.3-6.5,0-9.8c0.4-5.2,2.6-8.7,8.1-10.6c6.7-2.3,12.8-6.2,19.5-8.4c5.2-1.7,10.8-2.2,16.3-2.7c7.4-0.7,14.9-1,22.4-1.2
		c9.5-0.3,16.6,4.6,18.6,13.9c1.1,4.9,4.6,9.7,0.5,15.7c-1.8,2.7,1.8,8.5,2.1,13c1,15.5,2.8,31,2.1,46.4c-0.8,16.7-1,33.2,1.4,49.7
		c0.6,4,2,7.8,2.8,11.7c1,4.9,2.6,9.8,2.6,14.7c0.1,10.1,1,19.6,4.7,29.2c3.1,7.9,3.8,16.8,4.5,25.4c1.6,18,2.4,36,3.8,54
		c0.2,3.2,2.6,6.2,2.7,9.3c0.5,10.1,0.5,20.2,0.7,30.3c0,1.3-0.1,2.7,0,4c1.6,13.1,3.1,26.2,4.9,39.3c0.3,2.6,1.6,5.1,2,7.7
		c1.2,6.9,2.1,13.8,3.3,20.7c2,11.5,4.5,22.9,6.3,34.5c1.2,8.1,1.6,16.3,2.4,24.5c0.3,2.7,0.8,5.3,1,8c0.4,4.2,1,8.4,0.8,12.6
		c-0.3,5.3-2.5,9.8-8.2,11.3c-4.8,1.3-11-1.3-14.1-5.8c-1-1.4-1.9-3-2.3-4.6c-2-9.5-5.4-19-5.4-28.5c0-20.5-5.7-39.9-9.2-59.7
		c-2.8-16.1-7-32-4.3-48.6c0.6-4-1.6-5.7-5.3-5.8c-4.2-0.1-8.4,0-12.7,0C876,874.9,875.9,875.1,875.9,875.3z M883.2,750.7
		c-7.6,0.6-6.4-4.6-6.8-8.2c-1.3-13.5-0.9-27.1-5.5-40.3c-2.2-6.2-4-13-3.8-19.5c0.4-16.8,0.2-33.4-3.6-49.8
		c-0.5-2.3,0.8-5.1,1.4-7.6c0.7-2.8,2-5.6,2-8.4c0-8.4-0.4-16.8-0.7-25.2c-0.1-3.1,0-6.2-0.6-9.2c-0.2-1.2-2.2-3.1-3.1-3
		c-8.6,0.9-17.1,2.1-25.7,3.3c-4.7,0.7-7.5,2.9-6.7,8.5c0.3,2.5-1.2,5.1-1.7,7.8c-1.8,9.6-3.9,19.1-5.2,28.8
		c-1.7,12.9-2.4,25.9-4.4,38.7c-1.1,7.1-5.2,13.9-6,21c-1.8,17-2.5,34.2-3.6,51.3c-0.1,1.5-0.2,3-0.5,4.5
		c-2.5,13.8-5.4,27.5-7.6,41.3c-2.8,17.4-5.2,34.9-7.8,52.3c-0.8,5.6,0.1,6.8,5.9,6.5c8.8-0.5,17.6-1.6,26.5-1.5
		c9.2,0.1,18.5,1.3,27.7,1.9c3.8,0.3,7.7,0.4,11.5,0.7c6.7,0.5,13.3,1.3,20,1.6c4.3,0.2,5.5-2.3,5-6.4c-3.1-24.2-6-48.4-9-72.7
		C880.3,761.8,877,755.9,883.2,750.7z"/>
	<path class="st0" d="M860.7,1432.1c0,4.1,0.3,8.1-0.1,12c-0.5,5-1.6,9.9-2.2,14.9c-0.6,4.9-0.9,9.9-1.3,14.8
		c-1.2,14.1-2.6,28.2-3.7,42.3c-0.6,7.7-0.6,15.5-1.3,23.3c-0.2,2.5-2,4.9-2.4,7.4c-0.9,5.6-1.7,11.3-2,17.1
		c-0.2,5.2-0.8,9.7-6.5,11.5c-6.1,1.9-13.5-0.4-16.1-5.9c-1.7-3.7-2.9-8.3-2.3-12.1c1.4-9.8,4.1-19.4,6.1-29.1
		c0.4-1.7,0.4-3.4,0.3-5.2c-0.6-26.6,3.2-52.9,6.5-79.2c1.3-10.1,1.4-20.3,2.5-30.4c2-18.7,4.5-37.3,6.5-56c0.9-8.6,1-17.2,1.8-25.8
		c0.4-4.6,1.8-9.1,2.3-13.8c0.6-5.5,0.2-11.1,1.2-16.4c3.5-18.4,4.5-37,5.6-55.6c1.7-27.7,5-55.3,7.5-82.9c0.9-10.4,1.4-20.9,2-31.3
		c0.6-10.8,9.5-16.3,15.3-23.7c0.6-0.8,3.4-0.4,4.8,0.2c11.3,5,23.1,1.6,34.6,2.5c7.8,0.6,15.8,0.8,23.4,2.5
		c8.8,1.9,15.2,11.4,16.1,20.4c1.6,15.5,3.6,30.9,5.2,46.3c0.5,4.2,0.3,8.4,0.5,12.6c0.8,16.5,0.8,33.1,2.7,49.5
		c0.9,7.7,0.3,15.1,0.4,22.7c0.1,12.5,2.4,25,3.4,37.6c0.8,10.1,1.1,20.3,1.6,30.5c0.9,17.2,3,34.5,2.1,51.6
		c-0.7,12.6,1.9,24.4,3.5,36.5c0.2,1.5,0.3,3.1,0.3,4.6c0.8,20.2,1.6,40.3,2.5,60.5c0.1,2.3,0.8,4.5,1.2,6.8
		c1,5.3,2.3,10.5,2.9,15.8c1,8.3,2.1,16.7,2.2,25.1c0.2,13.8-0.2,27.6-0.7,41.4c-0.2,4.6-8.3,10.8-13.2,10.7
		c-4.9-0.1-10.2-6-10.7-12c-0.5-5.9-0.8-11.8-1.2-17.8c-0.5-9.3-1-18.6-1.6-27.8c-0.6-10.7-1.2-21.4-1.9-32.1
		c-1.3-19-2.5-38.1-4-57.1c-0.1-1.6-1.9-4-3.3-4.3c-6.3-1.2-12.8-1.9-19.2-2.7c-1.3-0.2-2.7,0.5-4,0.4c-21.4-1.7-42.9,4.1-64.3-0.6
		C863.3,1431.5,862.7,1431.8,860.7,1432.1z M889.1,1137.6c-0.6,11.1-1.2,22.5-1.8,33.9c-0.4,7.6-0.6,15.3-1.4,22.9
		c-1.2,11.6-3.2,23.2-4.2,34.9c-1.9,20.2-3.2,40.5-5,60.7c-0.2,2.1-2.5,4.1-3.9,6.3c4.7,1.6,1.3,5.9,1.1,9.2
		c-1.1,19.5-2.3,39.1-3.7,58.6c-0.8,10.9-1.7,21.8-6.4,32c-3,6.5-0.3,9.7,6.6,9.7c8.1-0.1,16.1-0.2,24.3-1.2
		c13.8-1.7,28.1,0.5,42.2,1.1c3.5,0.1,7,0.7,10.3,0.3c1.3-0.2,3.1-2.5,3.2-4c0.4-4.2,0-8.4,0.2-12.7c0.3-7.4,2.6-14.9-1.8-22
		c-0.4-0.6,0.3-1.8,0.4-2.7c0.5-3.2,1.7-6.4,1.4-9.5c-1-10.7-2.6-21.2-3.7-31.9c-0.5-4.4-0.5-8.8-0.7-13.2c-0.1-2.5,0.1-4.9,0-7.4
		c-0.7-9.9-1.6-19.8-2.3-29.7c-0.4-5.2-0.5-10.3-0.7-15.5c-0.2-4.9,0.5-10.1-0.7-14.8c-1.1-4.5-0.2-8.8-0.8-13.3
		c-1.5-11.5-1-23.2-1.5-34.8c-0.2-5.7-0.9-11.5-1.4-17.2c-0.9-8.9-2.1-17.9-2.9-26.8c-0.3-3,0-6,0-8.5
		C919.7,1140.6,904.7,1139.1,889.1,1137.6z"/>
	<path class="st0" d="M1577.7,1204.3c0.8,11.5,1.1,25,3.2,38.2c1.1,7.2,0.4,13.9,0.4,20.9c0.1,12.7,2.2,25.4,3.2,38.2
		c0.8,9.6,1.2,19.2,1.7,28.7c0.9,18,3,36,2.2,53.9c-0.6,12.4,1.8,24,3.5,35.9c0.2,1.3,0.3,2.7,0.3,4c0.8,20.4,1.6,40.7,2.5,61.1
		c0.1,2.3,0.7,4.5,1.1,6.8c1,5.7,2.3,11.3,3.1,17c1,7.9,2,15.9,2.2,23.9c0.2,14-0.2,28-0.6,42c-0.2,4.6-8.5,10.7-13.3,10.5
		c-4.2-0.2-9.9-5.3-10.3-10.4c-0.7-8.4-0.7-16.8-1.1-25.2c-0.3-6-0.8-12.1-1.2-18.1c-0.2-3.1-0.6-6.1-0.6-9.2
		c0.1-12.1-0.3-24-3.9-35.7c-1.3-4.3-0.6-9.2-0.8-13.8c-0.4-11.3-0.6-22.7-1.3-34c-0.1-1.7-2-4.5-3.5-4.8
		c-6.5-1.3-13.2-1.8-19.8-2.6c-0.4,0-0.8,0.1-1.1,0.1c-21.6-1.4-43.3,4.1-64.8-0.3c-3-0.6-4.4,0.5-4.6,3.4c-0.2,2.3-0.8,4.6-0.5,6.8
		c0.9,6.2,0.9,11.8-2,17.8c-1.9,4-0.9,9.4-1.3,14.2c-1.2,14.3-2.6,28.6-3.7,42.9c-0.6,7.6-0.5,15.2-1.1,22.7c-0.2,2.5-2,4.9-2.5,7.4
		c-0.9,5.4-1.8,10.9-2,16.5c-0.4,8.1-2,11.2-7.7,12.2c-7.4,1.3-14.3-2-16.2-8.7c-1-3.6-1.3-7.7-0.7-11.3c3.2-19.8,6.9-39.4,7.3-59.6
		c0.3-16.4,3.3-32.8,4.9-49.3c1.1-11.1,1.8-22.2,3-33.2c2-18.5,4.4-36.9,6.4-55.4c0.9-8.8,1-17.6,1.9-26.4
		c0.6-5.8,1.9-11.5,2.6-17.2c0.4-3.7-0.1-7.6,0.4-11.3c2-16,5.8-31.7,5.7-48c-0.1-30.9,4.5-61.5,7.9-92.1c1.2-10.4,1.4-20.9,2-31.4
		c0.7-10.7,9.5-16.3,15.3-23.7c0.5-0.7,3-0.4,4.3,0.1c11.4,5.1,23.4,1.8,35.1,2.6c7.6,0.5,15.4,0.8,22.8,2.4
		c9.2,2,15.6,11.2,16.6,20.6c1.6,15.5,3.8,30.9,5.2,46.3C1578.3,1187.3,1577.7,1194.9,1577.7,1204.3z M1476.7,1406.1
		c8.8,0,17,0.3,25.2-0.1c6.8-0.3,13.5-1.6,20.3-2c6.7-0.4,13.5-0.1,20.2,0c1.7,0,3.4,0.4,5.1,0.6c4.3,0.5,8.6,1.3,13,1.5
		c1,0,2.9-1.9,3-3.1c0.5-9,1.6-18.1,0.7-27c-0.6-6.3-0.7-12.4-0.8-18.6c-0.1-11.2-2.3-22.4-3.5-33.6c-0.5-4.6-0.6-9.1-0.7-13.7
		c-0.1-2.5,0.1-4.9-0.1-7.4c-0.7-7.4-1.7-14.8-2.2-22.2c-0.4-5.9-0.1-11.9-0.2-17.9c-0.1-5.9,0.5-12-0.8-17.6
		c-1.2-5.2-0.6-10.4-1.2-15.6c-1.4-11.9-1-24-1.3-36c-0.1-2.7,0.4-5.5-0.2-8.1c-3.4-14.1-4.8-28.4-4.7-42.8c0-0.3-0.4-0.6-0.2-0.3
		c-15.5-1.5-30.5-3-45.7-4.5c-0.7,10.1-1.6,20.4-2.2,30.6c-0.6,9.7-1,19.5-1.7,29.2c-1.1,15.5-2.1,30.9-3.5,46.4
		c-1.3,14.1-2.8,28.3-4.5,42.4c-0.5,3.7,0.5,8.8-5.3,9c1,1.8,2.6,3.3,2.6,4.8c-0.2,7.3-0.9,14.5-1.4,21.8c-1,13.6-1.9,27.2-3.1,40.8
		c-1,11.2-1.3,22.6-6.4,33.2C1475.7,1398.4,1476.7,1402,1476.7,1406.1z"/>
	<path class="st0" d="M1203.8,583.3c-1.2,7.5-7.2,4.8-11,5.8c-3.1,0.8-6.5,1.3-7.9-3.2c-0.5-1.7-2.3-3-3.4-4.5
		c-5.7-7.3-3.4-16.3,5-20c1.6-0.7,3.3-1.4,5-1.4c29.1,0.2,57.4-8.7,86.6-7.1c6.3,0.3,12.6,0.2,16,6.7c3.6,7.1,0.9,13.9-2,20.4
		c-0.6,1.3-3.4,2.3-5.1,2.3c-8.6-0.1-17.3-0.5-25.9-1.1c-4.8-0.3-6.2,1.4-6.1,6.3c0.6,17.4,1.4,34.9,1,52.3
		c-0.3,14.3-2.1,28.6-3.2,42.9c-0.1,1-0.2,2,0,2.9c3.1,13.3,1.7,26.7,1.2,40.1c-0.5,16.8-1.6,33.6-1.7,50.3
		c-0.1,8.2,1.7,16.4,2,24.7c0.4,11.9,0,23.8,0.1,35.7c0.1,11.7,0.3,23.4,0.5,35.1c0.4,17.8,0.8,35.7,1.3,53.5
		c0.5,19.5,1,39,1.5,58.5c0,1.7,0.5,4-0.4,5.1c-5.3,6.3-0.6,6.8,4,7.2c6.8,0.6,13.7,1.4,20.6,1.2c7.1-0.1,13,1.6,16.5,8.1
		c2.9,5.5,3.1,11.2-0.8,16.3c-4.4,5.8-10.7,6.7-17.6,6.2c-10.3-0.8-20.6-1.6-30.9-1.7c-5.3-0.1-10.8,2.5-15.5-2.1
		c-0.6-0.6-2.4-0.5-3.3,0c-5,3-9.9,1.5-15,0.4c-5.4-1.2-11-1.6-16.4-2.6c-6.6-1.2-12-11.1-9.3-17.2c2.7-6.2,7.4-10.2,14.1-11.6
		c7.3-1.5,20.5-0.4,26.5,2.6c0.8-4.7,2.1-9.1,2.1-13.5c-0.1-17.7-0.3-35.4-1.1-53.1c-1-21.9-3.1-43.8-4-65.8
		c-0.2-5.7,2.1-11.5,3.4-18c-0.7-6-1.9-13.1-2.4-20.2c-0.6-8-2.2-16.5-0.5-24.1c2.4-11.4-2.6-22.1-1-33.3
		c1.4-10.2,1.1-20.6,0.9-30.9c-0.3-13.6-1.4-27.2-1.7-40.8c-0.2-6.7,0.6-13.4,1-20.1c0.5-8.1,1.2-16.2,1.4-24.4
		c0.5-15,1-29.9,1.1-44.9c0-5.5-0.9-11-2.1-16.4c-0.3-1.3-3.1-2.9-4.8-3c-3.4-0.3-6.9,0.1-10.3,0.6
		C1208.2,588.3,1205,588.2,1203.8,583.3z"/>
	<path class="st0" d="M1379,1123.9c4.5,2.8,5.3,6.2,0.8,9.8c-3.2,2.6-7.7,4.1-11.8,4.8c-3.8,0.6-8-0.4-11.9-0.8
		c-4.4-0.5-8.7,1-13.2-2.2c-2.1-1.5-7.1,0.3-10.5,1.3c-13,3.8-21.3,12.1-22.4,26.1c-1.8,23.9-3.5,47.9-5,71.8
		c-0.8,13.2-1.5,26.5-1.8,39.7c-0.3,11.3,0.4,22.7,0,34c-0.6,17.4-1.9,34.8-2.5,52.2c-0.5,14.2-0.5,28.4-0.7,42.6
		c-0.1,10-0.4,20,0.1,30c0.2,5.7,1.5,11.4,2.7,17c3.8,17.3,6.2,34.7,5.4,52.5c-0.2,3.8-1,8.3,3.7,10.7c0.3,0.1,0.6,0.7,0.5,1
		c-1.5,8.5,5.7,12.9,8.8,19.2c0.6,1.2,1.4,2.4,1.7,3.7c2.8,10.7,11.1,15,20.6,16.2c13.7,1.8,27.7,2.1,41.5,3.2
		c3.3,0.3,6.6-3,10.1,0.9c5.6,6,7.4,15.8,2.4,22.3c-1.8,2.4-5.7,4.4-8.6,4.5c-12.6,0.3-25.3-0.3-37.9-0.5
		c-27.3-0.5-44.6-14.7-54.6-39.3c-6.5-16-12.3-32.2-13.2-49.6c-0.2-3.8,0.4-7.7,0-11.5c-0.5-5.1-1.6-10.1-2.2-15.1
		c-0.5-4.7-0.7-9.5-0.9-14.3c-0.1-2.1,0.5-4.3-0.1-6.3c-3.8-13.6-2.1-27.5-2.5-41.2c-0.3-10.5-0.9-21-1-31.5c0-4.2,0.6-8.4,1.4-12.5
		c1.5-7.6,3.2-15.1,0.1-22.8c-0.8-2-0.1-4.5-0.1-6.8c0.3-7.8,0.6-15.7,0.8-23.5c0.5-18.2,0.9-36.5,1.4-54.7
		c0.2-5.8,0.6-11.5,0.9-17.3c0.8-19.5,1.1-39,2.3-58.5c0.6-9.9,1.4-20.2,4.9-29.3c5.8-15,12.9-29.8,31.7-33.2
		c3.8-0.7,6.9-4.7,10.7-5.6c5.8-1.3,12-1.8,18-1.5c7,0.3,14.2,1.1,20.9,2.9c3.8,1,7,4.5,10.2,7.3
		C1380.3,1119.9,1379.3,1122.2,1379,1123.9z"/>
	<path class="st0" d="M694.3,1391.2c-5.8,2.9-5.5,6.8-5.2,12.2c0.5,10.3,5,20.6,0.4,31.1c-1,2.4,0.1,5.7,0.1,8.5
		c-0.3,10.3-0.6,20.6-1,30.9c-0.1,2.1-1.2,4.2-1,6.2c1.4,13.1,3.2,26.2,4.4,39.4c0.4,4.4-0.6,9-1.3,13.4c-0.4,2.2-1.9,4.3-2.3,6.5
		c-2.3,13.7-0.2,16,13.7,16.5c13.4,0.5,26.9,1.5,40.3,2.2c9.7,0.6,19.4,0.8,29,1.7c10,0.9,16,7.8,16,17.2c0,5.5-2.9,8.9-8.3,8.9
		c-10.7-0.1-21.5-0.5-32.2-0.8c-1.3,0-2.7,0.1-4,0.2c-7.4,0.3-14.5,0.9-22-1.2c-8.9-2.4-18.6-2-27.9-2.7c-4.8-0.3-9.6-0.2-14.4-0.5
		c-7.9-0.5-12.4-4.4-12.6-12c-0.5-15.7-0.3-31.5-0.5-47.2c-0.1-5-0.9-10-0.9-15c0-28.8,1.1-57.7-0.2-86.5
		c-0.8-18.1,0.6-35.8,1.8-53.8c1-15.7-0.3-31.5,0.1-47.3c0.5-17.9-0.2-35.8-0.4-53.7c-0.3-22.1,1.1-44.2,1.2-66.3
		c0-8.3-2.4-16.7-2.6-25c-0.4-17.8-0.1-35.7-0.1-53.5c0-7.1,3.3-11.5,9.4-12.5c6.7-1.1,12.5,2.2,14.6,8.5c0.7,2,1,4.1,1.1,6.2
		c0.8,14.5,1.5,29,2.2,43.5c0.1,1.5-0.3,3-0.5,4.5c-0.4,4.5-2.2,9.4-1.1,13.4c4.4,16.5,4,32.9,1.9,49.6c-1.4,11.7-1,23.7-1.2,35.6
		c-0.2,12.7-0.3,25.3,0,38c0.4,13.5,1.6,26.9,1.9,40.4c0.1,7.2,0.1,14.8-2,21.7C687.9,1377.7,688.8,1384.2,694.3,1391.2z"/>
	<path class="st2" d="M1939.5,868.2c1-20.6,1.8-41.1,2.9-61.7c0.5-9.2,2-18.3,2.1-27.4c0.1-6.8-1.7-13.6-2.1-20.5
		c-0.6-11.3-0.8-22.6-1.2-33.9c-0.1-1.9-0.2-3.9,0-5.8c0.9-7.9-1.2-15.7,2.8-23.9c2.8-5.7,0.7-13.8,0.7-20.8c0-18.3-0.1-36.5,0-54.8
		c0.3-36.9,0.8-73.8,1.1-110.7c0-5.1-1.2-10.3-1.2-15.4c0-11,0.3-22.1,0.6-33.1c0-1.1,0.6-2.2,0.6-3.4c0.5-11.9,1.1-23.7,1.2-35.6
		c0-3-1.9-6-2.3-9.2c-0.6-5-0.8-10.1-0.8-15.2c0-2.8,0.7-5.7,0.8-8.5c0.5-17.6,0.8-35.3,1.2-52.9c0.3-13.8,1-27.6,1.1-41.4
		c0.2-21.5,0-43,0-64.5c0.9,0,1.8,0,2.7,0c0.5,24.9,1.2,49.7,1.4,74.6c0.1,13.2-0.7,26.4-1.1,39.7c-0.8,30.7-1.9,61.4-2.1,92
		c-0.1,10.4,2.2,20.7,3.1,31.1c0.2,2.8-0.9,5.7-0.9,8.5c-0.1,41.9-0.2,83.9,0,125.8c0.2,34,1.2,68,0.9,102
		c-0.2,23-2.2,45.9-3.3,68.8c-0.6,13.4-0.5,26.9-1.3,40.3c-1.1,17.3-2.9,34.6-4.5,52c-0.1,1.5-0.9,2.9-1.4,4.3
		C1940.2,868.4,1939.8,868.3,1939.5,868.2z"/>
	<path class="st2" d="M1942.3,651.4c0,14.3,0,28.6,0,42.9c-0.2,0-0.5,0-0.7,0c0-14.3,0-28.6,0-42.9
		C1941.8,651.4,1942,651.4,1942.3,651.4z"/>
	<path class="st1" d="M588.9,768.5c5.4,1.9,8.7,2.9,11.7,4.3c12.5,5.8,25.1,11.4,37.3,17.7c4.2,2.2,7.8,5.9,11.3,9.3
		c4.6,4.4,9.2,8.8,13,13.8c3.9,5.1,7.5,10.6,9.9,16.5c5.1,12.2,9.5,24.7,13.7,37.2c1.8,5.3,2.5,11,3.8,16.5
		c1.6,6.9,4.4,13.7,4.7,20.6c0.7,16.1,1.6,32.1-2.2,48.4c-3.1,13.2-9.4,21.4-20.3,29c-14.6,10.1-30.1,14.3-47.1,15.5
		c-7.6,0.6-15.1,2.1-22.7,2.9c-9.8,1-10.5,0.4-9.3-9.1c2.2-17.4,0.7-34.7-0.5-52.1c-1.2-16.2,0.1-32.6-0.1-48.9
		c-0.2-12.6-0.9-25.2-1.5-37.8c-0.3-6.9-1.4-13.8-1.5-20.7C588.8,811.2,588.9,790.7,588.9,768.5z"/>
	<path class="st1" d="M590.4,581.2c2.8,0.3,5.2,0.7,7.6,0.8c6.8,0.3,13.6,0.4,20.4,0.7c3.2,0.2,6.7,0.2,9.6,1.5
		c7.7,3.3,15.3,7,22.6,11.1c5.2,3,8.5,7.1,9,14.2c0.4,5.8,4,11.6,7,16.8c7.6,13.1,7.7,26.5,3.5,40.6c-0.8,2.5-0.4,5.3-0.3,8
		c0.8,20-13.8,42.9-32.8,49.7c-11.3,4-23.2,6.5-34.9,9.6c-3.3,0.9-6.7,1.4-10.9,2.2c0.2-12.4-7.8-23.5-3.5-36.5
		c1.5-4.6,2.1-10.6-3-14.7c-0.6-0.5-0.5-2.1-0.3-3.1c0.8-3.7,2.6-7.4,2.6-11.2c0.3-20.8-0.1-41.7,0.3-62.5
		C587.8,599.6,589.4,590.9,590.4,581.2z"/>
	<path class="st1" d="M514.5,1135.6c7.8,7.2,15.9,5.1,23.5,5.9c3.2,0.3,6.1,2.8,9.2,4.4c7,3.6,14.1,7,20.8,11.1
		c3.8,2.4,7.8,5.6,9.8,9.5c4.5,8.5,11.2,16.1,11.9,26.5c0.4,5.5,2,11,2.6,16.5c1.7,14.4,4.1,28.9,4.6,43.4
		c0.4,12.8-1.9,25.7-2.1,38.5c-0.1,9.1-1.3,17.8-5.2,26.1c-1,2.2-1.5,4.8-1.7,7.3c-0.9,9-5.7,15.7-12.6,21
		c-7.1,5.4-14.2,10.9-21.9,15.5c-6.7,4-14,7-21.2,10c-2.5,1.1-5.3,1.3-5.6-3c-1-13.4-2.7-26.7-3.3-40.1c-0.9-19.6-1-39.3-1.7-59
		c-0.1-3.5-1.8-6.9-2.3-10.4c-0.3-1.9,0.6-4,0.5-6c-0.7-15.1-1.7-30.2-2.3-45.4c-0.2-4.3,0.7-8.7,0.7-13.1c0-13.4,0.7-26.8-2.5-40.1
		C514.4,1148.7,514.9,1143,514.5,1135.6z"/>
	<path class="st1" d="M526.3,1403.3c3,0.2,5.8,0.2,8.6,0.7c16.2,3.3,31.9,8.5,45.3,18c12.2,8.7,21.8,20.5,25.5,35.7
		c2.2,8.9,3.6,18,5.2,27.1c3.3,18.5-1.5,36.3-5.9,53.9c-2.3,9.2-22,23.4-30.8,22.7c-13.9-1.1-27.9-2.4-41.8-3.4
		c-3.5-0.3-5-1.6-5.1-5.3c-0.1-22.7-2-45.5-0.2-68C529.2,1457.8,527.7,1431,526.3,1403.3z"/>
	<path class="st1" d="M1474,750.4c-6.5,11.3-0.6,22.1,0.2,32.8c1.5,18.8,4.2,37.4,6.8,56.1c0.7,5.1-1,7.5-5.9,7.2
		c-6.5-0.4-13-1.2-19.5-1.8c-3.2-0.3-6.5-0.4-9.8-0.7c-9.8-0.7-19.6-1.9-29.4-2c-8.6-0.1-17.3,1-25.9,1.5c-6,0.4-6.9-0.9-6-6.9
		c3.2-21,6.1-42.1,9.4-63.1c1.6-10,4-19.9,6-29.9c0.3-1.3,0.5-2.6,0.6-4c1-15,1.2-30.1,3.1-45c1.4-10.9,5.7-21.5,7.2-32.4
		c2.1-15.1,2.6-30.5,4.3-45.7c0.7-5.8,2.8-11.5,4.4-17.3c0.5-2,1.5-4,1.8-6c0.4-2.6-0.5-6.5,0.9-7.7c2.7-2.2,6.5-3.3,10.1-3.8
		c6.8-1.1,13.7-1.7,20.6-2.1c1.3-0.1,3.5,1.6,3.8,2.8c0.7,2.9,0.6,6.1,0.7,9.2c0.3,8.6,0.7,17.2,0.7,25.8c0,2.6-1.4,5.2-2,7.8
		c-0.6,2.7-1.9,5.6-1.4,8.1c3.6,16.1,3.8,32.3,3.6,48.7c-0.1,6.9,1.5,14.1,3.8,20.6c4.5,13,3.9,26.4,5.3,39.7
		C1468,746.2,1466.9,751.5,1474,750.4z"/>
	<path class="st1" d="M883.2,750.7c-6.2,5.2-3,11.1-2.3,16.6c3,24.2,5.9,48.5,9,72.7c0.5,4.1-0.7,6.6-5,6.4
		c-6.7-0.4-13.4-1.1-20-1.6c-3.8-0.3-7.7-0.4-11.5-0.7c-9.2-0.7-18.5-1.8-27.7-1.9c-8.8-0.1-17.6,1-26.5,1.5
		c-5.7,0.3-6.7-0.9-5.9-6.5c2.6-17.4,5-34.9,7.8-52.3c2.3-13.8,5.1-27.5,7.6-41.3c0.3-1.5,0.4-3,0.5-4.5c1.1-17.1,1.8-34.3,3.6-51.3
		c0.8-7.1,4.8-13.9,6-21c2-12.8,2.7-25.9,4.4-38.7c1.3-9.6,3.4-19.2,5.2-28.8c0.5-2.6,2.1-5.3,1.7-7.8c-0.8-5.6,2-7.8,6.7-8.5
		c8.5-1.3,17.1-2.4,25.7-3.3c1-0.1,2.9,1.8,3.1,3c0.6,3,0.5,6.1,0.6,9.2c0.3,8.4,0.7,16.8,0.7,25.2c0,2.8-1.4,5.6-2,8.4
		c-0.6,2.5-1.9,5.3-1.4,7.6c3.8,16.5,4,33.1,3.6,49.8c-0.2,6.5,1.7,13.3,3.8,19.5c4.6,13.1,4.2,26.8,5.5,40.3
		C876.8,746.1,875.6,751.3,883.2,750.7z"/>
	<path class="st1" d="M889.1,1137.6c15.6,1.5,30.6,3,46.5,4.6c0,2.5-0.2,5.6,0,8.5c0.9,9,2,17.9,2.9,26.8c0.6,5.7,1.2,11.4,1.4,17.2
		c0.5,11.6,0,23.4,1.5,34.8c0.6,4.5-0.3,8.8,0.8,13.3c1.1,4.7,0.5,9.8,0.7,14.8c0.2,5.2,0.3,10.4,0.7,15.5
		c0.7,9.9,1.6,19.8,2.3,29.7c0.2,2.4-0.1,4.9,0,7.4c0.2,4.4,0.2,8.8,0.7,13.2c1.2,10.6,2.8,21.2,3.7,31.9c0.3,3.1-0.9,6.3-1.4,9.5
		c-0.1,0.9-0.8,2.1-0.4,2.7c4.4,7,2.1,14.6,1.8,22c-0.2,4.2,0.2,8.5-0.2,12.7c-0.2,1.5-2,3.8-3.2,4c-3.4,0.4-6.9-0.2-10.3-0.3
		c-14.1-0.6-28.4-2.8-42.2-1.1c-8.2,1-16.2,1.1-24.3,1.2c-6.9,0.1-9.6-3.2-6.6-9.7c4.7-10.3,5.6-21.1,6.4-32
		c1.5-19.5,2.6-39.1,3.7-58.6c0.2-3.3,3.6-7.6-1.1-9.2c1.4-2.2,3.7-4.2,3.9-6.3c1.9-20.2,3.2-40.5,5-60.7c1.1-11.7,3-23.2,4.2-34.9
		c0.8-7.6,1-15.3,1.4-22.9C887.9,1160.1,888.5,1148.7,889.1,1137.6z"/>
	<path class="st1" d="M1476.7,1406.1c0-4-1-7.7,0.2-10.3c5-10.6,5.3-22,6.4-33.2c1.2-13.6,2.1-27.2,3.1-40.8
		c0.5-7.2,1.2-14.5,1.4-21.8c0-1.5-1.6-3-2.6-4.8c5.8-0.3,4.8-5.4,5.3-9c1.7-14.1,3.3-28.2,4.5-42.4c1.4-15.4,2.4-30.9,3.5-46.4
		c0.7-9.7,1.1-19.5,1.7-29.2c0.7-10.3,1.5-20.5,2.2-30.6c15.2,1.5,30.3,3,45.7,4.5c-0.2-0.3,0.2,0.1,0.2,0.3
		c-0.1,14.5,1.3,28.7,4.7,42.8c0.6,2.6,0.1,5.4,0.2,8.1c0.3,12-0.1,24.1,1.3,36c0.6,5.2,0.1,10.3,1.2,15.6
		c1.3,5.6,0.7,11.7,0.8,17.6c0.1,6-0.2,11.9,0.2,17.9c0.5,7.4,1.5,14.8,2.2,22.2c0.2,2.4,0,4.9,0.1,7.4c0.2,4.6,0.3,9.2,0.7,13.7
		c1.2,11.2,3.3,22.4,3.5,33.6c0.1,6.3,0.2,12.4,0.8,18.6c0.9,8.9-0.2,18-0.7,27c-0.1,1.1-2,3.1-3,3.1c-4.3-0.2-8.7-0.9-13-1.5
		c-1.7-0.2-3.4-0.6-5.1-0.6c-6.7-0.1-13.5-0.3-20.2,0c-6.8,0.4-13.5,1.7-20.3,2C1493.7,1406.3,1485.5,1406.1,1476.7,1406.1z"/>
</g>
</svg>
