<?xml version="1.0" encoding="utf-8"?>
<!-- Generator: Adobe Illustrator 19.2.1, SVG Export Plug-In . SVG Version: 6.00 Build 0)  -->
<svg version="1.1" id="Calque_1" xmlns="http://www.w3.org/2000/svg" xmlns:xlink="http://www.w3.org/1999/xlink" x="0px" y="0px"
	 viewBox="0 0 2068 2230.8" style="enable-background:new 0 0 2068 2230.8;" xml:space="preserve">
<style type="text/css">
	.st0{fill:#FFF8F5;}
	.st1{fill:#A1202A;}
</style>
<path class="st0" d="M2046.7,2077.5c-663.9,0-1327.8,0-1991.7,0c0-665.1,0-1330.1,0-1995.2c663.9,0,1327.8,0,1991.7,0
	c-0.1,2.5-0.1,5.1-0.1,7.6c0,660,0,1320,0,1980C2046.6,2072.4,2046.7,2074.9,2046.7,2077.5z M1005.3,153.3c-0.3-0.3-0.7-0.7-1-1
	c1.5-2.3,3.1-4.5,5.4-8c-9.6-1-18.1-1.8-26.6-2.7c-0.3,0.7-0.6,1.4-1,2.1c2.3,3.3,4.6,6.5,6.8,9.6c-7.6,0.9-12.9-9.6-22.1-3.5
	c2.6,1.5,4.2,2.4,5.7,3.3c-0.2,0.5-0.3,1-0.5,1.5c-5.4,0-10.8-0.2-16.2,0c-5.9,0.2-9.2-2.6-11.5-7.8c-1.2-2.7-3.8-5.6-6.4-6.6
	c-10-4-20-1.7-30,1.1c2.1,1.4,4.3,2.6,6.6,2.8c4.3,0.4,8.6-0.1,12.9,0.2c1.9,0.2,3.7,1.6,5.6,2.5c-1.2,2.3-2,4.8-3.6,6.7
	c-1,1.2-3.2,1.4-4.9,2c0,0.3,0.1,0.6,0.1,0.9c9.9,0.9,19.7,1.7,31.3,2.7c-2.6,1.3-3.8,2.4-5,2.5c-7.7,0.7-15.4,1.3-23.2,1.8
	c-2.1,0.1-4.2-0.4-6.3-1c-9.2-2.5-18.4-4.6-28.2-4.5c-22.7,0.1-45.5-1-68.2-1.7c-1.5,0-3-0.6-4.5-0.9c-4.9-0.9-9.8-1.7-14.8-2.6
	c-0.2,0.6-0.4,1.2-0.6,1.8c2.7,1.6,5.4,3.2,8.5,5c-1.3,0.9-2.1,1.9-2.8,1.9c-10,0.1-19.9,0.5-29.9-0.1c-11-0.6-21.9-2.1-32.8-3.2
	c-1-0.1-1.9,0.1-2.9,0.2c-7.7,0.9-15.4,1.9-23,2.8c-0.1-0.5-0.2-1.1-0.3-1.6c3.3-0.6,6.6-1.2,10.2-1.9c-10.3-6.7-70.9-7-87.9-0.2
	c2.2,0.9,4,1.8,5.9,2.6c1.8,0.7,3.6,1.4,5.5,2c-0.1,0.5-0.3,1-0.4,1.5c-16.7-8.5-34.2-4.1-51.4-3.6c-9.7,0.3-19.3,1.1-29,1.5
	c-0.7,0-1.4-0.8-0.9-0.5c2.3-3.3,4.5-6.5,6.9-10c-12.7-1.3-25.5-2.5-38.3-3.8c-2.5-0.3-4.9-0.8-7.3-1.5c-6.4-1.9-10.3-0.1-13.5,5.7
	c-1,1.9-3.3,4.4-5,4.4c-6.4,0-12.7-0.9-19.1-1.6c-8.3-1-16.6-2.6-25-3.3c-7-0.6-14.1,0.3-21.1-0.3c-3.9-0.3-7.5-2.4-11.4-3.4
	c-1.5-0.4-3.3-0.1-4.9-0.1c0,0.7,0,1.4,0,2c6.3,2.4,12.5,4.8,18.8,7.2c-0.1,0.5-0.2,1-0.3,1.5c-1.6,0-3.3,0.1-4.9,0
	c-6.5-0.6-13-1.2-19.6-1.8c-2.1-0.2-4.5,0.3-6.4-0.5c-5.2-2.2-10.1-1.6-14.3,1.8c-7.9,6.3-17.1,5.7-25.8,3.9
	c-16.1-3.4-32.3-4.3-48.6-5.1c-11.3-0.5-22.7-0.1-34-0.1c-13.5,0-26.4-3.4-39.5-6.3c-14-3.1-28.9-2.1-43.5-2.1
	c-9.4,0-18.5,3.9-28.2,1.5c-10.1-2.5-10.5-2.4-6.2-11c0.1-0.3-0.1-0.7-0.4-2.1c-4.2,0.7-8.4,1.9-12.6,2c-9.6,0.3-19.2,0.3-28.7,0
	c-6.7-0.2-13.4-1.2-20.1-1.7c-2.8-0.2-6-0.9-6.1,3.9c-0.2,8-0.7,15.9-1.1,23.9c-0.4,8.9-1.1,17.9-1.2,26.8
	c-0.1,8.6,0.2,17.3,0.4,25.9c0.9,0,1.8,0.1,2.6,0.1c2-13.6,3.9-27.2,5.9-40.8c0.7,0,1.3,0.1,2,0.1c0.7,6.3,2,12.5,1.9,18.8
	c-0.3,11.4-1.5,22.9-2.2,34.3c-0.9,16.1-1.7,32.2-2.3,48.4c-0.6,16.2-1.2,32.3-1.1,48.5c0.1,22.8,0.6,45.6,1.1,68.5
	c0.3,12.9,0.8,25.7,1.1,38.6c0.8,28.8,1.6,57.7,2.3,86.5c0.4,16.4,0.6,32.7,1.3,49.1c0.3,8.5,1.4,17,2.1,25.5c0,0.3-0.3,0.6-0.7,1.1
	c-1-0.7-2-1.4-4.1-2.8c0,21.3,0,41.7,0,63.5c1.1-9.8,2.1-18.1,3.1-26.5c0.7,3.2,0.9,6.3,0.7,9.4c-1.5,20.3-3.6,40.6-4.5,61
	c-1,22.4-1.3,44.9-1.1,67.3c0.1,9.4,2.4,18.8,2.8,28.3c0.6,13,0.5,26,0.7,38.9c0.1,4.7,0,9.3,0.4,13.9c0.2,2.4,1.7,4.9,1.4,7.2
	c-0.8,7.3-2.8,14.4-3,21.7c-0.7,24.8-1,49.5-1.3,74.3c-0.2,16.2,0,32.5,0,48.7c0,1.7,0.1,3.3,0.2,5c5.9-19.6,3.3-39.7,3.3-59.6
	c1.2,5,2.2,10.1,2.2,15.2c-0.1,16-0.7,32-1.1,47.9c-0.4,22-0.5,44.1-1.3,66.1c-0.3,8.7-2,17.3-3.4,25.9c-1.2,7.2-4.3,14.3-4.4,21.4
	c-0.2,21.6,0.5,43.3,1,64.9c0,1.6,1,3.2,1.5,4.8c0.3-0.1,0.7-0.1,1-0.2c1.5-8.1,3-16.2,4.4-24.2c-4.8,32.3-6.1,117.5-5,130.6
	c0.8-2.7,1.6-4.3,1.7-5.9c0.5-9.5,1.1-19.1,1.2-28.6c0.2-17.2,0-34.4,0.2-51.6c0.1-5,1.1-10.1,1.7-15.1c0.9,2.7,0.3,5.1,0.2,7.6
	c-0.5,10.9-0.9,21.8-1.2,32.7c-0.5,18.5-0.6,37-1.3,55.5c-0.3,8.3-1.3,16.6-2.1,24.9c-0.3,3.9-1.4,7.8-1.1,11.5
	c0.7,8.7,2.9,17.3,3.1,25.9c0.8,32.3,0,64.6-3.3,96.9c-2.1,20.5-3.9,41-4.5,61.5c-0.6,19.1,0.8,38.2,0.9,57.3
	c0.2,32.3,0.1,64.5,0.1,96.8c0,1.9,0,3.8,0,5.7c0.5-0.5,1-0.9,1.6-1.4c1,0.7,2.5,1.1,3,2c1.5,3.5,2.7,7.1,4.3,11.2
	c1.1-1.4,1.9-2.2,2.9-3.4c0,12.8,0.7,25.2-0.2,37.4c-0.9,12.1-3.8,24-5.4,36.1c-0.9,6.8-1,13.7-1.4,20.6c0.4,0,0.7,0,1.1,0.1
	c1.4-5.1,2.7-10.3,4.5-16.8c1.8,28.6-6.4,55.4-3.9,82.5c0.6,0,1.2,0.1,1.8,0.1c0.2-1.2,0.5-2.4,0.7-3.6c0.2,0,0.4,0,0.6,0.1
	c0,2.9,0,5.7,0,8.6c0,38.9,0,77.8,0,116.7c0,2.9,0.7,5.8,0.9,8.7c0.4,6.5,1.6,13.1-4.6,18.2c-3.5,2.9-3,7.2,0.1,11.8
	c0.4-2.3,0.7-4.7,1.1-7c0.3-0.5,0.6-0.9,1-1.4c5.6,10.7,13.7,5.5,21.8,4.1c-5,6.1-5,6.1,4.2,9c2.2-1.6,4-3.8,6.2-4.4
	c6.1-1.6,12.6-2.1,18.6-4c5.1-1.6,8.9,2.2,13.7,2.1c7.1-0.2,14.2,0.9,21.2,2c3,0.4,5.7,2.3,8.6,3c2.1,0.6,4.5,0.4,6.7,0.6
	c0.1-0.6,0.1-1.3,0.2-1.9c-4.5-1.7-9-3.4-13.5-5.1c1.2-1,2.1-0.9,2.9-0.7c8.7,1.3,17.4,3.3,26.2,3.7c14.6,0.6,29.3,0.1,44,0.2
	c5.1,0,10.3-0.3,15.3,0.5c12.3,1.9,24.5,4.6,36.8,6.6c12.5,2,25.1,3.5,37.7,5.3c4,0.5,7.9,1,12.9,1.6c-2.3-1.8-3.7-2.9-6-4.8
	c12-0.2,22.6-1.6,32.5,5.2c9,6.2,18,13.2,30.5,6.1c4.6-2.6,11.3-2,17-2.3c6.6-0.4,13.3,0.1,19.9-0.2c1.7-0.1,3.3-1.7,4.9-2.6
	c5.5-0.1,11.4,1,17.1,2.7c12.2,3.5,24.2,7.3,36.4,10.8c1.4,0.4,3-0.1,5.8-0.2c-7.1-6.8-17.1-5.2-21.7-13.6
	c5.9-0.4,11.5-0.1,17.1,0.5c6.5,0.7,13.6,3.5,19.3,1.8c4.9-1.5,8.9-1.9,13.5-0.9c1.3,0.3,2.6,0.9,3.9,1.1c4.9,0.8,10.5,3.3,14.6,1.8
	c5.2-1.9,9.1-7.1,13.9-11.1c-6-4.4-14.4-3.1-17.7-12.7c6.6,2.8,11.7,5,17,7.1c2.8,1.1,5.7,2.7,8.5,2.7c10.1-0.2,20.1-1.3,30.2-1.4
	c6.7-0.1,13.6,2,20.2,1.2c6.4-0.8,11.6,1.6,17.3,2.8c5.6,1.2,11.3,2.6,17,2.8c12.5,0.6,25.3-1.3,36.6,6.5c0.7,0.5,2.4-0.4,3.6-0.9
	c3-1.3,5.9-3.9,8.9-4c10.3-0.4,19.9,1.3,27.2,10c2.6,3,7,5.8,10.8,6.2c7.8,1,15.9,0.3,24.1,0.3c-2.5-5.6,1.3-6.4,4.6-7.1
	c10.2-2,20.4-3.8,30.6-5.4c5.5-0.9,11.1-1.7,16.6-1.7c6.7,0.1,13.4,1.1,20.2,1.7c5,0.5,10,1.2,15,1.5c2.7,0.2,5.5,0,9.7,0
	c-8.4-8.3-18-4.6-26.4-7.2c1.6-1.7,3.2-2.8,5-3.5c12.8-4.7,25.6-0.5,38.4,0.5c12.1,0.9,24.2,2.1,36.4,2.9c1.1,0.1,3.2-1.2,3.3-2.1
	c0.8-4.9,4.2-3.1,6.8-2.9c3,0.3,6,1,9,1.6c8.1,1.5,16.6,2.1,24.2,4.9c10.4,3.9,20.1,9.8,30.2,14.5c1.6,0.7,4-0.3,6-0.5
	c-0.9-1.7-1.4-4-2.8-4.9c-4-2.7-8.3-4.9-13.4-7.8c8.5-1,15.9-2.5,23.3-2.5c15.7,0.1,31.5,1.2,47.2,1.5c18,0.3,36,0.2,54-0.1
	c2.2,0,4.5-2.1,6.7-3.2c-0.2-0.6-0.4-1.3-0.6-1.9c-6.2-1.5-12.5-3.1-18.7-4.6c3.4-0.6,6.6,0.5,9.8,0.8c9.9,0.8,19.7,1.6,29.6,1.9
	c10.4,0.3,20.7-0.4,31.1,0.2c10.4,0.6,20.7,2.2,31,3.3c7,0.7,14,1.8,21,1.9c5.9,0.1,11.9-0.9,17.8-1.8c3.6-0.6,7.1-2,10.7-2.8
	c2-0.4,4.2-0.3,6.3-0.4c0.1,0.5,0.1,1,0.2,1.4c-2.1,0.9-4.2,1.8-6.4,2.7c5.1,8.2,84.3,15.1,102.7,9c-1.3-0.7-2.3-1.3-3.8-2
	c1-0.3,1.6-0.7,2.1-0.7c13.8,0.6,27.6,1,41.3,2c10.6,0.8,21.1,2.4,31.6,3.7c13.5,1.7,27,4.7,40.5,5c17,0.4,34.2,2.3,51-2.2
	c-0.6-2.6-1.1-5-2.1-9.5c7.2,1.4,14.4,0.7,18.4,4c10.5,8.4,21.8,9.1,34,7.6c1.5-2-2.8-7.4,2.9-6.2c6.7,1.4,13,4.5,19.5,6.9
	c-0.1,0.6-0.1,1.3-0.2,1.9c-5.1,1.3-10.2,2.5-15.4,3.8c0.1,0.2,0.2,0.4,0.2,0.7c11.9,0,23.8,0,35.7,0c0.1-0.3,0.1-0.7,0.2-1
	c-3.8-1.9-7.5-3.9-10.8-5.6c6.6-0.6,13.4-1.9,20.2-1.8c31.4,0.4,62.7,1.2,94,1.8c0.8,0,1.5,0.2,2.3,0.2c12.4,0.4,24.8,1.4,37.2,1.1
	c14.1-0.3,27.8-4.7,42.4-1.8c15.8,3.2,32.1,4.3,48.2,5.5c16.5,1.2,33,1.5,49.5,2.1c1.2,0,2.5-0.3,3.8-0.5c-1.8-9-9.7-11.2-16.4-15.5
	c12.8-1.7,23.9,1.1,35.1,4.5c6.7,2,13.8,3.6,20.8,3.8c5.3,0.2,10.7-2.1,16-3.4c0.9-0.2,2.1-1.2,2.3-2.1c0.7-3,1.2-6.1,1.3-9.2
	c0.9-19.3,1.7-38.5,2.4-57.8c0.6-17.5,0.8-35.1,1.2-52.6c0.3-9.7,0.6-19.5,1.3-29.2c0.3-5.4,1.5-10.8,1.9-16.2
	c0.9-11.3,1.5-22.7,2.2-34c-0.6,0-1.2-0.1-1.8-0.1c-0.6,6.1-1.2,12.2-1.9,18.3c-0.7-33.9-2.3-67.7-4.1-101.4
	c-0.6-11.2-2.4-22.4-3.1-33.6c-0.5-7.4-0.1-14.9-0.1-22.4c0.4,0,0.8-0.1,1.3-0.1c0.8,1,1.6,2.1,3.3,4.3c0-20.2,0-38.8,0-57.5
	c-0.2-0.1-0.4-0.1-0.5-0.2c-1.1,7.8-2.2,15.6-3.3,23.5c-0.7,0-1.4-0.1-2.1-0.1c0-9.5-0.1-19,0-28.5c0.1-7,0.8-14,1.1-21
	c0.8-19.1,1.6-38.1,2.3-57.2c0.8-21.6,1.8-43.2,2.3-64.8c0.2-8.3-1-16.7-1-25.1c-0.2-20.3,0-40.7-0.1-61c0-4.4-1.2-8.9-1-13.3
	c0.6-16.5,1.7-33,2.2-49.6c0.4-12.9,0.2-25.9,0-38.8c-0.1-5.2-1.1-10.5-0.9-15.7c0.3-6.8,1.7-13.5,2.1-20.2
	c1-15.5,1.9-31.1,2.3-46.6c0.6-22,0.9-44.1,1.2-66.1c0.2-15.1-0.4-30.3,0.2-45.4c0.7-20,2.2-40,3.4-60c0.1-1.9,0-3.7,0-5.6
	c-0.6-0.1-1.2-0.1-1.8-0.2c-0.6,4.1-1.1,8.2-1.7,12.3c-0.4,0-0.8,0-1.2-0.1c0-8.3,0-16.6,0-24.9c-0.4,0-0.8-0.1-1.2-0.1
	c-0.8,3-1.6,5.9-2.4,8.9c-0.5-0.1-1-0.2-1.5-0.3c0.5-6.7,1.4-13.3,1.5-20c0.9-44.6,1.6-89.1,2.5-133.7c0.1-7.6,0.7-15.2,1.2-22.7
	c1.5-21.1,3.5-42.2,4.5-63.4c0.7-13.5,0.1-27.1,0.1-40.7c0.6,24.6,0.6,49.1,0.6,73.7c0,3.7,0.2,7.4-0.1,11.1
	c-1.2,13.8-3.2,27.3-0.5,41.6c2.2,11.5-0.6,24-0.8,36.1c-0.1,5.9,0.5,11.8,1,17.7c0.3,3.8,1.6,7.7,1.4,11.5
	c-0.5,13.2-1.8,26.4-2.1,39.6c-0.2,9.2,0.8,18.4,1,27.6c0.2,7.6-0.1,15.3,0.1,22.9c0.1,2.7,1.2,5.5,1.8,8.2c0.7-0.1,1.4-0.3,2.1-0.4
	c0-2.3,0-4.5,0-6.8c0-299.1,0-598.2,0-897.3c0-2,0.4-4.1-0.2-5.8c-0.6-1.6-2.2-2.9-3.3-4.2c-1.1,22-2.1,43-3.1,64
	c-0.3,0-0.6,0-1-0.1c0-16.6,0-33.2,0-50.3c-1.2,0.5-1.9,0.9-2.6,1c-8.6,2.1-16.7,5.4-26.4,3c-15.8-4-32-8-48.8-0.6
	c-0.4-7.9-5.7-7.8-11.2-7.4c-2.1,0.2-4.3,0.1-6.4,0c-5.8-0.4-9.8,1.9-13,6.9c-1.6,2.5-4.6,5.1-7.4,5.8c-8.9,2.1-18,3.3-27.1,4.9
	c0.2-0.8,0.3-1.7,0.5-2.5c-0.8-1.2-1.5-3.2-2.5-3.4c-3.2-0.7-6.6-0.3-9.8-1c-5.3-1.2-5.2-1.5-7.6,2c1.7,0.5,3.3,1,5,1.5
	c-0.1,0.5-0.3,1-0.4,1.5c-14.3-3.1-28.6-6.3-42.9-9.3c-1.8-0.4-3.9,0.3-5.8,0.5c1.2,1.7,2.3,3.6,3.8,4.9c1.4,1.3,3.4,2,5.1,2.9
	c-0.2,0.6-0.3,1.2-0.5,1.8c-5.9-0.9-11.8-1.7-17.6-3c-1-0.2-1.3-3.2-2.2-4.7c-1-1.7-2.2-4.6-3.5-4.7c-7.2-0.5-14.4-0.3-21.7-0.2
	c-0.9,0-1.7,1.2-2.5,1.8c0.9,0.7,1.8,1.8,2.9,2.1c3,1,6.1,1.7,9.2,2.5c-22.8,8.8-45.4,1.6-69.5-1.5c2.8,3.2,4.1,4.7,6.2,7
	c-4.7,1.1-8.3,1.9-11,2.5c-0.7-3.7-0.8-8-1.7-8.1c-2.6-0.5-5.5,0.6-8.2,1.2c-1.6,0.3-3.1,1.3-4.7,1.3c-10.8,0.4-21.8-1.3-32.2,3.4
	c-1.6,0.7-3.7,0.1-5.6,0.1c-0.1-0.3-0.1-0.7-0.2-1c4.2-1.4,8.4-2.7,12.6-4.1c-10.2-7.5-21.3-1.8-32.5-4.6c5.1-1.9,9.2-3.4,13.4-4.9
	c-0.1-0.6-0.2-1.2-0.3-1.8c-18.3-5-35.2,3.6-52.7,6.2c0,0.6-0.1,1.1-0.1,1.7c6.6,0,13.3,0,19.9,0c-1.7,1.8-3.6,3-5.6,3.2
	c-13.1,1.4-26.1,2.9-39.2,3.6c-10.1,0.6-20.3,0.6-30.4,0c-10-0.6-19.9-2.1-29.8-3.5c-2.6-0.4-6.2-1-7.2-2.8c-1-1.7,0.7-5,1.4-8
	c-1.5-0.5-3.4-1.5-5.5-1.9c-5.2-1.1-10.7-1.5-15.8-3c-8.2-2.4-14.4,1.8-14.3,9.3c0.1,3.6-1.7,6.5-6,6.4c-7.6-0.1-15.2-0.3-22.7-0.5
	c-0.4,0-0.7-0.8-1.1-1.3c1.5-1,2.8-1.8,5.6-3.6c-19-8.6-38.2-9.2-56.9-12.5c-0.2,0.5-0.3,0.9-0.5,1.4c6.9,3.3,13.8,6.7,21,10.2
	c-13.3,4-25.9-4.5-38.5,0.6c0-0.4-0.2-0.9-0.1-1.1c3.9-7.4,3.6-7.1-5.1-7.9c-13.3-1.3-26.4,3.6-39.6,0.3c-0.3-0.1-0.8,0.6-1.4,1.1
	c9.2,7.5,23.5,10.2,23.6,26.6c-22.9-9.5-45.7-16.5-70.5-13.5c7.4,3.1,14.8,6.3,22.2,9.4c-1.5,1.5-2.8,1.7-4,1.8
	c-14.8,0.5-29.4-0.5-43.9-3.4c-11.1-2.2-22.5-3.4-33.5-6.1c-19.1-4.7-38-10.2-56.8-15.4c-1,7.4-0.8,14.2,7.2,18.5
	c-0.5,0.3-0.9,0.6-1.4,1c-13-0.7-26-1.4-39-2.1c-0.1,0.6-0.2,1.1-0.3,1.7c2.5,2.2,5,4.4,7.6,6.5c-4.3-0.3-8-1.7-11.8-2.6
	c-6.2-1.4-12.4-2.4-18.6-3.8c-6.2-1.4-7.7-4.4-5.2-9.5c3.5,1.1,7,2.1,11.8,3.6c-5.4-8-23.8-14.2-31.4-11.7c-0.8,0.2-1.8,1.1-1.8,1.8
	c0,0.6,0.9,1.5,1.6,1.9c1.9,1.3,3.9,2.4,7.1,4.2c-12.2,0-22.8,0-34.3,0c3.7-2,6.8-3.6,9.9-5.2c-2.4-3.3-16.7-4.4-24.5-2
	c-0.4,2.2,0,4.9-1.1,6.1C1014.7,145.9,1009.9,149.5,1005.3,153.3z M89.4,1519.1c0.5,0,1.1,0.1,1.6,0.1c0.2-1.6,0.7-3.2,0.7-4.8
	c0.4-19.7,0.9-39.4,1.2-59.1c0.4-26.1,0.8-52.3,1.2-78.4c0.1-6.2,0.7-12.4,0.1-18.5c-0.8-9.4-3.4-18.8-3.5-28.2
	c-0.2-25,0.4-49.9,1-74.9c0.5-20.2,1.8-40.5,2.2-60.7c0.2-10.9-0.5-21.8-1.2-32.7c-0.2-4.4-1.3-8.7-2-13.1c-0.5,0.1-1,0.1-1.5,0.2
	C89.4,1272.5,89.4,1395.8,89.4,1519.1z M2005.4,1718.2c0-176.9,0-353.8,0-530.7C2002.8,1364.4,2002,1541.3,2005.4,1718.2z
	 M88.9,905.9c0.8,0.2,1.6,0.4,2.4,0.6c0.5-1.7,1.4-3.4,1.4-5.1c-0.1-4.5-1-8.9-0.9-13.3c0.6-22.2,1.6-44.5,2.2-66.7
	c0.1-3.1-0.5-6.2-1-9.3c-0.7-4.8-2.5-9.5-2.4-14.3c0.6-46,1.4-92.1,2.3-138.1c0.2-10.1,0.9-20.2,1.1-30.3
	c0.5-22.6,0.8-45.3,1.2-67.9c0-1.4-0.5-2.7-0.8-4.2c-5.5,2.4-5.6,6.5-5.6,11c0.1,110.2,0,220.5,0,330.7
	C88.9,901.4,88.9,903.7,88.9,905.9z M89.8,1800.1c-0.3,0.4-0.6,0.7-0.6,1c-0.1,28.1-0.2,56.3-0.1,84.4c0,1.2,1.3,2.4,1.9,3.7
	c1.9-3.5,3-6.4,3-9.5c0.5-24.6,0.9-49.2,1.3-73.7C95.3,1802.2,93.6,1800.2,89.8,1800.1z M2005.4,1850.3c0-38.3,0-76.6,0-114.1
	C1998.1,1773.8,2004.9,1812.1,2005.4,1850.3z M2004.6,1133.8c0.2,0,0.5-0.1,0.7-0.1c0-28.6,0-57.2,0-85.7c-0.2,0-0.5,0-0.7,0
	C2004.6,1076.6,2004.6,1105.2,2004.6,1133.8z M2004.3,2034.8c0.4,0.1,0.8,0.1,1.2,0.2c0-23.3,0-46.6,0-69.8c-0.4,0-0.8,0-1.2,0
	C2004.3,1988.4,2004.3,2011.6,2004.3,2034.8z M1998,130.7c2-9.5-2.5-15.8-8.4-13.9c1.1,3.4,2.2,6.7,3.7,11.2
	C1994,128.4,1995.9,129.5,1998,130.7z"/>
<path class="st1" d="M1005.3,153.2c4.6-3.8,9.4-7.4,13.7-11.6c1.2-1.1,0.8-3.9,1.1-6.1c7.8-2.4,22-1.3,24.5,2
	c-3.1,1.6-6.2,3.2-9.9,5.2c11.5,0,22.1,0,34.3,0c-3.1-1.8-5.1-3-7.1-4.2c-0.7-0.5-1.6-1.3-1.6-1.9c0-0.6,1-1.5,1.8-1.8
	c7.6-2.5,26,3.7,31.4,11.7c-4.9-1.5-8.3-2.5-11.8-3.6c-2.5,5.1-1,8.1,5.2,9.5c6.2,1.4,12.4,2.3,18.6,3.8c3.8,0.9,7.5,2.2,11.8,2.6
	c-2.5-2.2-5-4.4-7.6-6.5c0.1-0.6,0.2-1.1,0.3-1.7c13,0.7,26,1.4,39,2.1c0.5-0.3,0.9-0.6,1.4-1c-8-4.2-8.2-11-7.2-18.5
	c18.9,5.2,37.8,10.7,56.8,15.4c11,2.7,22.3,3.9,33.5,6.1c14.5,2.9,29.1,3.9,43.9,3.4c1.2,0,2.5-0.3,4-1.8
	c-7.4-3.1-14.8-6.3-22.2-9.4c24.7-3,47.5,4.1,70.5,13.5c-0.1-16.4-14.4-19.1-23.6-26.6c0.5-0.4,1-1.1,1.4-1.1
	c13.2,3.3,26.4-1.6,39.6-0.3c8.8,0.9,9,0.5,5.1,7.9c-0.2,0.3,0.1,0.8,0.1,1.1c12.6-5.1,25.2,3.4,38.5-0.6c-7.2-3.5-14.1-6.9-21-10.2
	c0.2-0.5,0.3-0.9,0.5-1.4c18.6,3.3,37.9,4,56.9,12.5c-2.8,1.8-4.1,2.6-5.6,3.6c0.5,0.6,0.8,1.3,1.1,1.3c7.6,0.2,15.2,0.4,22.7,0.5
	c4.3,0.1,6-2.8,6-6.4c-0.1-7.4,6.1-11.7,14.3-9.3c5.1,1.5,10.5,1.9,15.8,3c2,0.4,4,1.3,5.5,1.9c-0.6,3-2.3,6.3-1.4,8
	c1,1.8,4.6,2.4,7.2,2.8c9.9,1.4,19.8,2.9,29.8,3.5c10.1,0.6,20.3,0.6,30.4,0c13.1-0.7,26.2-2.2,39.2-3.6c2-0.2,3.8-1.4,5.6-3.2
	c-6.6,0-13.3,0-19.9,0c0-0.6,0.1-1.1,0.1-1.7c17.5-2.6,34.4-11.3,52.7-6.2c0.1,0.6,0.2,1.2,0.3,1.8c-4.2,1.5-8.3,3.1-13.4,4.9
	c11.2,2.8,22.3-2.9,32.5,4.6c-4.2,1.4-8.4,2.7-12.6,4.1c0.1,0.3,0.1,0.7,0.2,1c1.9,0,4,0.6,5.6-0.1c10.4-4.7,21.4-3.1,32.2-3.4
	c1.6-0.1,3.1-1,4.7-1.3c2.7-0.6,5.6-1.7,8.2-1.2c0.9,0.2,1,4.4,1.7,8.1c2.6-0.6,6.3-1.4,11-2.5c-2.1-2.3-3.4-3.8-6.2-7
	c24.1,3,46.7,10.3,69.5,1.5c-3.1-0.8-6.2-1.5-9.2-2.5c-1.1-0.3-1.9-1.4-2.9-2.1c0.8-0.6,1.7-1.8,2.5-1.8c7.2-0.1,14.5-0.3,21.7,0.2
	c1.3,0.1,2.5,3,3.5,4.7c0.9,1.5,1.1,4.5,2.2,4.7c5.8,1.4,11.7,2.1,17.6,3c0.2-0.6,0.3-1.2,0.5-1.8c-1.7-0.9-3.7-1.6-5.1-2.9
	c-1.5-1.4-2.5-3.3-3.8-4.9c1.9-0.2,4-0.8,5.8-0.5c14.3,3,28.6,6.1,42.9,9.3c0.1-0.5,0.3-1,0.4-1.5c-1.7-0.5-3.3-1-5-1.6
	c2.4-3.5,2.3-3.2,7.6-2c3.2,0.7,6.6,0.4,9.8,1c1,0.2,1.7,2.2,2.5,3.4c-0.2,0.8-0.3,1.7-0.5,2.5c9-1.6,18.2-2.8,27.1-4.9
	c2.8-0.7,5.8-3.3,7.4-5.8c3.2-5,7.2-7.3,13-6.9c2.1,0.1,4.3,0.2,6.4,0c5.5-0.4,10.9-0.6,11.2,7.4c16.8-7.4,33-3.4,48.8,0.6
	c9.7,2.4,17.8-0.9,26.4-3c0.7-0.2,1.4-0.5,2.6-1c0,17.1,0,33.7,0,50.3c0.3,0,0.6,0,1,0.1c1-21,2.1-42,3.1-64c1,1.3,2.7,2.5,3.3,4.2
	c0.6,1.8,0.2,3.9,0.2,5.8c0,299.1,0,598.2,0,897.3c0,2.3,0,4.5,0,6.8c-0.7,0.1-1.4,0.3-2.1,0.4c-0.6-2.7-1.7-5.4-1.8-8.2
	c-0.2-7.6,0.1-15.2-0.1-22.9c-0.2-9.2-1.2-18.4-1-27.6c0.3-13.2,1.6-26.4,2.1-39.6c0.1-3.8-1.1-7.6-1.4-11.5
	c-0.5-5.9-1.1-11.8-1-17.7c0.2-12.1,3-24.5,0.8-36.1c-2.7-14.3-0.7-27.7,0.5-41.6c0.3-3.7,0.1-7.4,0.1-11.1c0-24.6,0-49.1-0.6-73.7
	c0,13.6,0.6,27.1-0.1,40.7c-1.1,21.1-3,42.2-4.5,63.4c-0.5,7.6-1.1,15.1-1.2,22.7c-0.9,44.6-1.6,89.1-2.5,133.7
	c-0.1,6.7-1,13.4-1.5,20c0.5,0.1,1,0.2,1.5,0.3c0.8-3,1.6-5.9,2.4-8.9c0.4,0,0.8,0.1,1.2,0.1c0,8.3,0,16.6,0,24.9
	c0.4,0,0.8,0,1.2,0.1c0.6-4.1,1.1-8.2,1.7-12.3c0.6,0.1,1.2,0.1,1.8,0.2c0,1.9,0.1,3.8,0,5.6c-1.1,20-2.6,40-3.4,60
	c-0.6,15.1,0,30.3-0.2,45.4c-0.3,22-0.6,44.1-1.2,66.1c-0.5,15.6-1.4,31.1-2.3,46.6c-0.4,6.8-1.8,13.5-2.1,20.2
	c-0.2,5.2,0.9,10.5,0.9,15.7c0.2,12.9,0.3,25.9,0,38.8c-0.5,16.5-1.6,33-2.2,49.6c-0.2,4.4,1,8.9,1,13.3c0.1,20.3-0.1,40.7,0.1,61
	c0.1,8.4,1.2,16.7,1,25.1c-0.5,21.6-1.5,43.2-2.3,64.8c-0.7,19.1-1.5,38.1-2.3,57.2c-0.3,7-1,14-1.1,21c-0.2,9.5,0,19,0,28.5
	c0.7,0,1.4,0.1,2.1,0.1c1.1-7.8,2.2-15.6,3.3-23.5c0.2,0.1,0.4,0.1,0.5,0.2c0,18.7,0,37.3,0,57.5c-1.7-2.2-2.5-3.3-3.3-4.3
	c-0.4,0-0.8,0.1-1.3,0.1c0,7.5-0.4,15,0.1,22.4c0.7,11.2,2.5,22.4,3.1,33.6c1.9,33.8,3.4,67.6,4.1,101.4c0.6-6.1,1.2-12.2,1.9-18.3
	c0.6,0,1.2,0.1,1.8,0.1c-0.7,11.3-1.4,22.7-2.2,34c-0.4,5.4-1.5,10.8-1.9,16.2c-0.6,9.7-1,19.4-1.3,29.2
	c-0.5,17.5-0.7,35.1-1.2,52.6c-0.6,19.3-1.5,38.5-2.4,57.8c-0.1,3.1-0.7,6.2-1.3,9.2c-0.2,0.8-1.4,1.9-2.3,2.1
	c-5.3,1.3-10.7,3.6-16,3.4c-7-0.2-14.1-1.7-20.8-3.8c-11.2-3.4-22.3-6.2-35.1-4.5c6.7,4.3,14.6,6.5,16.4,15.5
	c-1.3,0.2-2.5,0.6-3.8,0.5c-16.5-0.6-33-0.9-49.5-2.1c-16.1-1.2-32.4-2.3-48.2-5.5c-14.6-3-28.3,1.5-42.4,1.8
	c-12.4,0.2-24.8-0.7-37.2-1.1c-0.8,0-1.5-0.2-2.3-0.2c-31.3-0.7-62.7-1.4-94-1.8c-6.8-0.1-13.6,1.2-20.2,1.8
	c3.3,1.7,7.1,3.6,10.8,5.6c-0.1,0.3-0.1,0.7-0.2,1c-11.9,0-23.8,0-35.7,0c-0.1-0.2-0.2-0.4-0.2-0.7c5.1-1.3,10.2-2.5,15.4-3.8
	c0.1-0.6,0.1-1.3,0.2-1.9c-6.5-2.4-12.8-5.5-19.5-6.9c-5.6-1.2-1.4,4.2-2.9,6.2c-12.2,1.5-23.5,0.7-34-7.6c-4-3.2-11.2-2.6-18.4-4
	c1,4.5,1.5,7,2.1,9.5c-16.8,4.6-34.1,2.6-51,2.2c-13.5-0.3-27-3.3-40.5-5c-10.5-1.3-21-3-31.6-3.7c-13.8-1-27.6-1.4-41.3-2
	c-0.5,0-1,0.3-2.1,0.7c1.4,0.8,2.4,1.3,3.8,2c-18.4,6.1-97.6-0.8-102.7-9c2.2-0.9,4.3-1.8,6.4-2.7c-0.1-0.5-0.1-1-0.2-1.4
	c-2.1,0.1-4.3,0-6.3,0.4c-3.6,0.8-7.1,2.2-10.7,2.8c-5.9,0.9-11.9,1.9-17.8,1.8c-7-0.1-14-1.1-21-1.9c-10.3-1.1-20.6-2.8-31-3.3
	c-10.3-0.6-20.7,0.1-31.1-0.2c-9.9-0.3-19.8-1.1-29.6-1.9c-3.2-0.3-6.4-1.3-9.8-0.8c6.2,1.5,12.5,3.1,18.7,4.6
	c0.2,0.6,0.4,1.3,0.6,1.9c-2.2,1.1-4.4,3.2-6.7,3.2c-18,0.3-36,0.4-54,0.1c-15.7-0.3-31.5-1.4-47.2-1.5c-7.4,0-14.8,1.5-23.3,2.5
	c5.1,2.9,9.4,5.1,13.4,7.8c1.4,1,1.9,3.2,2.8,4.9c-2,0.2-4.4,1.2-6,0.5c-10.1-4.7-19.8-10.6-30.2-14.5c-7.6-2.9-16.1-3.4-24.2-4.9
	c-3-0.6-6-1.3-9-1.6c-2.6-0.2-6-2-6.8,2.9c-0.1,0.9-2.2,2.2-3.3,2.1c-12.1-0.8-24.2-2-36.4-2.9c-12.8-1-25.6-5.2-38.4-0.5
	c-1.8,0.7-3.4,1.8-5,3.5c8.4,2.6,18-1.1,26.4,7.2c-4.2,0-7,0.2-9.7,0c-5-0.4-10-1.1-15-1.5c-6.7-0.6-13.4-1.6-20.2-1.7
	c-5.5,0-11.1,0.8-16.6,1.7c-10.2,1.6-20.4,3.4-30.6,5.4c-3.3,0.6-7.1,1.4-4.6,7.1c-8.3,0-16.3,0.7-24.1-0.3
	c-3.8-0.5-8.2-3.2-10.8-6.2c-7.3-8.7-17-10.4-27.2-10c-3,0.1-5.9,2.7-8.9,4c-1.1,0.5-2.9,1.3-3.6,0.9c-11.3-7.8-24.1-5.9-36.6-6.5
	c-5.7-0.3-11.3-1.7-17-2.8c-5.7-1.2-10.9-3.6-17.3-2.8c-6.6,0.8-13.5-1.3-20.2-1.2c-10.1,0.1-20.1,1.2-30.2,1.4
	c-2.8,0-5.7-1.6-8.5-2.7c-5.2-2.1-10.4-4.3-17-7.1c3.3,9.6,11.8,8.3,17.7,12.7c-4.7,4-8.7,9.2-13.9,11.1c-4.1,1.5-9.7-1-14.6-1.8
	c-1.3-0.2-2.6-0.8-3.9-1.1c-4.6-1-8.6-0.6-13.5,0.9c-5.7,1.7-12.8-1.1-19.3-1.8c-5.6-0.6-11.3-0.9-17.1-0.5
	c4.5,8.4,14.6,6.8,21.7,13.6c-2.8,0.1-4.4,0.6-5.8,0.2c-12.1-3.5-24.2-7.3-36.4-10.8c-5.7-1.6-11.6-2.8-17.1-2.7
	c-1.6,0.9-3.3,2.5-4.9,2.6c-6.6,0.3-13.3-0.1-19.9,0.2c-5.8,0.3-12.4-0.3-17,2.3c-12.5,7.1-21.5,0.1-30.5-6.1
	c-9.9-6.8-20.5-5.4-32.5-5.2c2.4,1.9,3.7,3,6,4.8c-5-0.6-9-1-12.9-1.6c-12.6-1.7-25.2-3.2-37.7-5.3c-12.3-2-24.5-4.7-36.8-6.6
	c-5-0.8-10.2-0.5-15.3-0.5c-14.7,0-29.3,0.4-44-0.2c-8.8-0.4-17.5-2.4-26.2-3.7c-0.9-0.1-1.7-0.2-2.9,0.7c4.5,1.7,9,3.4,13.5,5.1
	c-0.1,0.6-0.1,1.3-0.2,1.9c-2.2-0.2-4.6,0-6.7-0.6c-2.9-0.8-5.7-2.6-8.6-3c-7-1-14.2-2.2-21.2-2c-4.8,0.2-8.6-3.7-13.7-2.1
	c-6,1.9-12.5,2.4-18.6,4c-2.2,0.6-3.9,2.7-6.2,4.4c-9.2-2.9-9.2-2.9-4.2-9c-8.1,1.4-16.2,6.6-21.8-4.1c-0.3,0.5-0.6,0.9-1,1.4
	c-0.4,2.3-0.7,4.7-1.1,7c-3.1-4.6-3.6-8.9-0.1-11.8c6.2-5.1,5-11.7,4.6-18.2c-0.2-2.9-0.9-5.8-0.9-8.7c-0.1-38.9,0-77.8,0-116.7
	c0-2.9,0-5.7,0-8.6c-0.2,0-0.4,0-0.6-0.1c-0.2,1.2-0.5,2.4-0.7,3.6c-0.6,0-1.2-0.1-1.8-0.1c-2.4-27.1,5.8-53.9,3.9-82.5
	c-1.7,6.6-3.1,11.7-4.5,16.8c-0.4,0-0.7,0-1.1-0.1c0.5-6.9,0.5-13.8,1.4-20.6c1.6-12.1,4.4-24,5.4-36.1c0.9-12.2,0.2-24.6,0.2-37.4
	c-1,1.2-1.8,2.1-2.9,3.4c-1.5-4.1-2.7-7.7-4.3-11.2c-0.4-0.9-1.9-1.4-3-2c-0.5,0.5-1,0.9-1.6,1.4c0-1.9,0-3.8,0-5.7
	c0-32.3,0.1-64.5-0.1-96.8c-0.1-19.1-1.5-38.2-0.9-57.3c0.6-20.5,2.4-41.1,4.5-61.5c3.3-32.2,4.2-64.5,3.3-96.9
	c-0.2-8.7-2.4-17.3-3.1-25.9c-0.3-3.8,0.7-7.7,1.1-11.5c0.7-8.3,1.8-16.6,2.1-24.9c0.6-18.5,0.8-37,1.3-55.5
	c0.3-10.9,0.7-21.8,1.2-32.7c0.1-2.5,0.7-4.9-0.2-7.6c-0.6,5-1.6,10.1-1.7,15.1c-0.2,17.2,0,34.4-0.2,51.6
	c-0.1,9.5-0.7,19.1-1.2,28.6c-0.1,1.6-0.9,3.2-1.7,5.9c-1.1-13.1,0.2-98.3,5-130.6c-1.5,8.1-3,16.2-4.4,24.2c-0.3,0.1-0.7,0.1-1,0.2
	c-0.5-1.6-1.4-3.2-1.5-4.8c-0.5-21.6-1.3-43.3-1-64.9c0.1-7.2,3.1-14.2,4.4-21.4c1.5-8.6,3.1-17.2,3.4-25.9
	c0.8-22,0.9-44.1,1.3-66.1c0.3-16,0.9-32,1.1-47.9c0-5.1-1-10.1-2.2-15.2c-0.1,20,2.5,40-3.3,59.6c-0.1-1.7-0.2-3.3-0.2-5
	c0-16.2-0.1-32.5,0-48.7c0.3-24.8,0.5-49.6,1.3-74.3c0.2-7.2,2.3-14.4,3-21.7c0.2-2.3-1.3-4.8-1.4-7.2c-0.3-4.6-0.3-9.3-0.4-13.9
	c-0.2-13,0-26-0.7-38.9c-0.5-9.5-2.8-18.9-2.8-28.3c-0.1-22.4,0.2-44.9,1.1-67.3c0.9-20.3,3-40.6,4.5-61c0.2-3.1,0-6.2-0.7-9.4
	c-1,8.3-1.9,16.7-3.1,26.5c0-21.8,0-42.1,0-63.5c2.1,1.4,3.1,2.1,4.1,2.8c0.3-0.5,0.7-0.8,0.7-1.1c-0.7-8.5-1.7-17-2.1-25.5
	c-0.6-16.4-0.8-32.7-1.3-49.1c-0.8-28.8-1.5-57.7-2.3-86.5c-0.4-12.9-0.9-25.7-1.1-38.6c-0.5-22.8-1-45.6-1.1-68.5
	c0-16.2,0.6-32.4,1.1-48.5c0.6-16.1,1.4-32.3,2.3-48.4c0.6-11.4,1.9-22.9,2.2-34.3c0.1-6.2-1.2-12.5-1.9-18.8c-0.7,0-1.3-0.1-2-0.1
	c-2,13.6-3.9,27.2-5.9,40.8c-0.9,0-1.8-0.1-2.6-0.1c-0.1-8.6-0.5-17.3-0.4-25.9c0.1-8.9,0.8-17.9,1.2-26.8c0.4-8,1-15.9,1.1-23.9
	c0.1-4.8,3.3-4.1,6.1-3.9c6.7,0.5,13.4,1.5,20.1,1.7c9.6,0.3,19.2,0.3,28.7,0c4.2-0.1,8.5-1.3,12.6-2c0.3,1.4,0.6,1.8,0.4,2.1
	c-4.3,8.7-3.9,8.6,6.2,11c9.8,2.4,18.9-1.5,28.2-1.5c14.5,0,29.5-1,43.5,2.1c13.2,2.9,26,6.4,39.5,6.3c11.3,0,22.7-0.4,34,0.1
	c16.3,0.8,32.5,1.7,48.6,5.1c8.7,1.8,17.9,2.4,25.8-3.9c4.2-3.4,9-4,14.3-1.8c1.9,0.8,4.2,0.3,6.4,0.5c6.5,0.6,13,1.2,19.6,1.8
	c1.6,0.1,3.3,0,4.9,0c0.1-0.5,0.2-1,0.3-1.5c-6.3-2.4-12.5-4.8-18.8-7.2c0-0.7,0-1.4,0-2c1.6,0,3.4-0.3,4.9,0.1
	c3.8,1,7.5,3.1,11.4,3.4c7,0.6,14.1-0.3,21.1,0.3c8.4,0.7,16.6,2.3,25,3.3c6.3,0.8,12.7,1.6,19.1,1.6c1.7,0,4-2.5,5-4.4
	c3.2-5.8,7.1-7.6,13.5-5.7c2.4,0.7,4.8,1.2,7.3,1.5c12.8,1.3,25.6,2.6,38.3,3.8c-2.4,3.5-4.7,6.7-6.9,10c-0.5-0.3,0.2,0.5,0.9,0.5
	c9.7-0.5,19.3-1.3,29-1.5c17.2-0.5,34.7-4.8,51.4,3.6c0.1-0.5,0.3-1,0.4-1.5c-1.8-0.7-3.7-1.3-5.5-2c-1.9-0.8-3.8-1.6-5.9-2.6
	c17.1-6.8,77.6-6.5,87.9,0.2c-3.6,0.7-6.9,1.3-10.2,1.9c0.1,0.5,0.2,1.1,0.3,1.6c7.7-1,15.4-1.9,23-2.8c1-0.1,2-0.3,2.9-0.2
	c10.9,1.1,21.8,2.6,32.8,3.2c9.9,0.6,19.9,0.2,29.9,0.1c0.8,0,1.5-1,2.8-1.9c-3.1-1.9-5.8-3.4-8.5-5c0.2-0.6,0.4-1.2,0.6-1.8
	c4.9,0.8,9.8,1.7,14.8,2.6c1.5,0.3,3,0.9,4.5,0.9c22.7,0.7,45.5,1.8,68.2,1.7c9.9,0,19,2,28.2,4.5c2,0.6,4.2,1.1,6.3,1
	c7.7-0.4,15.5-1,23.2-1.8c1.3-0.1,2.5-1.2,5-2.5c-11.5-1-21.4-1.9-31.3-2.7c0-0.3-0.1-0.6-0.1-0.9c1.7-0.6,3.9-0.8,4.9-2
	c1.6-1.9,2.4-4.4,3.6-6.7c-1.9-0.9-3.7-2.3-5.6-2.5c-4.3-0.4-8.6,0.1-12.9-0.2c-2.3-0.2-4.5-1.5-6.6-2.8c10.1-2.8,20.1-5.2,30-1.1
	c2.6,1.1,5.2,4,6.4,6.6c2.4,5.2,5.6,8.1,11.5,7.8c5.4-0.2,10.8,0,16.2,0c0.2-0.5,0.3-1,0.5-1.5c-1.6-0.9-3.1-1.8-5.7-3.3
	c9.2-6,14.5,4.5,22.1,3.5c-2.2-3.1-4.5-6.4-6.8-9.6c0.3-0.7,0.6-1.4,1-2.1c8.5,0.9,17,1.7,26.6,2.7c-2.3,3.4-3.9,5.7-5.4,8
	C1004.6,152.6,1004.9,152.9,1005.3,153.2z"/>
<path class="st1" d="M89.4,1519.4c0-123.3,0-246.6,0-370c0.5-0.1,1-0.1,1.5-0.2c0.7,4.4,1.7,8.7,2,13.1c0.6,10.9,1.4,21.8,1.2,32.7
	c-0.4,20.2-1.7,40.5-2.2,60.7c-0.6,25-1.2,49.9-1,74.9c0.1,9.4,2.7,18.8,3.5,28.2c0.5,6.1,0,12.3-0.1,18.5
	c-0.4,26.1-0.8,52.3-1.2,78.4c-0.3,19.7-0.8,39.4-1.2,59.1c0,1.6-0.5,3.2-0.7,4.8C90.5,1519.5,89.9,1519.4,89.4,1519.4z"/>
<path class="st1" d="M88.9,906.2c0-2.3,0-4.6,0-6.9c0-110.2,0-220.5,0-330.7c0-4.5,0.1-8.7,5.6-11c0.3,1.5,0.8,2.8,0.8,4.2
	c-0.3,22.6-0.7,45.3-1.2,67.9c-0.2,10.1-0.9,20.2-1.1,30.3c-0.9,46-1.7,92.1-2.3,138.1c-0.1,4.8,1.7,9.5,2.4,14.3
	c0.5,3.1,1.1,6.2,1,9.3c-0.7,22.2-1.6,44.5-2.2,66.7c-0.1,4.4,0.8,8.9,0.9,13.3c0,1.7-0.9,3.4-1.4,5.1
	C90.5,906.6,89.7,906.4,88.9,906.2z"/>
<path class="st1" d="M138.7,788c1.6,0.1,2.3,0.8,2.2,2.4c-0.2,10.1-0.3,20.2-0.5,30.3c0,1.2-0.5,2.5-1.2,3.9c-0.3-0.5-0.8-1-0.8-1.5
	c0-11.6,0-23.1,0-34.7C138.5,788.3,138.6,788.2,138.7,788z"/>
<g>
	<path class="st0" d="M712.5,823l-1.9,28.5c0,1.1,0.6,3.6,1.9,7.5c-4.1,31.1-9.8,53-17.2,65.6c-7.3,12.6-15.6,22.4-24.8,29.2
		c-9.2,6.8-21.1,13.4-35.8,19.9c-3,0.2-7.3,1.4-13,3.4c-5.6,2.1-10,3.1-13.3,3.1c-17.3,0-25.9-3-25.9-9.1l3.2-168.2l-4.5-276.7
		c0-31.8,5.7-47.6,17.2-47.6c30.2,0,53.3,9.7,69.2,29.2c15.9,19.4,23.8,45.6,23.8,78.4c0,32.8-14.3,68.5-42.8,106.9
		c6.3,9.3,13.5,19.3,21.7,30.1l18.1,24.6c11.7,15.3,18.6,28.8,20.7,40.3C711.4,799.7,712.5,811.3,712.5,823z M601.7,529.7l2.6,159.1
		l1.9,0.6c15.6,0,28.3-9,38.2-26.9c8-14.3,14.5-28.8,19.4-43.7c5-14.9,8.3-24.3,10-28.2v-25.3c0-15.1-5.5-29.6-16.5-43.4
		c-11-13.8-23.9-20.7-38.6-20.7C607.4,501.2,601.7,510.7,601.7,529.7z M607.5,953.5l4.2,0.6c13.6,0,29.5-7,47.6-20.9
		c18.1-13.9,28.5-26.2,30.9-36.8c2.5-10.6,3.7-24.1,3.7-40.5c0-79.3-19-126.8-57-142.6c-4.3,0.2-10.2,1.4-17.5,3.6
		c-7.3,2.2-12.4,3.5-15.2,3.9C606.4,785.7,607.5,863.2,607.5,953.5z"/>
	<path class="st0" d="M864.4,877.4l-17.5,0.6c-6.3-2.6-13.2-3.9-20.7-3.9c-7.6,0-11.7,0.2-12.3,0.6c-0.6,0.4-1.1,1.2-1.3,2.3
		c-0.2,1.1-0.4,1.8-0.7,2.3l-1.3,13.3c-0.9,11.2-2.9,24.7-6.2,40.5c-6,30.9-12.4,46.3-19.1,46.3c-2.8,0-5.7-1.2-8.7-3.6
		c-3-2.4-4.5-5-4.5-7.8c5.6-16.6,11.4-41.8,17.5-75.5c6-33.7,9.8-54.7,11.3-63c1.5-8.3,4.3-25.1,8.4-50.4
		c4.1-25.3,6.8-41.9,8.1-49.9c1.3-8,4.8-25.3,10.5-51.8c5.7-26.6,9.2-44,10.4-52.2c1.2-8.2,2.5-19.3,4-33.4
		c3.7-34.6,6.6-53.8,8.7-57.7l9.1,0.6c5.4,0,9.4-1.3,12-3.9c2.8,0,5.5,0.9,8.1,2.8c2.6,1.8,3.9,4.3,3.9,7.3
		c0,21.2,2.7,62.1,8.1,122.8c5.4,60.7,9.7,100,12.8,117.8c3.1,17.8,6.7,35.3,10.9,52.5c4.1,17.2,6.2,30.3,6.2,39.4l-3.2,9.1
		c0,9.9,1.8,24.6,5.5,43.9c3.7,19.3,5.5,32.9,5.5,40.8c0,7.9-1.7,12.8-5.2,14.7c-9.1,0-14.6-1.3-16.7-3.9c-2.1-2.6-3.1-6.8-3.1-12.5
		c0-5.7-0.4-12.7-1.1-21.1c-0.8-8.3-1.5-15-2.3-19.9c-0.8-5-2.1-12.8-3.9-23.5c-1.8-10.7-3-17.5-3.4-20.6
		C885.8,878.5,875.9,877.4,864.4,877.4z M817.8,844.7c0,4.5,5.3,8.3,15.9,11.3c16.2,4.5,34.1,6.8,53.8,6.8h6.8
		c-2.8-8.6-4.2-18.6-4.2-29.8v-15.2c0-27.4-3.4-67.4-10.2-119.9s-10.4-91.6-10.9-117.3c-23.1,114.3-37.4,184.8-42.9,211.7
		C820.5,819.2,817.8,836.7,817.8,844.7z"/>
	<path class="st0" d="M1085.7,536.9c0,0,1.2-1,3.6-2.9c2.4-1.9,4.3-2.9,5.8-2.9c1.5,0,6.2,1.3,13.9,3.9c0,34.6,1.4,86.2,4.2,155
		c2.8,68.8,4.2,124.2,4.2,166.2c0,42,1.4,82,4.2,120l-4.2,7.5c-0.4-4.5-7.2-6.8-20.4-6.8c-2.2-98.3-3.2-157.6-3.2-177.9l-1.6-2.6
		l2.3-5.8c0-6.9-0.8-15.1-2.3-24.6l-10.4-2.6c-3.9,1.3-8.3,1.9-13.3,1.9l-42.4-6.8l-6.8,2.6l-1.9,83.6l1.9,2.9l3.9,110.8
		c0,11.5-3.7,17.2-11,17.2c-9.7,0-14.6-13.3-14.6-39.9l1.3-121.5c0-40.2-0.6-61.8-1.9-64.8c2.2-4.3,3.2-19,3.2-44.1l-4.9-155.2
		c0-3,1.1-5.9,3.4-8.6c2.3-2.7,4.9-4,7.9-4c8.9,0,13.3,12.9,13.3,38.6l-2.6,162c0,5.2,17.7,7.8,53.1,7.8c8.4,0,14.5-1.6,18.3-4.7
		c3.8-3.1,5.7-11.8,5.7-26.1c0-14.3-1.5-41.7-4.4-82.5c-2.9-40.7-4.4-71.2-4.4-91.5C1085.7,538.3,1085.7,536.9,1085.7,536.9z
		 M1075.7,736.8l1.3,1.3h-1.3V736.8z"/>
	<path class="st0" d="M1295.3,971l-22-2.3c-3.5,0-7.6,1.2-12.3,3.7c-4.8,2.5-10.4,3.7-17,3.7c-6.6,0-10.7-2.2-12.5-6.5l-11,0.6
		c-9.5,0-15.6-2.3-18.1-6.8c0-2.8,1.2-5.1,3.7-7c2.5-1.8,4.2-3.3,5-4.4h19.1l2.6-2.6l2.3-13.9l-4.9-145.1l3.2-154.9
		c0-30-1.1-55.6-3.2-76.8c-4.3-1.3-10.9-1.9-19.8-1.9l-15.9,1.3c-8.4,0-12.6-3.8-12.6-11.3c0-1.9,2-3.8,6-5.5c4-1.7,7.3-2.6,9.9-2.6
		c61.6,0,92.3,6.7,92.3,20.1c0,1.3-0.5,3-1.6,5.2l-15.2,1.3c-3.5-2.6-9.8-3.9-19.1-3.9l-3.2,1.9c1.3,3.9,1.9,15.7,1.9,35.3
		l-1.9,157.8l4.5,145.5l-0.6,20.4c0,10.4,0.6,16.5,1.9,18.5l-0.6,1.6c0,4.3,4.9,6.5,14.6,6.5l19.4-0.6c13.2,0,19.8,3.1,19.8,9.4
		c0,3.9-1.4,7.1-4.2,9.6C1302.9,969.8,1299.4,971,1295.3,971z"/>
	<path class="st0" d="M1455.1,877.4l-17.5,0.6c-6.3-2.6-13.2-3.9-20.7-3.9s-11.7,0.2-12.3,0.6c-0.6,0.4-1.1,1.2-1.3,2.3
		c-0.2,1.1-0.4,1.8-0.7,2.3l-1.3,13.3c-0.9,11.2-2.9,24.7-6.2,40.5c-6,30.9-12.4,46.3-19.1,46.3c-2.8,0-5.7-1.2-8.7-3.6
		c-3-2.4-4.5-5-4.5-7.8c5.6-16.6,11.4-41.8,17.5-75.5c6-33.7,9.8-54.7,11.3-63c1.5-8.3,4.3-25.1,8.4-50.4
		c4.1-25.3,6.8-41.9,8.1-49.9c1.3-8,4.8-25.3,10.5-51.8c5.7-26.6,9.2-44,10.4-52.2c1.2-8.2,2.5-19.3,4-33.4
		c3.7-34.6,6.6-53.8,8.8-57.7l9.1,0.6c5.4,0,9.4-1.3,12-3.9c2.8,0,5.5,0.9,8.1,2.8c2.6,1.8,3.9,4.3,3.9,7.3
		c0,21.2,2.7,62.1,8.1,122.8c5.4,60.7,9.7,100,12.8,117.8c3.1,17.8,6.7,35.3,10.9,52.5c4.1,17.2,6.2,30.3,6.2,39.4l-3.2,9.1
		c0,9.9,1.8,24.6,5.5,43.9c3.7,19.3,5.5,32.9,5.5,40.8c0,7.9-1.7,12.8-5.2,14.7c-9.1,0-14.6-1.3-16.7-3.9c-2.1-2.6-3.1-6.8-3.1-12.5
		c0-5.7-0.4-12.7-1.1-21.1c-0.8-8.3-1.5-15-2.3-19.9c-0.8-5-2.1-12.8-3.9-23.5c-1.8-10.7-3-17.5-3.4-20.6
		C1476.4,878.5,1466.5,877.4,1455.1,877.4z M1408.4,844.7c0,4.5,5.3,8.3,15.9,11.3c16.2,4.5,34.1,6.8,53.8,6.8h6.8
		c-2.8-8.6-4.2-18.6-4.2-29.8v-15.2c0-27.4-3.4-67.4-10.2-119.9c-6.8-52.5-10.4-91.6-10.9-117.3c-23.1,114.3-37.4,184.8-42.9,211.7
		C1411.2,819.2,1408.4,836.7,1408.4,844.7z"/>
	<path class="st0" d="M590.5,1517.2l-1.9,28.5c0,1.1,0.6,3.6,1.9,7.5c-4.1,31.1-9.8,53-17.2,65.6c-7.3,12.6-15.6,22.4-24.8,29.2
		c-9.2,6.8-21.1,13.4-35.8,19.9c-3,0.2-7.3,1.3-13,3.4c-5.6,2.1-10,3.1-13.3,3.1c-17.3,0-25.9-3-25.9-9.1l3.2-168.2l-4.5-276.7
		c0-31.8,5.7-47.6,17.2-47.6c30.2,0,53.3,9.7,69.2,29.2c15.9,19.4,23.8,45.6,23.8,78.4c0,32.8-14.3,68.5-42.8,106.9
		c6.3,9.3,13.5,19.3,21.7,30.1l18.1,24.6c11.7,15.3,18.6,28.8,20.7,40.3C589.4,1493.9,590.5,1505.5,590.5,1517.2z M479.7,1224
		l2.6,159.1l1.9,0.6c15.6,0,28.3-9,38.2-26.9c8-14.3,14.5-28.8,19.4-43.7c5-14.9,8.3-24.3,10-28.2v-25.3c0-15.1-5.5-29.6-16.5-43.4
		c-11-13.8-23.9-20.7-38.6-20.7C485.4,1195.5,479.7,1205,479.7,1224z M485.5,1647.8l4.2,0.6c13.6,0,29.5-7,47.6-20.9
		c18.1-13.9,28.5-26.2,30.9-36.8c2.5-10.6,3.7-24.1,3.7-40.5c0-79.3-19-126.8-57-142.6c-4.3,0.2-10.2,1.4-17.5,3.6
		c-7.3,2.2-12.4,3.5-15.2,3.9C484.4,1479.9,485.5,1557.5,485.5,1647.8z"/>
	<path class="st0" d="M684.4,1655.2l62.5,1.9h1.9c2.4,0,4.6,1.2,6.8,3.7c2.2,2.5,3.2,5,3.2,7.6c0,5-3.6,7.8-10.7,8.4
		c-11.5-0.4-29.8-0.6-55.1-0.6l1.3,0.6l-24.6,2.3c-6.3,0-9.9-5.1-11-15.2c0.9-4.3,1.3-11.7,1.3-22l3.9-353.8l3.2-43.7
		c0-3,1.6-4.5,4.9-4.5l11,2.6l-0.7,52.5l0.7,144.5c-1.3,36.3-1.9,54.9-1.9,55.7l1.3,56.4l-1.9,5.5l0.6-0.6l-0.6,5.2
		c0,3.7,0.6,6.8,1.9,9.4l-1.9,63.5v4.2c0,6.9,0.2,11.4,0.6,13.4C681.6,1654.2,682.7,1655.2,684.4,1655.2z"/>
	<path class="st0" d="M903.5,1571.6l-17.5,0.6c-6.3-2.6-13.2-3.9-20.7-3.9c-7.6,0-11.7,0.2-12.3,0.6c-0.6,0.4-1.1,1.2-1.3,2.3
		c-0.2,1.1-0.4,1.8-0.7,2.3l-1.3,13.3c-0.9,11.2-2.9,24.7-6.2,40.5c-6,30.9-12.4,46.3-19.1,46.3c-2.8,0-5.7-1.2-8.7-3.6
		c-3-2.4-4.5-5-4.5-7.8c5.6-16.6,11.4-41.8,17.5-75.5c6-33.7,9.8-54.7,11.3-63c1.5-8.3,4.3-25.1,8.4-50.4
		c4.1-25.3,6.8-41.9,8.1-49.9c1.3-8,4.8-25.3,10.5-51.8c5.7-26.6,9.2-44,10.4-52.2c1.2-8.2,2.5-19.3,4-33.4
		c3.7-34.6,6.6-53.8,8.7-57.7l9.1,0.6c5.4,0,9.4-1.3,12-3.9c2.8,0,5.5,0.9,8.1,2.8c2.6,1.8,3.9,4.3,3.9,7.3
		c0,21.2,2.7,62.1,8.1,122.8c5.4,60.7,9.7,100,12.8,117.8c3.1,17.8,6.7,35.3,10.9,52.5c4.1,17.2,6.2,30.3,6.2,39.4l-3.2,9.1
		c0,9.9,1.8,24.6,5.5,43.9c3.7,19.3,5.5,32.9,5.5,40.8c0,7.9-1.7,12.8-5.2,14.7c-9.1,0-14.6-1.3-16.7-3.9c-2.1-2.6-3.1-6.7-3.1-12.5
		c0-5.7-0.4-12.7-1.1-21.1c-0.8-8.3-1.5-15-2.3-19.9c-0.8-5-2.1-12.8-3.9-23.5c-1.8-10.7-3-17.5-3.4-20.6
		C924.8,1572.7,914.9,1571.6,903.5,1571.6z M856.8,1538.9c0,4.5,5.3,8.3,15.9,11.3c16.2,4.5,34.1,6.8,53.8,6.8h6.8
		c-2.8-8.6-4.2-18.6-4.2-29.8V1512c0-27.4-3.4-67.4-10.2-119.9c-6.8-52.5-10.4-91.6-10.9-117.3c-23.1,114.3-37.4,184.8-42.9,211.7
		C859.6,1513.5,856.8,1530.9,856.8,1538.9z"/>
	<path class="st0" d="M1221.6,1266.4l-1.3-16.5c0-9.3,3.1-13.9,9.4-13.9c4.3,0,7.8,2.1,10.5,6.2c2.7,4.1,4.1,8.4,4.1,13v44.4
		l-3.6,5.5c0,34.6-2.4,101.5-7.1,200.7c-4.8,99.3-9.4,153.5-13.9,162.8c-1.1,0.2-4.3,1-9.6,2.4s-9,2.1-11.2,2.1
		c-2.2,0-4.1-1.5-5.8-4.4c-1.7-2.9-3.1-6.8-4.1-11.5c-1-4.7-1.9-7.9-2.8-9.4l0.6-1.9c-2.8-18.4-8.6-39.4-17.3-63
		c-8.7-23.7-14.4-39.6-17-47.8c-1.5-1.9-7.5-18.5-17.8-49.6c-39.7-123.3-64.8-190-75.2-199.9c-3.5,13.6-5.2,29.2-5.2,46.7l1.3,52.2
		l-1.3,32.1c0,5,0.9,20.4,2.6,46.3h-1.9c0,73.7,1.5,114.4,4.5,122.1v59.6c1.7,3,2.6,6.9,2.6,11.7c0,10.4-4.1,15.6-12.3,15.6
		c-9.3,0-13.9-11.9-13.9-35.6l2.6-43.4l-4.2-190.8l4.2-117.6v-11.7c0-5.8,0.2-9.7,0.5-11.7c0.3-1.9,0.6-4.3,1-7
		c0.3-2.7,0.8-4.8,1.5-6.3c0.6-1.5,1.4-3.2,2.3-5.2c1.7-3.9,4-7,6.8-9.4l1.9,2.3l6.5-1.6c5,1.7,8,5.2,9.1,10.4
		c0,0.4,0.3,1.7,0.8,3.7c0.5,2.1,0.8,3.2,0.8,3.4c7.6,31.5,23.4,75.5,47.6,131.9c24.2,56.4,38.9,92.6,44.1,108.7
		c5.2,16.1,9.8,33.1,13.9,51c9.1,39.7,19,68.8,29.8,87.2l1.3-1.9C1216.5,1531.5,1221.6,1410.9,1221.6,1266.4z M1207.7,1671.1
		c0.4,0,0.6,0.2,0.6,0.6L1207.7,1671.1z"/>
	<path class="st0" d="M1336.3,1402.5l-2.6,133.8c0,37.4,3.6,64.2,10.7,80.4c8.2,19,18.7,31.3,31.4,36.9c8.2,3.7,16.6,5.5,25.1,5.5
		c8.5,0,15.1-1.9,19.6-5.8c6.7,0,10,2.4,10,7.1c0,3.5-3,7.3-8.9,11.5c-5.9,4.2-11.4,7.3-16.4,9.2h-22c-2.8-1.5-8-3.5-15.6-5.8
		c-7.6-2.4-14.5-5.9-20.9-10.5c-6.4-4.6-12.4-12.3-18-23c-5.6-10.7-9.6-23.2-12-37.4c-3.9-23.3-5.8-49.5-5.8-78.4v-75.8
		c0-59,2.2-99.4,6.5-121.2c8.6-44.3,20.4-72.3,35.3-83.9c3.9-3,9.9-6.1,18-9.2c8.1-3.1,13.7-5.6,16.7-7.3h26.6c0.4,0,1,0.1,1.8,0.3
		c0.8,0.2,1.3,0.4,1.8,0.5c0.4,0.1,1,0.3,1.8,0.5c0.8,0.2,1.3,0.4,1.6,0.5c0.3,0.1,0.8,0.3,1.5,0.6c0.6,0.3,1.1,0.6,1.3,0.8
		c1.9,1.9,2.9,4.2,2.9,6.8l-8.7,9.7h-27.9c-9.1,0-17,4.3-23.7,12.8c-6.7,8.5-11.8,18.6-15.4,30.3c-3.6,11.7-6.4,25.2-8.6,40.5
		c-3.2,23.1-4.9,45.5-4.9,67.1L1336.3,1402.5z"/>
	<path class="st0" d="M1577,1571.6l-17.5,0.6c-6.3-2.6-13.2-3.9-20.7-3.9s-11.7,0.2-12.3,0.6c-0.6,0.4-1.1,1.2-1.3,2.3
		c-0.2,1.1-0.4,1.8-0.7,2.3l-1.3,13.3c-0.9,11.2-2.9,24.7-6.2,40.5c-6,30.9-12.4,46.3-19.1,46.3c-2.8,0-5.7-1.2-8.7-3.6
		c-3-2.4-4.5-5-4.5-7.8c5.6-16.6,11.4-41.8,17.5-75.5c6-33.7,9.8-54.7,11.3-63c1.5-8.3,4.3-25.1,8.4-50.4
		c4.1-25.3,6.8-41.9,8.1-49.9c1.3-8,4.8-25.3,10.5-51.8c5.7-26.6,9.2-44,10.4-52.2c1.2-8.2,2.5-19.3,4-33.4
		c3.7-34.6,6.6-53.8,8.8-57.7l9.1,0.6c5.4,0,9.4-1.3,12-3.9c2.8,0,5.5,0.9,8.1,2.8c2.6,1.8,3.9,4.3,3.9,7.3
		c0,21.2,2.7,62.1,8.1,122.8c5.4,60.7,9.7,100,12.8,117.8c3.1,17.8,6.7,35.3,10.9,52.5c4.1,17.2,6.2,30.3,6.2,39.4l-3.2,9.1
		c0,9.9,1.8,24.6,5.5,43.9c3.7,19.3,5.5,32.9,5.5,40.8c0,7.9-1.7,12.8-5.2,14.7c-9.1,0-14.6-1.3-16.7-3.9c-2.1-2.6-3.1-6.7-3.1-12.5
		c0-5.7-0.4-12.7-1.1-21.1c-0.8-8.3-1.5-15-2.3-19.9c-0.8-5-2.1-12.8-3.9-23.5c-1.8-10.7-3-17.5-3.4-20.6
		C1598.4,1572.7,1588.5,1571.6,1577,1571.6z M1530.4,1538.9c0,4.5,5.3,8.3,15.9,11.3c16.2,4.5,34.1,6.8,53.8,6.8h6.8
		c-2.8-8.6-4.2-18.6-4.2-29.8V1512c0-27.4-3.4-67.4-10.2-119.9s-10.4-91.6-10.9-117.3c-23.1,114.3-37.4,184.8-42.9,211.7
		C1533.1,1513.5,1530.4,1530.9,1530.4,1538.9z"/>
</g>
</svg>
